<?xml version="1.0" standalone="no"?>
<!DOCTYPE svg PUBLIC "-//W3C//DTD SVG 1.1//EN" "http://www.w3.org/Graphics/SVG/1.1/DTD/svg11.dtd" >
<svg xmlns="http://www.w3.org/2000/svg" xmlns:xlink="http://www.w3.org/1999/xlink" version="1.1">
<metadata>
Created by FontForge 20161013 at Mon Jul 21 20:23:19 2014
 By ,,,
(c) 1990-2006 Apple Computer Inc. (c) 1981 Linotype AG (c) 1990-91 Type Solutions Inc.
</metadata>
<defs>
<font id="Helvetica-LightOblique" horiz-adv-x="556" >
  <font-face 
    font-family="Helvetica"
    font-weight="300"
    font-style="oblique"
    font-stretch="normal"
    units-per-em="1000"
    panose-1="2 11 4 3 2 2 2 2 2 4"
    ascent="718"
    descent="-282"
    x-height="518"
    cap-height="714"
    bbox="-468 -379 1493 1206"
    underline-thickness="50"
    underline-position="-200"
    unicode-range="U+0020-FE48"
  />
<missing-glyph horiz-adv-x="648" 
d="M148 700h500v-700h-500v700zM568 650h-340l170 -255zM598 95v510l-170 -255zM568 50l-170 255l-170 -255h340zM198 95l170 255l-170 255v-510z" />
    <glyph glyph-name="fi" unicode="fi" horiz-adv-x="500" 
d="M112 468l11 50h79l18 82q13 62 45.5 98t92.5 36q29 0 49 -4l-12 -55q-18 5 -34 5q-23 0 -38 -8.5t-24 -22.5t-14 -31.5t-9 -35.5l-14 -64h98l-11 -50h-98l-99 -468h-60l99 468h-79zM372 0l110 518h60l-110 -518h-60zM569 631h-66l19 89h66z" />
    <glyph glyph-name="fl" unicode="fl" horiz-adv-x="500" 
d="M112 468l11 50h79l18 82q13 62 45.5 98t92.5 36q29 0 49 -4l-12 -55q-18 5 -34 5q-23 0 -38 -8.5t-24 -22.5t-14 -31.5t-9 -35.5l-14 -64h98l-11 -50h-98l-99 -468h-60l99 468h-79zM372 0l153 720h60l-153 -720h-60z" />
    <glyph glyph-name=".notdef" horiz-adv-x="648" 
d="M148 700h500v-700h-500v700zM568 650h-340l170 -255zM598 95v510l-170 -255zM568 50l-170 255l-170 -255h340zM198 95l170 255l-170 255v-510z" />
    <glyph glyph-name=".null" horiz-adv-x="0" 
 />
    <glyph glyph-name="nonmarkingreturn" horiz-adv-x="278" 
 />
    <glyph glyph-name="space" unicode=" " horiz-adv-x="278" 
 />
    <glyph glyph-name="exclam" unicode="!" horiz-adv-x="333" 
d="M235 496l48 224h73l-48 -224l-81 -315h-45zM130 0l19 88h73l-19 -88h-73z" />
    <glyph glyph-name="quotedbl" unicode="&#x22;" horiz-adv-x="278" 
d="M210 720h52l-48 -226h-52zM321 720h52l-48 -226h-52z" />
    <glyph glyph-name="numbersign" unicode="#" 
d="M552 228h-111l-80 -228h-59l79 228h-137l-82 -228h-59l82 228h-110l13 59h119l51 140h-112l12 59h120l77 212h60l-77 -212h136l76 212h59l-76 -212h100l-12 -59h-108l-50 -140h102zM318 427l-52 -140h138l50 140h-136z" />
    <glyph glyph-name="dollar" unicode="$" 
d="M393 651q-28 0 -54.5 -9t-48 -25.5t-37 -39.5t-21.5 -51q-7 -33 -1 -55t21 -36.5t38 -23.5t49 -17zM309 35q31 0 61 11t55 30t42.5 45.5t24.5 58.5q8 37 1.5 61.5t-24 40t-43 24.5t-56.5 16zM282 -95h-46l16 76q-84 5 -130.5 47t-46.5 126q0 13 1.5 25t3.5 24h65
q-7 -34 -2 -63.5t20 -52t40.5 -36.5t58.5 -16l64 297q-39 10 -73 23.5t-56.5 35t-31 53.5t1.5 79q9 42 32.5 76t55.5 58t71 36.5t80 11.5l13 61h46l-13 -61q41 0 73.5 -11.5t53.5 -34t29 -55.5t1 -75h-65q6 27 0.5 49.5t-20 38.5t-36 25t-48.5 9l-56 -266q46 -12 83 -26
t60.5 -37t31 -59.5t-4.5 -93.5q-9 -44 -35.5 -78.5t-62 -58.5t-77 -37t-81.5 -14z" />
    <glyph glyph-name="percent" unicode="%" horiz-adv-x="889" 
d="M728 331q34 0 61 -13t44 -35.5t23.5 -52.5t-0.5 -64t-26 -64.5t-45.5 -53t-59.5 -35.5t-67 -13t-61.5 13t-45.5 35.5t-24.5 53t0.5 64.5t26.5 64t47 52.5t60.5 35.5t67 13zM715 274q-23 0 -44 -9t-39 -24t-30.5 -35t-17.5 -42q-5 -21 0 -40.5t16.5 -34.5t29.5 -23.5
t39 -8.5q22 0 43 9t39 24t30.5 34.5t17.5 41.5t0.5 41.5t-16 34.5t-29 23.5t-39.5 8.5zM511 532q-7 -34 -26.5 -64t-47 -52.5t-60.5 -35.5t-67 -13t-61.5 13t-45 35.5t-24 52.5t0.5 64t26.5 64t46.5 52.5t60 36t67 13.5t61.5 -13t45.5 -35.5t24.5 -53t-0.5 -64.5zM322 424
q22 0 43.5 8.5t39.5 23.5t31 34.5t18 41.5q4 22 -0.5 41.5t-16 34.5t-29.5 24t-40 9t-43.5 -8.5t-39.5 -23.5t-30.5 -35t-17.5 -42t0 -41.5t16.5 -34.5t29 -23.5t39.5 -8.5zM268 -14h-52l550 719h52z" />
    <glyph glyph-name="ampersand" unicode="&#x26;" horiz-adv-x="667" 
d="M329 375q-33 -14 -62.5 -33.5t-53.5 -43.5t-41 -51.5t-23 -56.5q-8 -36 -1.5 -64.5t24 -48.5t44.5 -31t62 -11q58 0 108.5 26.5t95.5 69.5zM493 540q13 20 16 42.5t-4 41t-24.5 30.5t-45.5 12q-19 0 -37.5 -6t-34.5 -17t-27.5 -27t-15.5 -36q-3 -16 1 -35t11.5 -37
t17 -34.5t17.5 -28.5q34 18 68.5 39.5t57.5 55.5zM528 186q25 32 38 67.5t21 72.5h59q-13 -49 -33.5 -97.5t-56.5 -90.5l88 -138h-81l-52 85q-59 -56 -118 -80t-131 -24q-47 0 -84.5 15.5t-62.5 43.5t-34 67.5t1 87.5q9 40 30 74t50.5 62t65.5 49.5t74 37.5q-11 17 -21 35.5
t-16.5 38.5t-8.5 41.5t3 45.5q7 34 25.5 60.5t44.5 44.5t57.5 27t64.5 9t58.5 -11t41.5 -30t21.5 -44.5t-0.5 -53.5q-8 -36 -25 -62.5t-41 -47t-53 -37.5t-61 -34z" />
    <glyph glyph-name="quotesingle" unicode="'" horiz-adv-x="222" 
d="M238 720h52l-48 -226h-52z" />
    <glyph glyph-name="parenleft" unicode="(" horiz-adv-x="333" 
d="M434 739q-94 -104 -160 -222.5t-92 -245.5q-27 -125 -10 -242t64 -220h-51q-29 57 -49.5 110.5t-30.5 109t-8 116t17 131.5q15 69 39 129.5t58 116.5t77 109.5t95 107.5h51z" />
    <glyph glyph-name="parenright" unicode=")" horiz-adv-x="333" 
d="M15 -191q94 104 160 222.5t93 245.5q26 125 9.5 242t-64.5 220h51q29 -57 49.5 -110.5t30.5 -109t8.5 -116t-16.5 -131.5q-15 -69 -39.5 -129.5t-58 -116.5t-77 -109.5t-95.5 -107.5h-51z" />
    <glyph glyph-name="asterisk" unicode="*" horiz-adv-x="389" 
d="M301 603l25 117h42l-25 -117l123 42l6 -44l-122 -37l52 -106l-44 -24l-51 108l-100 -106l-30 27l99 101l-104 40l27 42z" />
    <glyph glyph-name="plus" unicode="+" horiz-adv-x="660" 
d="M406 500h60l-46 -220h220l-13 -60h-220l-47 -220h-60l47 220h-220l13 60h220z" />
    <glyph glyph-name="comma" unicode="," horiz-adv-x="278" 
d="M169 -30q-10 -44 -36 -70.5t-60 -36.5l8 37q14 8 27.5 22t20.5 44l7 34h-34l19 88h73z" />
    <glyph glyph-name="hyphen" unicode="-" horiz-adv-x="333" 
d="M355 291l-13 -62h-253l13 62h253z" />
    <glyph glyph-name="period" unicode="." horiz-adv-x="278" 
d="M102 0l19 88h73l-19 -88h-73z" />
    <glyph glyph-name="slash" unicode="/" horiz-adv-x="278" 
d="M34 -90h-56l411 829h56z" />
    <glyph glyph-name="zero" unicode="0" 
d="M526 347q12 57 17 111.5t-5 97.5t-39 69t-85 26q-53 0 -92 -26.5t-67.5 -70.5t-48 -100t-31.5 -114q-14 -68 -17.5 -123.5t8.5 -94.5t41 -60.5t80 -21.5q57 0 97 28t68 72t45.5 99t28.5 108zM428 705q52 0 86.5 -15.5t55.5 -42.5t29.5 -63t9 -76.5t-5.5 -83.5t-15 -84
q-15 -70 -38.5 -134t-60 -113t-89 -78t-125.5 -29t-113.5 29t-56.5 78.5t-12 115t20 138.5q14 67 36.5 131t59 114.5t90 81.5t129.5 31z" />
    <glyph glyph-name="one" unicode="1" 
d="M413 524h-182l9 42q41 3 74.5 8t61 19t49.5 40.5t40 71.5h51l-150 -705h-64z" />
    <glyph glyph-name="two" unicode="2" 
d="M170 474q11 52 36 94.5t61.5 73t82.5 47t98 16.5q53 0 90.5 -15.5t59 -41.5t28 -62t-2.5 -76q-10 -47 -33 -83t-54 -64t-68.5 -50t-75.5 -41.5t-75 -37.5t-67 -38q-20 -13 -39.5 -27.5t-35.5 -31.5t-28.5 -37.5t-19.5 -45.5h393l-11 -54h-461q11 51 30.5 92t61.5 80
q46 42 92 72t88.5 53.5t81 43t69 42.5t52 52t30.5 71q7 34 0.5 61t-23.5 46t-43 28.5t-59 9.5q-35 0 -66.5 -14.5t-57 -38.5t-43 -56t-23.5 -68h-68z" />
    <glyph glyph-name="three" unicode="3" 
d="M304 392q45 0 83 5.5t68 21t50.5 41.5t29.5 67q7 33 0 56.5t-24.5 38.5t-43.5 22t-56 7q-34 0 -64 -11t-54 -31.5t-41 -48t-24 -60.5h-64q11 48 35.5 86.5t66.5 71.5q39 30 82.5 38.5t87.5 8.5q42 0 76 -10.5t57 -32t31.5 -54.5t-0.5 -77q-12 -55 -44.5 -95t-89.5 -62
q36 -12 56 -31.5t29 -43t9 -49.5t-5 -50q-9 -44 -32.5 -82t-58.5 -67t-81 -46.5t-101 -18.5q-61 0 -103.5 11t-67.5 36.5t-33 67t-1 103.5h64q-8 -40 -2 -70.5t25 -51.5t49 -31.5t69 -10.5q38 0 73.5 13t64 35t47 51t23.5 60q8 43 -4 71.5t-39 45t-67 22t-87 2.5z" />
    <glyph glyph-name="four" unicode="4" 
d="M395 174h-322l12 55l427 469h58l-100 -470h98l-11 -54h-98l-37 -174h-64zM147 228h259l80 374z" />
    <glyph glyph-name="five" unicode="5" 
d="M138 183q-5 -72 35 -107.5t109 -35.5q39 0 73.5 14t61.5 38.5t45.5 57t26.5 70.5q8 39 3 72t-23 57t-47.5 37t-69.5 13q-48 0 -89.5 -17.5t-79.5 -55.5l-51 7l134 365h350l-11 -54h-296l-94 -237q23 13 42.5 22t38.5 14.5t39 7.5t44 2q48 0 86 -16t61 -46t31 -73.5
t-4 -97.5q-12 -56 -40 -99.5t-65 -73.5t-81 -45.5t-87 -15.5q-50 0 -91 10t-69 33.5t-41 61t-5 92.5h64z" />
    <glyph glyph-name="six" unicode="6" 
d="M550 532q1 54 -25.5 86.5t-83.5 32.5q-65 0 -109 -31t-74 -78.5t-49 -103.5t-33 -106q19 20 39.5 40t45 35.5t54.5 25t69 9.5q107 0 153 -60.5t23 -166.5q-23 -107 -95 -168t-180 -61q-53 0 -94.5 17.5t-66 57.5t-29.5 104.5t15 157.5q9 42 23 86.5t34 87t47 80.5
t61.5 66.5t77 45t94.5 16.5q84 0 130.5 -44t38.5 -129h-66zM370 388q-37 0 -69.5 -14t-58 -38t-43.5 -55.5t-25 -67.5q-6 -30 -4 -60.5t16 -55.5t41 -41t71 -16q45 0 79 15.5t58 41t39 57t22 63.5q17 82 -13 126.5t-113 44.5z" />
    <glyph glyph-name="seven" unicode="7" 
d="M207 698h449l-12 -60q-94 -86 -166.5 -176.5t-124.5 -176t-84.5 -159.5t-46.5 -126h-70q21 76 64.5 161.5t99.5 169.5t121 162.5t129 140.5h-372z" />
    <glyph glyph-name="eight" unicode="8" 
d="M352 345q-74 0 -130 -36.5t-73 -114.5q-7 -33 -0.5 -61t25 -48.5t48.5 -32.5t70 -12q35 0 67.5 11.5t59 32.5t45 50t26.5 64q8 37 0.5 64.5t-26.5 46t-48 27.5t-64 9zM414 651q-60 0 -108 -32t-62 -95q-7 -33 0.5 -56.5t25.5 -38.5t43.5 -22.5t54.5 -7.5q58 0 103.5 32
t61.5 107q11 54 -17.5 83.5t-101.5 29.5zM248 379q-22 16 -37.5 30.5t-24 31.5t-10 38.5t5.5 53.5q8 36 30.5 68t55 55.5t72 36.5t80.5 12q40 0 76.5 -10t62 -31t36.5 -53.5t1 -77.5q-11 -55 -42 -94t-87 -64q54 -21 77.5 -67t10.5 -108q-23 -104 -102 -159t-192 -55
q-38 0 -74.5 13t-62.5 39t-38 65t-1 91q14 63 55.5 112.5t107.5 72.5z" />
    <glyph glyph-name="nine" unicode="9" 
d="M151 155q-2 -115 113 -115q63 0 107 31t74.5 78t49.5 101.5t31 102.5l-2 2q-44 -54 -97 -82t-116 -28q-50 0 -86.5 16t-59 46t-29 72t4.5 93q11 50 34 92.5t57.5 74t81 49t104.5 17.5q71 0 112.5 -28t60 -76t16.5 -113t-18 -139q-19 -90 -52.5 -157.5t-77.5 -113.5
t-96 -69t-108 -23q-41 0 -74.5 10t-56 31t-33 53t-5.5 75h65zM406 651q-81 -2 -132.5 -50t-68.5 -131q-17 -81 16 -126t111 -45q37 0 69.5 14t58 38t42.5 55.5t25 67.5q16 78 -15.5 126.5t-105.5 50.5z" />
    <glyph glyph-name="colon" unicode=":" horiz-adv-x="278" 
d="M102 0l19 88h73l-19 -88h-73zM188 404l19 88h73l-19 -88h-73z" />
    <glyph glyph-name="semicolon" unicode=";" horiz-adv-x="278" 
d="M169 -30q-10 -44 -36 -70.5t-60 -36.5l8 37q14 8 27.5 22t20.5 44l7 34h-34l19 88h73zM188 404l19 88h73l-19 -88h-73z" />
    <glyph glyph-name="less" unicode="&#x3c;" horiz-adv-x="660" 
d="M592 58l-13 -64l-450 235l11 53l547 223l-13 -64l-461 -186z" />
    <glyph glyph-name="equal" unicode="=" horiz-adv-x="660" 
d="M648 318h-500l12 60h500zM606 124h-500l13 60h500z" />
    <glyph glyph-name="greater" unicode="&#x3e;" horiz-adv-x="660" 
d="M629 229l-550 -235l13 64l463 197l-381 186l13 64l453 -223z" />
    <glyph glyph-name="question" unicode="?" horiz-adv-x="500" 
d="M255 182q10 55 28.5 100t65.5 86q27 23 55.5 45t53.5 44.5t43.5 46.5t24.5 52q11 54 -21 91.5t-107 37.5q-37 0 -68.5 -13t-56.5 -36t-41.5 -53.5t-22.5 -66.5h-61q7 50 30.5 91t59 70.5t80 45.5t93.5 16q103 0 149.5 -51.5t28.5 -136.5q-9 -44 -35.5 -75.5t-60 -58.5
t-69.5 -54.5t-65 -61.5q-22 -26 -31 -57.5t-15 -61.5h-58zM210 0l19 88h73l-19 -88h-73z" />
    <glyph glyph-name="at" unicode="@" horiz-adv-x="800" 
d="M778 167q-33 -44 -75 -78.5t-90 -58.5t-98.5 -36.5t-99.5 -12.5q-80 0 -143 30t-103 82t-54.5 121.5t2.5 148.5q16 78 61 146.5t107 119.5t136.5 80.5t150.5 29.5q72 0 130 -23.5t95.5 -65.5t52.5 -100t0 -127q-13 -59 -45.5 -112t-74.5 -93t-88.5 -63.5t-86.5 -23.5
q-26 0 -49 12.5t-26 39.5q-28 -23 -63 -36.5t-67 -13.5t-55.5 12t-37 32.5t-17 47.5t2.5 58q11 50 40.5 103.5t71.5 98t93.5 73t107.5 28.5q35 0 62.5 -17t35.5 -49l24 46h67l-165 -302q-9 -17 -16 -31.5t-8.5 -25.5t4 -17.5t20.5 -6.5q31 0 64.5 23t63.5 58.5t52 78.5
t31 83q13 61 0 110t-44.5 83t-79 52t-104.5 18q-69 0 -133 -26.5t-115.5 -72t-88 -106t-50.5 -128.5q-15 -68 -3 -127t46 -103t86.5 -69.5t120.5 -25.5q78 0 156 35.5t137 100.5h59zM379 196q23 0 46.5 13t46.5 34t43.5 48.5t37.5 56t28.5 56t16.5 50.5q7 29 -7.5 51
t-45.5 22q-40 0 -77 -24.5t-67.5 -61t-52 -78t-28.5 -75.5q-8 -36 6.5 -64t52.5 -28z" />
    <glyph glyph-name="A" unicode="A" horiz-adv-x="667" 
d="M15 0l436 720h77l123 -720h-70l-35 226h-328l-133 -226h-70zM253 284h282l-60 378z" />
    <glyph glyph-name="B" unicode="B" horiz-adv-x="667" 
d="M161 58h173q56 0 98.5 5t73.5 20.5t50 44t29 75.5q9 45 0 72.5t-33.5 42.5t-62.5 20.5t-86 5.5h-181zM234 402h172q53 0 91 9t64 26.5t41 43t22 58.5q7 34 1 57.5t-27 38t-58 21t-93 6.5h-157zM81 0l153 720h260q63 0 105.5 -13t65.5 -37t29.5 -57.5t-2.5 -73.5
q-8 -38 -24 -65.5t-36 -46t-43 -29t-45 -14.5l-1 -2q72 -11 98.5 -59t11.5 -120q-12 -56 -37.5 -95t-62 -63t-82 -34.5t-96.5 -10.5h-294z" />
    <glyph glyph-name="C" unicode="C" horiz-adv-x="722" 
d="M701 511q-2 92 -50.5 131t-140.5 39q-65 0 -118 -26t-92.5 -70t-66.5 -101.5t-40 -121.5q-13 -60 -13 -118t19.5 -103.5t62.5 -73.5t117 -28q46 0 87 15t75.5 41.5t61.5 62.5t46 79h71q-23 -52 -56 -98.5t-77.5 -81.5t-102.5 -55.5t-130 -20.5q-83 0 -135.5 30.5
t-79 82.5t-29 120.5t14.5 145.5q22 103 62.5 175t95 117.5t120 66t137.5 20.5q111 0 174 -58t57 -170h-70z" />
    <glyph glyph-name="D" unicode="D" horiz-adv-x="722" 
d="M81 0l153 720h246q30 0 58.5 -1.5t55.5 -7t51.5 -16.5t45.5 -29q30 -26 45 -63.5t20 -79t1 -84t-11 -78.5q-8 -36 -20 -73t-29.5 -72.5t-41.5 -68t-54 -59.5q-31 -28 -64 -45t-68 -26.5t-70.5 -13t-71.5 -3.5h-246zM161 58h163q46 0 88 5.5t88 27.5q40 18 70 49
t51.5 67.5t35 76.5t21.5 77q8 39 11.5 79.5t-2.5 77t-24 67t-51 50.5q-29 17 -71.5 22t-87.5 5h-163z" />
    <glyph glyph-name="E" unicode="E" horiz-adv-x="611" 
d="M81 0l153 720h479l-12 -58h-411l-56 -260h371l-12 -58h-371l-61 -286h421l-12 -58h-489z" />
    <glyph glyph-name="F" unicode="F" 
d="M74 0l153 720h464l-12 -58h-396l-56 -260h360l-12 -58h-360l-73 -344h-68z" />
    <glyph glyph-name="G" unicode="G" horiz-adv-x="778" 
d="M454 314l12 58h308l-79 -372h-58l26 123q-51 -65 -122 -103.5t-177 -38.5q-68 0 -121 24t-84.5 71.5t-40 119.5t11.5 168q17 79 51.5 147.5t86.5 119t121 79.5t154 29q57 0 103.5 -14t80 -42.5t51.5 -71t18 -100.5h-70q0 40 -15 72t-40.5 53.5t-60 33t-74.5 11.5
q-71 0 -127.5 -25t-99 -70.5t-71.5 -109t-45 -139.5q-13 -60 -7 -114t31 -95t68 -65t105 -24q29 0 61.5 6.5t64.5 21.5t62.5 39t55.5 59q25 34 39 71t24 78h-243z" />
    <glyph glyph-name="H" unicode="H" horiz-adv-x="722" 
d="M80 0l153 720h68l-66 -309h426l66 309h68l-153 -720h-68l75 353h-426l-75 -353h-68z" />
    <glyph glyph-name="I" unicode="I" horiz-adv-x="278" 
d="M105 0l153 720h68l-153 -720h-68z" />
    <glyph glyph-name="J" unicode="J" horiz-adv-x="500" 
d="M138 228q-8 -34 -12 -67t3 -59.5t30 -42.5t70 -16q70 0 107 40t53 116l111 521h68l-111 -523q-23 -105 -83.5 -160.5t-165.5 -55.5q-61 0 -94 20.5t-46 55t-10.5 79t12.5 92.5h68z" />
    <glyph glyph-name="K" unicode="K" horiz-adv-x="667" 
d="M85 0l153 720h68l-79 -373l448 373h77l-345 -287l242 -433h-83l-217 391l-137 -113l-59 -278h-68z" />
    <glyph glyph-name="L" unicode="L" 
d="M81 0l153 720h68l-141 -662h386l-12 -58h-454z" />
    <glyph glyph-name="M" unicode="M" horiz-adv-x="833" 
d="M78 0l153 720h104l101 -635h2l367 635h103l-153 -720h-68l136 642h-2l-372 -642h-64l-101 642h-2l-136 -642h-68z" />
    <glyph glyph-name="N" unicode="N" horiz-adv-x="722" 
d="M282 628h-2l-133 -628h-68l153 720h77l282 -629h2l134 629h68l-153 -720h-79z" />
    <glyph glyph-name="O" unicode="O" horiz-adv-x="778" 
d="M129 359q16 79 52.5 148t90 120.5t121.5 81.5t149 30q84 0 141.5 -29.5t89 -81t38 -121t-10.5 -148.5q-17 -78 -52.5 -146.5t-88.5 -120t-122.5 -81.5t-152.5 -30t-139.5 30t-87.5 81.5t-38 120t10 146.5zM397 39q70 0 126 26.5t98 70.5t70 102t41 121q16 75 10 134.5
t-32 101.5t-71 64t-107 22q-69 0 -125 -27t-98 -71.5t-70.5 -102.5t-41.5 -121q-14 -64 -10.5 -122t26.5 -102t68 -70t116 -26z" />
    <glyph glyph-name="P" unicode="P" horiz-adv-x="611" 
d="M78 0l153 720h263q70 0 112 -16t62.5 -44t23.5 -64.5t-6 -76.5q-13 -60 -45.5 -99t-76.5 -61.5t-95 -31.5t-101 -9h-154l-68 -318h-68zM382 376q48 0 87 6t69 22.5t50.5 45t30.5 74.5q15 68 -22 103t-134 35h-176l-61 -286h156z" />
    <glyph glyph-name="Q" unicode="Q" horiz-adv-x="778" 
d="M706 -6l-48 -46l-89 82q-42 -23 -89 -36t-101 -13q-83 0 -139.5 30t-87.5 81.5t-38 120t10 146.5q16 75 51 143.5t87.5 121t121.5 84t153 31.5q76 0 133 -25t91.5 -73t43.5 -119t-10 -163q-18 -88 -61 -163t-109 -128zM584 107q55 44 91 110.5t52 141.5q17 81 9.5 141
t-34.5 100.5t-72 60.5t-103 20q-69 0 -125 -27t-98 -72t-70.5 -103t-41.5 -120q-14 -64 -10.5 -122t26.5 -102t68 -70t116 -26q38 0 71 8.5t62 23.5l-69 63l46 47z" />
    <glyph glyph-name="R" unicode="R" horiz-adv-x="667" 
d="M442 385q38 0 72.5 8t62 25.5t47 44.5t27.5 65q9 40 0 66t-30 41t-51.5 21t-64.5 6h-216l-59 -277h212zM218 327l-70 -327h-68l153 720h282q119 0 172.5 -44.5t32.5 -144.5q-14 -68 -50.5 -108t-104.5 -68q30 -11 43.5 -32t17 -48t-0.5 -57t-9 -58q-8 -41 -11.5 -68
t-3.5 -44t3 -26.5t9 -14.5l-1 -7h-75q-7 19 -5 50.5t7 66.5t11 68.5t6 53.5q0 29 -10 46.5t-26.5 26.5t-39.5 12t-48 3h-214z" />
    <glyph glyph-name="S" unicode="S" horiz-adv-x="611" 
d="M155 215q-6 -48 4 -81.5t33 -54.5t57 -30.5t75 -9.5q48 0 85.5 12t64 32.5t43 47.5t22.5 57q9 42 -4.5 68t-41 42.5t-64.5 26.5t-76 19.5t-76 22.5t-63 35t-37.5 56.5t-0.5 87.5q8 37 31 72t59 62t85.5 43t109.5 16q61 0 102.5 -17t65.5 -46.5t31 -68.5t-3 -83h-65
q9 41 0.5 71t-28.5 49t-50.5 28t-64.5 9q-52 0 -90.5 -14.5t-64.5 -37.5t-40 -51t-15 -56q-2 -35 15.5 -56t46.5 -34.5t66 -22t75 -18t73 -22.5t59 -35t34.5 -56.5t-0.5 -86.5q-21 -100 -102 -155t-206 -55q-56 0 -101 14.5t-73.5 44t-38.5 73t2 102.5h66z" />
    <glyph glyph-name="T" unicode="T" 
d="M169 720h524l-12 -58h-228l-141 -662h-68l141 662h-228z" />
    <glyph glyph-name="U" unicode="U" horiz-adv-x="722" 
d="M235 720h68l-91 -429q-29 -134 8.5 -193t148.5 -59q58 0 101.5 15.5t75.5 47t53 78.5t35 111l91 429h68l-95 -449q-30 -141 -115.5 -215.5t-225.5 -74.5q-141 0 -194 76t-23 214z" />
    <glyph glyph-name="V" unicode="V" horiz-adv-x="611" 
d="M171 720h71l81 -640l352 640h71l-403 -720h-75z" />
    <glyph glyph-name="W" unicode="W" horiz-adv-x="889" 
d="M666 96h2l290 624h70l-342 -720h-75l-32 636h-2l-302 -636h-75l-33 720h68l22 -624h2l300 624h76z" />
    <glyph glyph-name="X" unicode="X" horiz-adv-x="611" 
d="M372 318l-277 -318h-77l327 370l-164 350h79l133 -303l262 303h79l-310 -350l168 -370h-78z" />
    <glyph glyph-name="Y" unicode="Y" horiz-adv-x="611" 
d="M381 373l291 347h79l-347 -406l-67 -314h-68l66 309l-170 411h78z" />
    <glyph glyph-name="Z" unicode="Z" horiz-adv-x="611" 
d="M31 0l12 57l590 605h-422l12 58h506l-12 -57l-590 -605h464l-12 -58h-548z" />
    <glyph glyph-name="bracketleft" unicode="[" horiz-adv-x="333" 
d="M50 -191l198 930h191l-11 -50h-127l-176 -830h125l-11 -50h-189z" />
    <glyph glyph-name="backslash" unicode="\" horiz-adv-x="278" 
d="M147 739h56l59 -829h-56z" />
    <glyph glyph-name="bracketright" unicode="]" horiz-adv-x="333" 
d="M201 -191h-191l11 50h127l176 830h-125l11 50h189z" />
    <glyph glyph-name="asciicircum" unicode="^" horiz-adv-x="660" 
d="M125 245l326 453h52l135 -453h-57l-118 392l-280 -392h-58z" />
    <glyph glyph-name="underscore" unicode="_" horiz-adv-x="500" 
d="M484 -75l-11 -50h-500l11 50h500z" />
    <glyph glyph-name="grave" unicode="`" horiz-adv-x="333" 
d="M197 713h78l81 -139h-51z" />
    <glyph glyph-name="a" unicode="a" 
d="M469 272q-42 -16 -81.5 -21t-79.5 -8q-70 -5 -114.5 -31t-55.5 -79q-5 -24 1 -41.5t19.5 -29t32.5 -17t40 -5.5q36 0 71.5 9t66 27.5t52.5 47t31 67.5zM374 302q17 2 41.5 6t41.5 11t23.5 23.5t9.5 30.5q5 23 2 42t-15.5 33t-35 22t-57.5 8q-62 0 -108 -25t-68 -92h-61
q13 46 37.5 78.5t57.5 53t72.5 30t81.5 9.5q39 0 71.5 -8.5t54 -27t29.5 -49.5t-1 -76l-60 -282q-8 -35 2.5 -44.5t51.5 4.5l-10 -47q-7 -2 -21.5 -6t-27.5 -4t-26 3q-29 5 -33 27.5t1 49.5q-47 -42 -100.5 -64t-110.5 -22q-34 0 -63.5 9t-49.5 28t-28 46.5t0 65.5
q27 132 214 156z" />
    <glyph glyph-name="b" unicode="b" horiz-adv-x="611" 
d="M194 261q-10 -47 -7 -87.5t19 -70t45.5 -46.5t71.5 -17q38 0 73 13.5t64 39.5t50.5 63.5t32.5 86.5q12 49 11 91.5t-16 74.5t-45.5 50.5t-76.5 18.5q-41 0 -77 -17.5t-65.5 -47t-50 -69t-29.5 -83.5zM139 0h-60l153 720h60l-61 -285q39 48 95 72.5t111 24.5
q59 0 98 -22.5t59.5 -60t24 -87.5t-8.5 -104q-12 -57 -36 -107t-60 -86.5t-84.5 -57.5t-111.5 -21q-25 0 -49.5 7t-46 20t-38 32.5t-24.5 45.5h-2z" />
    <glyph glyph-name="c" unicode="c" 
d="M514 355q-3 58 -35 90.5t-92 32.5q-46 0 -83 -19t-65 -50.5t-46 -71t-27 -79.5q-9 -41 -7.5 -80t16 -70t43.5 -49.5t76 -18.5q67 0 115.5 37t72.5 102h64q-17 -43 -42 -78.5t-58 -61t-74 -39.5t-90 -14q-62 0 -102.5 21t-62 57.5t-24.5 86.5t9 107q11 54 37 103.5
t64 87.5t87.5 60.5t107.5 22.5q90 0 136.5 -43t40.5 -134h-61z" />
    <glyph glyph-name="d" unicode="d" horiz-adv-x="611" 
d="M527 261q9 44 5.5 83.5t-19.5 69t-44.5 47t-69.5 17.5q-47 0 -85 -18.5t-67 -50.5t-48 -74.5t-27 -91.5q-10 -49 -4.5 -86.5t23.5 -63.5t47.5 -39.5t67.5 -13.5q42 0 78.5 17t65 46.5t48 70t29.5 87.5zM625 720h60l-153 -720h-60l19 91h-2q-18 -26 -43 -45.5t-52 -32.5
t-54.5 -20t-52.5 -7q-63 0 -103 21t-60 57.5t-22.5 86.5t9.5 107q12 54 36 104t60.5 87.5t85 60t107.5 22.5q55 0 100.5 -24.5t63.5 -72.5z" />
    <glyph glyph-name="e" unicode="e" 
d="M510 295q8 38 4.5 71.5t-18.5 58t-43 39t-68 14.5t-73.5 -15t-60.5 -40t-47 -58t-32 -70h338zM161 245q-9 -42 -6 -79.5t19 -65t45.5 -44t72.5 -16.5q59 0 107.5 31t74.5 88h67q-19 -37 -43.5 -68.5t-56.5 -55t-72 -36.5t-89 -13q-62 0 -102.5 21t-62 57.5t-24.5 86
t9 106.5t39 107t65.5 87.5t87 59t104.5 21.5q107 0 152.5 -73.5t14.5 -213.5h-402z" />
    <glyph glyph-name="f" unicode="f" horiz-adv-x="278" 
d="M119 468l11 50h77l18 82q13 62 45.5 98t92.5 36q29 0 49 -4l-12 -55q-18 5 -34 5q-23 0 -38 -8.5t-24 -22.5t-14 -31.5t-9 -35.5l-14 -64h100l-11 -50h-100l-99 -468h-60l99 468h-77z" />
    <glyph glyph-name="g" unicode="g" horiz-adv-x="611" 
d="M527 257q10 47 7 87.5t-19 70t-45 46.5t-71 17q-38 0 -73 -13.5t-64.5 -39.5t-51 -63.5t-32.5 -86.5q-12 -49 -11 -91.5t16.5 -74.5t45.5 -50.5t77 -18.5q41 0 77 17.5t65 47t49.5 69t29.5 83.5zM582 518h60l-99 -468q-11 -52 -31.5 -99.5t-55.5 -83.5t-86.5 -57.5
t-125.5 -21.5q-57 0 -95 14.5t-59.5 36.5t-29 48.5t-3.5 49.5h64q0 -29 11 -47.5t29.5 -29t42.5 -14.5t51 -4q61 0 102.5 21t68 55t41 77t23.5 88q-39 -48 -95 -72.5t-111 -24.5q-59 0 -98 22.5t-59.5 60t-24 87.5t8.5 104q12 57 36 107t60 86.5t84.5 57.5t111.5 21
q25 0 49.5 -7t46 -20t38 -33t24.5 -45h2z" />
    <glyph glyph-name="h" unicode="h" 
d="M72 0l153 720h60l-58 -274q44 38 87.5 62t97.5 24q48 0 85.5 -16.5t56.5 -57.5q13 -28 10.5 -57.5t-9.5 -61.5l-72 -339h-60l72 338q15 70 -8.5 105t-95.5 35q-28 0 -53 -8.5t-46.5 -22.5t-38.5 -32t-28 -38q-14 -25 -21 -48t-13 -50l-59 -279h-60z" />
    <glyph glyph-name="i" unicode="i" horiz-adv-x="222" 
d="M81 0l110 518h60l-110 -518h-60zM212 631l19 89h66l-19 -89h-66z" />
    <glyph glyph-name="j" unicode="j" horiz-adv-x="222" 
d="M258 518l-125 -587q-7 -33 -15 -58t-22 -42.5t-36.5 -26t-58.5 -8.5q-22 0 -39 4l12 53q50 -7 69.5 11t28.5 59l126 595h60zM285 631h-66l19 89h66z" />
    <glyph glyph-name="k" unicode="k" horiz-adv-x="500" 
d="M68 0l153 720h60l-95 -448l306 246h82l-234 -187l147 -331h-67l-133 289l-117 -93l-42 -196h-60z" />
    <glyph glyph-name="l" unicode="l" horiz-adv-x="222" 
d="M81 0l153 720h60l-153 -720h-60z" />
    <glyph glyph-name="m" unicode="m" horiz-adv-x="833" 
d="M124 0h-60l110 518h60l-16 -78h2q32 45 80 68.5t99 23.5q36 0 59.5 -8t38 -21.5t22 -31.5t11.5 -39q36 51 85 75.5t105 24.5q53 0 81 -17.5t39 -46t8.5 -65.5t-10.5 -76l-70 -327h-60l76 358q6 28 5.5 50t-10 37.5t-29 24t-51.5 8.5q-33 0 -67 -14.5t-63 -44.5
q-12 -13 -22.5 -30.5t-18.5 -36.5t-14 -38t-9 -35l-59 -279h-60l76 358q6 28 5.5 50t-10 37.5t-29 24t-51.5 8.5q-33 0 -67 -14.5t-63 -44.5q-12 -13 -22.5 -30.5t-18.5 -36.5t-14 -38t-9 -35z" />
    <glyph glyph-name="n" unicode="n" 
d="M132 0h-60l110 518h60l-15 -72q44 38 87.5 62t97.5 24q48 0 85.5 -16.5t56.5 -57.5q13 -28 10.5 -57.5t-9.5 -61.5l-72 -339h-60l72 338q15 70 -8.5 105t-95.5 35q-28 0 -53 -8.5t-46.5 -22.5t-38.5 -32t-28 -38q-14 -25 -21 -48t-13 -50z" />
    <glyph glyph-name="o" unicode="o" 
d="M275 -14q-50 1 -89.5 18t-65 51t-33.5 85t6 119q12 57 37.5 106.5t63.5 86.5t87.5 58.5t109.5 21.5q61 0 101.5 -21.5t62.5 -58t26 -86.5t-8 -107q-13 -62 -41 -112t-67 -86t-87.5 -55.5t-102.5 -19.5zM509 259q9 46 8 86t-15.5 69.5t-44 46.5t-77.5 17
q-47 0 -84.5 -18.5t-65.5 -49t-46 -70t-27 -81.5q-10 -48 -7 -88.5t19 -69.5t45.5 -45t72.5 -16q47 0 84.5 18.5t65 49.5t45.5 70t27 81z" />
    <glyph glyph-name="p" unicode="p" horiz-adv-x="611" 
d="M194 257q-9 -44 -5.5 -83.5t20 -69t45 -47t69.5 -17.5q46 0 84.5 18.5t67 50.5t47.5 74.5t27 91.5q20 98 -18.5 150.5t-114.5 52.5q-42 0 -78.5 -17t-65 -46.5t-48.5 -70t-30 -87.5zM96 -204h-60l153 722h60l-19 -91h2q18 25 43 45t52 33t54.5 20t52.5 7q63 0 103 -21
t60 -57.5t22.5 -86.5t-9.5 -107q-12 -54 -36 -104t-60.5 -87.5t-85 -60t-107.5 -22.5q-55 0 -100.5 24.5t-63.5 72.5z" />
    <glyph glyph-name="q" unicode="q" horiz-adv-x="611" 
d="M527 261q9 44 5.5 83.5t-19.5 69t-44.5 47t-69.5 17.5q-47 0 -85 -18.5t-67 -50.5t-48 -74.5t-27 -91.5q-10 -49 -4.5 -86.5t23.5 -63.5t47.5 -39.5t67.5 -13.5q42 0 78.5 17t65 46.5t48 70t29.5 87.5zM582 518h60l-153 -722h-60l61 287q-39 -48 -95 -72.5t-111 -24.5
q-59 0 -98 22.5t-59.5 60t-24 87.5t8.5 104q12 57 36 107t60 86.5t84.5 57.5t111.5 21q25 0 49.5 -7t46 -20t38 -33t24.5 -45h2z" />
    <glyph glyph-name="r" unicode="r" horiz-adv-x="333" 
d="M135 0h-60l110 518h60l-21 -97h2q38 62 83 86.5t110 24.5l-14 -65q-50 1 -86.5 -16t-62 -46t-42 -68.5t-25.5 -82.5z" />
    <glyph glyph-name="s" unicode="s" horiz-adv-x="500" 
d="M141 162q1 -67 31.5 -94.5t98.5 -27.5q33 0 58.5 8t44 21.5t30 30.5t15.5 36q8 38 -12.5 56.5t-55.5 29t-76 18t-75 22.5t-52.5 43t-7.5 79q14 65 70 106.5t143 41.5q84 0 128 -37.5t37 -125.5h-61q4 60 -28 84.5t-88 24.5q-57 0 -92.5 -24.5t-43.5 -64.5q-6 -26 5 -43
t32 -28t49 -18.5t57.5 -15t57 -17.5t47.5 -26.5t29 -41.5t1 -62t-29.5 -65.5t-54 -47.5t-73 -28.5t-86.5 -9.5t-78.5 13.5t-52.5 37.5t-27.5 56t-1.5 69h61z" />
    <glyph glyph-name="t" unicode="t" horiz-adv-x="278" 
d="M254 -2q-11 -2 -30.5 -7t-41.5 -5q-45 0 -63.5 22.5t-6.5 80.5l80 379h-73l11 50h73l31 144h60l-31 -144h97l-11 -50h-97l-75 -355q-4 -19 -6 -33t1.5 -23t13 -13t28.5 -4q12 0 24.5 2t25.5 5z" />
    <glyph glyph-name="u" unicode="u" 
d="M533 518h60l-110 -518h-60l15 72q-15 -14 -33 -29t-40.5 -27.5t-50 -21t-61.5 -8.5q-52 0 -84 14.5t-48 40.5t-18 60.5t7 75.5l72 341h60l-72 -340q-14 -67 9.5 -102.5t94.5 -35.5q37 0 69.5 14.5t58 40.5t44 62t27.5 79z" />
    <glyph glyph-name="v" unicode="v" horiz-adv-x="500" 
d="M127 518h65l74 -444l262 444h65l-311 -518h-67z" />
    <glyph glyph-name="w" unicode="w" horiz-adv-x="722" 
d="M527 80l229 438h61l-278 -518h-64l-21 435h-2l-207 -435h-72l-48 518h60l40 -442l214 442h67z" />
    <glyph glyph-name="x" unicode="x" horiz-adv-x="500" 
d="M300 224l-209 -224h-73l256 268l-130 250h74l99 -206l191 206h76l-240 -250l137 -268h-72z" />
    <glyph glyph-name="y" unicode="y" horiz-adv-x="500" 
d="M38 -141q11 -2 23.5 -4t25.5 -2q25 0 44.5 16t34.5 38.5t27.5 47t24.5 41.5l-90 522h67l72 -445l260 445h65l-302 -511q-29 -49 -53 -88t-48 -66.5t-50 -42t-57 -14.5q-16 0 -30.5 2t-25.5 5z" />
    <glyph glyph-name="z" unicode="z" horiz-adv-x="500" 
d="M33 0l11 53l432 415h-321l11 50h398l-11 -53l-432 -415h357l-11 -50h-434z" />
    <glyph glyph-name="braceleft" unicode="{" horiz-adv-x="333" 
d="M250 577q9 44 22.5 75t34 50.5t50 27.5t72.5 7q-88 -28 -107 -121l-41 -192q-6 -29 -14 -53t-21 -43t-32 -32.5t-47 -20.5v-2q47 -11 56 -45t-3 -90l-43 -206q-11 -51 3 -79t59 -42l-1 -2q-44 -1 -71.5 7t-41.5 26t-15 45.5t7 65.5l43 204q5 23 6 42t-5 34t-20 25t-38 15
v2q30 8 48.5 18.5t30 24.5t18 33t11.5 44z" />
    <glyph glyph-name="bar" unicode="|" horiz-adv-x="402" 
d="M301 820v-1093h-51v1093h51z" />
    <glyph glyph-name="braceright" unicode="}" horiz-adv-x="333" 
d="M287 395q-5 -23 -6 -42t5 -34t20 -25t38 -15v-2q-30 -8 -48.5 -18.5t-30 -24.5t-18 -33t-11.5 -44l-38 -182q-9 -44 -22.5 -75t-34 -50.5t-50 -28t-72.5 -6.5q86 28 106 121l41 192q6 29 14.5 53t21 43t31.5 32.5t47 20.5v2q-47 11 -56 45t3 90l44 206q11 51 -3 79
t-59 42v2q44 1 71.5 -7t41.5 -26t15 -45.5t-7 -65.5z" />
    <glyph glyph-name="asciitilde" unicode="~" horiz-adv-x="660" 
d="M290 324q27 0 55 -11t54 -25q27 -14 51.5 -25t44.5 -11q17 0 33.5 8.5t31.5 21.5t28.5 28t23.5 29l33 -34q-15 -20 -33 -39.5t-38.5 -35t-43.5 -25t-48 -9.5q-14 0 -31 4.5t-34.5 11t-33 14t-27.5 12.5q-18 8 -37 19t-41 11q-20 0 -38 -9t-34 -23t-30 -30.5t-26 -31.5
l-23 47q14 16 31.5 34t37.5 33.5t43.5 25.5t50.5 10z" />
    <glyph glyph-name="uni00A0" unicode="&#xa0;" horiz-adv-x="278" 
 />
    <glyph glyph-name="exclamdown" unicode="&#xa1;" horiz-adv-x="333" 
d="M264 352l-53 -315l-48 -224h-73l48 224l81 315h45zM225 445l18 87h73l-18 -87h-73z" />
    <glyph glyph-name="cent" unicode="&#xa2;" 
d="M425 473q-10 3 -19.5 4t-20.5 1q-46 0 -83 -19t-65 -50.5t-46 -71t-27 -79.5q-6 -29 -7 -57t3.5 -53t15.5 -45.5t29 -34.5zM242 47q11 -3 23.5 -5t26.5 -2q67 0 115.5 37t72.5 102h64q-14 -39 -38.5 -74t-58 -61.5t-76 -42t-91.5 -15.5q-19 0 -35 2t-31 6l-74 -135h-47
l81 150q-59 32 -75.5 98t1.5 151q14 66 43 117t68 86t86.5 53t98.5 18q30 0 58 -5l66 120h48l-73 -134q85 -40 78 -158h-61q-3 68 -48 101z" />
    <glyph glyph-name="sterling" unicode="&#xa3;" 
d="M428 365l-9 -42h-151q1 -16 0.5 -33.5t-4.5 -34.5q-6 -28 -19.5 -54t-32 -49.5t-40.5 -44.5t-44 -40l2 -2q21 10 46 18.5t49 8.5q34 0 55.5 -6.5t39.5 -14.5t36 -14.5t43 -6.5q35 0 63 17t57 40l23 -51q-27 -20 -48.5 -33.5t-42.5 -21.5t-44.5 -11.5t-53.5 -3.5
q-18 0 -36 7t-38 15t-43 15t-51 7q-29 0 -56.5 -11t-55.5 -22l-22 58q51 32 91.5 78t52.5 102q10 45 -2 88h-99l9 42h81q-4 14 -10 29t-10.5 33.5t-5 41.5t5.5 53q8 39 29.5 72.5t54.5 58t77.5 38.5t100.5 14q49 0 88 -15t63.5 -43t32.5 -68.5t-3 -90.5h-66q14 79 -20 121
t-106 42q-30 0 -60.5 -8t-56.5 -24.5t-45 -41.5t-26 -58q-5 -23 -2 -42.5t9 -38t14 -36.5t14 -37h166z" />
    <glyph glyph-name="currency" unicode="&#xa4;" 
d="M107 152q-17 35 -21 70t5 78q9 45 28 80t52 71l-34 43l63 53l35 -43q39 26 81 37.5t84 11.5t74 -13t61 -36l53 43l41 -53l-52 -43q17 -37 21 -73.5t-6 -82.5q-9 -42 -28.5 -75t-50.5 -68l34 -42l-63 -53l-35 43q-79 -50 -165 -50q-42 0 -74 13.5t-61 36.5l-53 -43l-41 53
zM384 481q-39 1 -75.5 -12.5t-66.5 -38t-51 -58t-28 -72.5q-9 -36 -1.5 -68.5t26.5 -57t48.5 -39t65.5 -14.5q37 0 73.5 14t66.5 38.5t51 58t29 71.5q8 36 1 68.5t-25.5 57t-47.5 39t-66 13.5z" />
    <glyph glyph-name="yen" unicode="&#xa5;" 
d="M356 373l276 347h73l-232 -286h111l-11 -54h-144l-52 -66l-9 -42h182l-12 -54h-182l-46 -218h-64l46 218h-182l12 54h182l9 42l-24 66h-144l11 54h111l-110 286h76z" />
    <glyph glyph-name="brokenbar" unicode="&#xa6;" horiz-adv-x="401" 
d="M300 738v-382h-50v382h50zM300 191v-381h-50v381h50z" />
    <glyph glyph-name="section" unicode="&#xa7;" 
d="M285 447q-44 -17 -73 -42t-37 -62q-4 -19 0.5 -35t13.5 -29.5t22 -25t25 -21.5l154 -115q18 9 36.5 20t34 25t26.5 30.5t16 37.5q4 20 -1 36.5t-15.5 30t-24.5 24.5t-27 20zM189 184q-42 30 -61.5 65t-8.5 86t50 88t88 56q-18 26 -27.5 52t-1.5 63q6 29 23.5 55.5
t44.5 46.5t63.5 31.5t80.5 11.5q84 0 118.5 -48t16.5 -131h-54q12 63 -10.5 94t-86.5 31q-48 0 -85 -23.5t-48 -73.5q-7 -34 12.5 -61t52.5 -51.5t72 -48t71.5 -50.5t50.5 -60.5t9 -76.5q-6 -29 -20 -51.5t-33 -41t-42 -33.5t-48 -30q4 -5 11.5 -14.5t14.5 -23t10 -32
t-2 -40.5q-8 -38 -28 -67t-48 -48.5t-62 -29.5t-70 -10q-85 0 -123.5 49t-24.5 133h61q-13 -62 11.5 -95t87.5 -33q21 0 42.5 6t39.5 18t31 29.5t18 40.5q5 24 -1.5 43.5t-19.5 36t-29.5 30t-31.5 25.5z" />
    <glyph glyph-name="dieresis" unicode="&#xa8;" horiz-adv-x="333" 
d="M206 686h65l-22 -102h-65zM365 686h65l-22 -102h-65z" />
    <glyph glyph-name="copyright" unicode="&#xa9;" horiz-adv-x="800" 
d="M397 -19q-79 0 -142 30t-103.5 81.5t-55.5 120.5t2 148q16 78 60.5 147t107 120t138 81t154.5 30q78 0 140.5 -30t103 -81t55.5 -120t-1 -147q-17 -79 -61.5 -148t-106.5 -120.5t-137.5 -81.5t-153.5 -30zM408 31q69 0 132.5 25.5t115.5 70t88.5 104.5t51.5 130
q15 69 3.5 129t-44.5 104t-86 69.5t-122 25.5t-133 -25.5t-116 -69.5t-88.5 -104t-51.5 -129q-15 -70 -4 -130t44.5 -104.5t87 -70t122.5 -25.5zM655 292q-11 -34 -32 -61.5t-49 -46.5t-60 -29t-65 -10q-48 0 -83 17t-56.5 46t-28 69t3.5 87t32.5 86.5t55.5 68.5t75 45.5
t90 16.5q34 0 62 -9.5t48 -28t30 -45t8 -60.5h-54q1 45 -28 72t-74 27q-38 0 -68.5 -13.5t-54.5 -37t-40 -55t-23 -66.5q-8 -34 -4.5 -66t17.5 -56.5t39 -39t62 -14.5q22 0 44 7t41.5 20.5t34.5 32.5t23 43h54z" />
    <glyph glyph-name="ordfeminine" unicode="&#xaa;" horiz-adv-x="334" 
d="M369 583q-27 -10 -53 -13t-52 -5q-45 -3 -74.5 -18.5t-36.5 -47.5q-6 -29 14.5 -43.5t48.5 -14.5q23 0 46.5 5.5t43 17t34 29t19.5 41.5zM307 601q11 1 27 3t27 7q11 4 15 14t6 18q6 28 -9.5 47t-60.5 19q-41 0 -70.5 -16t-43.5 -57h-40q17 55 61 79t100 24q25 0 46.5 -5
t35.5 -16.5t19.5 -30t-0.5 -45.5l-35 -169q-5 -21 2 -26.5t33 2.5l-6 -28q-9 -3 -19 -5t-30 0q-19 3 -21.5 16.5t-0.5 30.5q-60 -52 -136 -52q-22 0 -41 5.5t-32 16.5t-19 27.5t-1 39.5q18 79 137 94z" />
    <glyph glyph-name="guillemotleft" unicode="&#xab;" 
d="M359 291l170 113l-14 -63l-121 -82l87 -80l-13 -62l-123 111zM175 291l170 113l-14 -63l-121 -82l87 -80l-13 -62l-123 111z" />
    <glyph glyph-name="logicalnot" unicode="&#xac;" horiz-adv-x="660" 
d="M584 318h-436l12 60h500l-56 -266h-64z" />
    <glyph glyph-name="uni00AD" unicode="&#xad;" horiz-adv-x="333" 
d="M355 291l-13 -62h-253l13 62h253z" />
    <glyph glyph-name="registered" unicode="&#xae;" horiz-adv-x="800" 
d="M397 -19q-79 0 -142 30t-103.5 81.5t-55.5 120.5t2 148q16 78 60.5 147t107 120t138 81t154.5 30q78 0 140.5 -30t103 -81t55.5 -120t-1 -147q-17 -79 -61.5 -148t-106.5 -120.5t-137.5 -81.5t-153.5 -30zM408 31q69 0 132.5 25.5t115.5 70t88.5 104.5t51.5 130
q15 69 3.5 129t-44.5 104t-86 69.5t-122 25.5t-133 -25.5t-116 -69.5t-88.5 -104t-51.5 -129q-15 -70 -4 -130t44.5 -104.5t87 -70t122.5 -25.5zM622 149h-62l-80 195h-95l-41 -195h-52l90 423h185q42 0 69 -7.5t41.5 -22t18 -35.5t-2.5 -47q-14 -62 -57.5 -88.5
t-100.5 -27.5zM473 385h48t49.5 6t41.5 22t25 48q5 25 -1 39.5t-19.5 22t-32 10t-37.5 2.5h-121l-32 -150h79z" />
    <glyph glyph-name="macron" unicode="&#xaf;" horiz-adv-x="333" 
d="M163 657h296l-10 -45h-296z" />
    <glyph glyph-name="degree" unicode="&#xb0;" horiz-adv-x="400" 
d="M468 555q-7 -31 -24.5 -58.5t-42.5 -47.5t-54.5 -32t-60.5 -12t-56 12t-41 32t-22 47.5t1 58.5q6 31 23.5 58t42.5 47.5t55 32.5t61 12t55.5 -12t40.5 -32.5t22 -47.5t0 -58zM428 555q5 22 0.5 42t-16.5 35t-30.5 24t-41.5 9t-44.5 -9t-39.5 -24t-31 -35t-17 -42
q-5 -23 -0.5 -43t16.5 -35t30 -23.5t41 -8.5q22 0 44 8.5t40 23.5t31 35t18 43z" />
    <glyph glyph-name="plusminus" unicode="&#xb1;" horiz-adv-x="660" 
d="M406 500h60l-36 -170h220l-13 -60h-220l-36 -170h-60l36 170h-220l13 60h220zM93 60h500l-13 -60h-500z" />
    <glyph glyph-name="twosuperior" unicode="&#xb2;" horiz-adv-x="333" 
d="M156 600q13 63 61.5 101t116.5 38q69 0 98 -34t18 -83q-9 -42 -36.5 -70t-63 -48t-73 -36t-66.5 -34q-26 -16 -48 -35.5t-30 -50.5h255l-7 -32h-299q7 30 18.5 55t38.5 48q29 25 59 43t58 32t52.5 26t44.5 26t33.5 31.5t18.5 42.5q8 42 -16.5 64.5t-66.5 22.5
q-23 0 -43 -8.5t-36.5 -23.5t-27.5 -34.5t-15 -40.5h-44z" />
    <glyph glyph-name="threesuperior" unicode="&#xb3;" horiz-adv-x="333" 
d="M250 551q58 0 98 16t50 65q8 39 -17 57t-64 18q-45 0 -77.5 -25.5t-40.5 -65.5h-41q6 29 21 52t43 43q26 18 53.5 23t56.5 5q27 0 49.5 -6.5t37.5 -19.5t21.5 -32.5t0.5 -45.5q-14 -68 -85 -95q23 -7 36.5 -18.5t19.5 -26t6 -29.5t-3 -30q-11 -53 -57.5 -89.5
t-118.5 -38.5q-40 0 -67.5 6.5t-44 21.5t-22 40t-1.5 62h42q-11 -48 15.5 -73t77.5 -25q25 0 48 8t41 21t29.5 30.5t14.5 35.5q5 26 -3 43t-25.5 27t-43.5 13.5t-56 1.5z" />
    <glyph glyph-name="acute" unicode="&#xb4;" horiz-adv-x="333" 
d="M231 574l141 139h77l-167 -139h-51z" />
    <glyph glyph-name="mu" unicode="&#xb5;" 
d="M533 518h60l-110 -518h-60l15 72q-15 -14 -33 -29t-40.5 -27.5t-50 -21t-61.5 -8.5q-42 0 -71 10t-46 22l-47 -222h-60l153 722h60l-72 -340q-14 -67 9.5 -102.5t94.5 -35.5q37 0 69.5 14.5t58 40.5t44 62t27.5 79z" />
    <glyph glyph-name="paragraph" unicode="&#xb6;" horiz-adv-x="650" 
d="M329 336q-38 0 -69.5 15t-52.5 41t-29 60.5t0 73.5q20 94 89 144t175 50h217l-184 -866h-60l170 799h-128l-170 -799h-60z" />
    <glyph glyph-name="periodcentered" unicode="&#xb7;" horiz-adv-x="278" 
d="M224 398q20 0 31 -14t6 -34q-4 -20 -21 -34.5t-37 -14.5t-31.5 14.5t-7.5 34.5q5 20 23 34t37 14z" />
    <glyph glyph-name="cedilla" unicode="&#xb8;" horiz-adv-x="333" 
d="M35 -158q15 -5 29.5 -10t31.5 -5q11 0 23 2.5t23 8t19 14.5t11 22q5 20 -8.5 29.5t-32.5 9.5q-11 0 -22.5 -2.5t-23.5 -5.5l-12 13l77 82h39l-60 -59q10 2 19.5 4t18.5 2q33 0 50 -16.5t16 -35.5q-1 -27 -13 -46.5t-30.5 -31.5t-41.5 -18t-47 -6q-23 0 -45 5.5t-42 13.5z
" />
    <glyph glyph-name="onesuperior" unicode="&#xb9;" horiz-adv-x="333" 
d="M339 630h-118l5 26q27 1 48.5 4t39.5 11.5t32 24.5t25 43h33l-90 -423h-42z" />
    <glyph glyph-name="ordmasculine" unicode="&#xba;" horiz-adv-x="334" 
d="M254 411q-32 1 -58 11.5t-43 31t-23 50.5t3 71q7 34 23.5 64t40.5 52t56 35t71 13t66 -13t41.5 -35t17.5 -52t-4 -64q-8 -37 -25.5 -67t-42.5 -51.5t-56.5 -33.5t-66.5 -12zM172 575q-12 -58 10 -96t79 -38q31 0 55.5 11.5t42.5 30.5t30 43t17 49q6 27 4.5 51.5t-11.5 43
t-30 29t-51 10.5t-55.5 -11.5t-43 -30.5t-30.5 -43t-17 -49z" />
    <glyph glyph-name="guillemotright" unicode="&#xbb;" 
d="M492 230l-170 -113l13 63l122 82l-87 80l13 62l122 -111zM308 230l-170 -113l13 63l122 82l-87 80l13 62l122 -111z" />
    <glyph glyph-name="onequarter" unicode="&#xbc;" horiz-adv-x="834" 
d="M711 104h-209l7 33l273 282h38l-60 -282h63l-7 -33h-63l-22 -104h-42zM550 137h168l48 224zM165 -14l597 719h51l-597 -719h-51zM292 630h-118l5 26q27 1 48.5 4t39.5 11.5t32 24.5t25 43h33l-90 -423h-42z" />
    <glyph glyph-name="onehalf" unicode="&#xbd;" horiz-adv-x="834" 
d="M125 -14l597 719h51l-597 -719h-51zM292 630h-118l5 26q27 1 48.5 4t39.5 11.5t32 24.5t25 43h33l-90 -423h-42zM564 284q14 63 62.5 101t116.5 38q69 0 98 -34t18 -83q-9 -42 -36.5 -70t-63 -48t-73 -36t-66.5 -34q-26 -16 -48 -35.5t-30 -50.5h255l-7 -32h-299
q7 30 18.5 55t38.5 48q44 38 88 60t81 41t63 40.5t34 59.5q8 42 -16.5 64.5t-66.5 22.5q-23 0 -43.5 -8.5t-37 -23.5t-27.5 -34.5t-15 -40.5h-44z" />
    <glyph glyph-name="threequarters" unicode="&#xbe;" horiz-adv-x="834" 
d="M550 137h168l48 224zM711 104h-209l7 33l273 282h38l-60 -282h63l-7 -33h-63l-22 -104h-42zM279 551q58 0 98 16t50 65q8 39 -17 57t-64 18q-45 0 -77.5 -25.5t-40.5 -65.5h-41q6 29 21 52t43 43q26 18 53.5 23t56.5 5q27 0 49.5 -6.5t37.5 -19.5t21.5 -32.5t0.5 -45.5
q-14 -68 -85 -95q23 -7 36.5 -18.5t19.5 -26t6 -29.5t-3 -30q-11 -53 -57.5 -89.5t-118.5 -38.5q-40 0 -67.5 6.5t-44 21.5t-22 40t-1.5 62h42q-11 -48 15.5 -73t77.5 -25q25 0 48 8t41 21t29.5 30.5t14.5 35.5q5 26 -3 43t-25.5 27t-43.5 13.5t-56 1.5zM205 -14l597 719h51
l-597 -719h-51z" />
    <glyph glyph-name="questiondown" unicode="&#xbf;" horiz-adv-x="500" 
d="M465 16q-7 -50 -30.5 -91t-59 -70.5t-80 -45.5t-93.5 -16q-103 0 -149.5 51.5t-28.5 136.5q9 43 35.5 75t60 59t69.5 54t65 62q23 26 31.5 57.5t14.5 61.5h58q-5 -27 -11.5 -52t-17 -48t-26 -44t-39.5 -42q-27 -23 -55.5 -45t-53.5 -44.5t-43.5 -46.5t-24.5 -52
q-11 -54 21 -91.5t107 -37.5q37 0 68.5 13t56.5 36t41.5 53.5t22.5 66.5h61zM403 532l-19 -88h-73l19 88h73z" />
    <glyph glyph-name="Agrave" unicode="&#xc0;" horiz-adv-x="667" 
d="M15 0l436 720h77l123 -720h-70l-35 226h-328l-133 -226h-70zM253 284h282l-60 378zM406 915h78l82 -139h-51z" />
    <glyph glyph-name="Aacute" unicode="&#xc1;" horiz-adv-x="667" 
d="M15 0l436 720h77l123 -720h-70l-35 226h-328l-133 -226h-70zM253 284h282l-60 378zM441 776l140 139h77l-166 -139h-51z" />
    <glyph glyph-name="Acircumflex" unicode="&#xc2;" horiz-adv-x="667" 
d="M15 0l436 720h77l123 -720h-70l-35 226h-328l-133 -226h-70zM253 284h282l-60 378zM421 776h-65l143 139h67l84 -139h-65l-60 102z" />
    <glyph glyph-name="Atilde" unicode="&#xc3;" horiz-adv-x="667" 
d="M15 0l436 720h77l123 -720h-70l-35 226h-328l-133 -226h-70zM253 284h282l-60 378zM350 788q6 18 14.5 32.5t18.5 26.5q20 21 45.5 31.5t50.5 4.5q13 -3 27.5 -10t29.5 -14.5t29.5 -13t27.5 -5.5q22 0 34 16t20 34h38q-3 -10 -7 -19.5t-9 -18.5q-16 -24 -37 -42t-50 -18
q-21 0 -38 7t-33 15.5t-32 15.5t-33 7q-23 0 -36 -15t-24 -34h-36z" />
    <glyph glyph-name="Adieresis" unicode="&#xc4;" horiz-adv-x="667" 
d="M15 0l436 720h77l123 -720h-70l-35 226h-328l-133 -226h-70zM253 284h282l-60 378zM416 888h65l-22 -102h-65zM575 888h65l-22 -102h-65z" />
    <glyph glyph-name="Aring" unicode="&#xc5;" horiz-adv-x="667" 
d="M15 0l436 720h77l123 -720h-70l-35 226h-328l-133 -226h-70zM253 284h282l-60 378zM520 780q-41 0 -64.5 29t-14.5 70q4 20 16 38t28.5 32t36.5 22t40 8t36.5 -8t27 -22t14.5 -32t0 -38q-5 -20 -16.5 -38t-28 -31.5t-36 -21.5t-39.5 -8zM527 813q26 0 50 20t30 46
q5 26 -10 46.5t-42 20.5q-14 0 -27 -5.5t-24.5 -14.5t-19 -21.5t-10.5 -25.5q-6 -27 10.5 -46.5t42.5 -19.5z" />
    <glyph glyph-name="AE" unicode="&#xc6;" horiz-adv-x="1000" 
d="M5 0l466 720h630l-12 -58h-408l-56 -260h371l-12 -58h-371l-61 -286h420l-12 -58h-488l48 226h-303l-144 -226h-68zM257 284h275l81 378h-114z" />
    <glyph glyph-name="Ccedilla" unicode="&#xc7;" horiz-adv-x="722" 
d="M701 511q-2 92 -50.5 131t-140.5 39q-65 0 -118 -26t-92.5 -70t-66.5 -101.5t-40 -121.5q-13 -60 -13 -118t19.5 -103.5t62.5 -73.5t117 -28q46 0 87 15t75.5 41.5t61.5 62.5t46 79h71q-23 -51 -54.5 -96.5t-75 -80.5t-99 -56t-125.5 -22l-42 -41q10 2 19.5 4t18.5 2
q33 0 50 -16.5t16 -35.5q-1 -27 -13 -46.5t-30.5 -31.5t-41.5 -18t-47 -6q-23 0 -45 5.5t-42 13.5l21 30q15 -5 29.5 -10t31.5 -5q11 0 23 2.5t23 8t19 14.5t11 22q5 20 -8.5 29.5t-32.5 9.5q-11 0 -22.5 -2.5t-23.5 -5.5l-12 13l60 64q-75 5 -122 37t-70.5 83.5t-25 117.5
t14.5 140q22 103 62.5 175t95 117.5t120 66t137.5 20.5q111 0 174 -58t57 -170h-70z" />
    <glyph glyph-name="Egrave" unicode="&#xc8;" horiz-adv-x="611" 
d="M81 0l153 720h479l-12 -58h-411l-56 -260h371l-12 -58h-371l-61 -286h421l-12 -58h-489zM378 915h78l82 -139h-51z" />
    <glyph glyph-name="Eacute" unicode="&#xc9;" horiz-adv-x="611" 
d="M81 0l153 720h479l-12 -58h-411l-56 -260h371l-12 -58h-371l-61 -286h421l-12 -58h-489zM413 776l140 139h77l-166 -139h-51z" />
    <glyph glyph-name="Ecircumflex" unicode="&#xca;" horiz-adv-x="611" 
d="M81 0l153 720h479l-12 -58h-411l-56 -260h371l-12 -58h-371l-61 -286h421l-12 -58h-489zM393 776h-65l143 139h67l84 -139h-65l-60 102z" />
    <glyph glyph-name="Edieresis" unicode="&#xcb;" horiz-adv-x="611" 
d="M81 0l153 720h479l-12 -58h-411l-56 -260h371l-12 -58h-371l-61 -286h421l-12 -58h-489zM388 888h65l-22 -102h-65zM547 888h65l-22 -102h-65z" />
    <glyph glyph-name="Igrave" unicode="&#xcc;" horiz-adv-x="278" 
d="M105 0l153 720h68l-153 -720h-68zM212 915h78l82 -139h-51z" />
    <glyph glyph-name="Iacute" unicode="&#xcd;" horiz-adv-x="278" 
d="M105 0l153 720h68l-153 -720h-68zM226 776l140 139h77l-166 -139h-51z" />
    <glyph glyph-name="Icircumflex" unicode="&#xce;" horiz-adv-x="278" 
d="M105 0l153 720h68l-153 -720h-68zM206 776h-65l143 139h67l84 -139h-65l-60 102z" />
    <glyph glyph-name="Idieresis" unicode="&#xcf;" horiz-adv-x="278" 
d="M105 0l153 720h68l-153 -720h-68zM201 888h65l-22 -102h-65zM360 888h65l-22 -102h-65z" />
    <glyph glyph-name="Eth" unicode="&#xd0;" horiz-adv-x="722" 
d="M236 411h161l-12 -58h-161l-63 -295h163q46 0 88 5.5t88 27.5q40 18 70 49t51.5 67.5t35 76.5t21.5 77q8 39 11.5 79.5t-2.5 77t-24 67t-51 50.5q-29 17 -71.5 22t-87.5 5h-163zM234 720h246q30 0 58.5 -1.5t55.5 -7t51.5 -16.5t45.5 -29q30 -26 45 -63.5t20 -79t1 -84
t-11 -78.5q-8 -36 -20 -73t-29.5 -72.5t-41.5 -68t-54 -59.5q-31 -28 -64 -45t-68 -26.5t-70.5 -13t-71.5 -3.5h-246l75 353h-71l12 58h71z" />
    <glyph glyph-name="Ntilde" unicode="&#xd1;" horiz-adv-x="722" 
d="M282 628h-2l-133 -628h-68l153 720h77l282 -629h2l134 629h68l-153 -720h-79zM378 788q6 18 14.5 32.5t18.5 26.5q20 21 45.5 31.5t50.5 4.5q13 -3 27.5 -10t29.5 -14.5t29.5 -13t27.5 -5.5q22 0 34 16t20 34h38q-3 -10 -7 -19.5t-9 -18.5q-16 -24 -37 -42t-50 -18
q-21 0 -38 7t-33 15.5t-32 15.5t-33 7q-23 0 -36 -15t-24 -34h-36z" />
    <glyph glyph-name="Ograve" unicode="&#xd2;" horiz-adv-x="778" 
d="M129 359q16 79 52.5 148t90 120.5t121.5 81.5t149 30q84 0 141.5 -29.5t89 -81t38 -121t-10.5 -148.5q-17 -78 -52.5 -146.5t-88.5 -120t-122.5 -81.5t-152.5 -30t-139.5 30t-87.5 81.5t-38 120t10 146.5zM397 39q70 0 126 26.5t98 70.5t70 102t41 121q16 75 10 134.5
t-32 101.5t-71 64t-107 22q-69 0 -125 -27t-98 -71.5t-70.5 -102.5t-41.5 -121q-14 -64 -10.5 -122t26.5 -102t68 -70t116 -26zM462 915h78l82 -139h-51z" />
    <glyph glyph-name="Oacute" unicode="&#xd3;" horiz-adv-x="778" 
d="M129 359q16 79 52.5 148t90 120.5t121.5 81.5t149 30q84 0 141.5 -29.5t89 -81t38 -121t-10.5 -148.5q-17 -78 -52.5 -146.5t-88.5 -120t-122.5 -81.5t-152.5 -30t-139.5 30t-87.5 81.5t-38 120t10 146.5zM397 39q70 0 126 26.5t98 70.5t70 102t41 121q16 75 10 134.5
t-32 101.5t-71 64t-107 22q-69 0 -125 -27t-98 -71.5t-70.5 -102.5t-41.5 -121q-14 -64 -10.5 -122t26.5 -102t68 -70t116 -26zM497 776l140 139h77l-166 -139h-51z" />
    <glyph glyph-name="Ocircumflex" unicode="&#xd4;" horiz-adv-x="778" 
d="M129 359q16 79 52.5 148t90 120.5t121.5 81.5t149 30q84 0 141.5 -29.5t89 -81t38 -121t-10.5 -148.5q-17 -78 -52.5 -146.5t-88.5 -120t-122.5 -81.5t-152.5 -30t-139.5 30t-87.5 81.5t-38 120t10 146.5zM397 39q70 0 126 26.5t98 70.5t70 102t41 121q16 75 10 134.5
t-32 101.5t-71 64t-107 22q-69 0 -125 -27t-98 -71.5t-70.5 -102.5t-41.5 -121q-14 -64 -10.5 -122t26.5 -102t68 -70t116 -26zM477 776h-65l143 139h67l84 -139h-65l-60 102z" />
    <glyph glyph-name="Otilde" unicode="&#xd5;" horiz-adv-x="778" 
d="M129 359q16 79 52.5 148t90 120.5t121.5 81.5t149 30q84 0 141.5 -29.5t89 -81t38 -121t-10.5 -148.5q-17 -78 -52.5 -146.5t-88.5 -120t-122.5 -81.5t-152.5 -30t-139.5 30t-87.5 81.5t-38 120t10 146.5zM397 39q70 0 126 26.5t98 70.5t70 102t41 121q16 75 10 134.5
t-32 101.5t-71 64t-107 22q-69 0 -125 -27t-98 -71.5t-70.5 -102.5t-41.5 -121q-14 -64 -10.5 -122t26.5 -102t68 -70t116 -26zM406 788q6 18 14.5 32.5t18.5 26.5q20 21 45.5 31.5t50.5 4.5q13 -3 27.5 -10t29.5 -14.5t29.5 -13t27.5 -5.5q22 0 34 16t20 34h38
q-3 -10 -7 -19.5t-9 -18.5q-16 -24 -37 -42t-50 -18q-21 0 -38 7t-33 15.5t-32 15.5t-33 7q-23 0 -36 -15t-24 -34h-36z" />
    <glyph glyph-name="Odieresis" unicode="&#xd6;" horiz-adv-x="778" 
d="M129 359q16 79 52.5 148t90 120.5t121.5 81.5t149 30q84 0 141.5 -29.5t89 -81t38 -121t-10.5 -148.5q-17 -78 -52.5 -146.5t-88.5 -120t-122.5 -81.5t-152.5 -30t-139.5 30t-87.5 81.5t-38 120t10 146.5zM397 39q70 0 126 26.5t98 70.5t70 102t41 121q16 75 10 134.5
t-32 101.5t-71 64t-107 22q-69 0 -125 -27t-98 -71.5t-70.5 -102.5t-41.5 -121q-14 -64 -10.5 -122t26.5 -102t68 -70t116 -26zM472 888h65l-22 -102h-65zM631 888h65l-22 -102h-65z" />
    <glyph glyph-name="multiply" unicode="&#xd7;" horiz-adv-x="660" 
d="M121 6l-29 36l256 211l-166 211l44 36l167 -210l254 210l30 -36l-255 -211l165 -211l-45 -36l-165 210z" />
    <glyph glyph-name="Oslash" unicode="&#xd8;" horiz-adv-x="778" 
d="M700 604q-22 32 -62 54.5t-109 22.5t-125 -27t-98 -72t-70.5 -103t-41.5 -120q-13 -60 -10.5 -114t21.5 -98zM230 107q25 -32 65.5 -50t98.5 -18q70 0 126 26t98 70.5t69.5 102.5t41.5 121q11 53 11 105t-17 96zM856 747l31 -35l-108 -100q22 -32 30 -97.5t-12 -155.5
q-17 -78 -52.5 -146.5t-88.5 -120t-122.5 -81.5t-152.5 -30q-69 0 -119 20.5t-83 58.5l-106 -97l-32 34l111 101q-30 51 -36 117.5t10 143.5q17 80 54.5 149.5t90.5 120.5t121 80.5t147 29.5q68 0 122.5 -20.5t91.5 -66.5z" />
    <glyph glyph-name="Ugrave" unicode="&#xd9;" horiz-adv-x="722" 
d="M235 720h68l-91 -429q-29 -134 8.5 -193t148.5 -59q58 0 101.5 15.5t75.5 47t53 78.5t35 111l91 429h68l-95 -449q-30 -141 -115.5 -215.5t-225.5 -74.5q-141 0 -194 76t-23 214zM434 915h78l82 -139h-51z" />
    <glyph glyph-name="Uacute" unicode="&#xda;" horiz-adv-x="722" 
d="M235 720h68l-91 -429q-29 -134 8.5 -193t148.5 -59q58 0 101.5 15.5t75.5 47t53 78.5t35 111l91 429h68l-95 -449q-30 -141 -115.5 -215.5t-225.5 -74.5q-141 0 -194 76t-23 214zM469 776l140 139h77l-166 -139h-51z" />
    <glyph glyph-name="Ucircumflex" unicode="&#xdb;" horiz-adv-x="722" 
d="M235 720h68l-91 -429q-29 -134 8.5 -193t148.5 -59q58 0 101.5 15.5t75.5 47t53 78.5t35 111l91 429h68l-95 -449q-30 -141 -115.5 -215.5t-225.5 -74.5q-141 0 -194 76t-23 214zM449 776h-65l143 139h67l84 -139h-65l-60 102z" />
    <glyph glyph-name="Udieresis" unicode="&#xdc;" horiz-adv-x="722" 
d="M235 720h68l-91 -429q-29 -134 8.5 -193t148.5 -59q58 0 101.5 15.5t75.5 47t53 78.5t35 111l91 429h68l-95 -449q-30 -141 -115.5 -215.5t-225.5 -74.5q-141 0 -194 76t-23 214zM444 888h65l-22 -102h-65zM603 888h65l-22 -102h-65z" />
    <glyph glyph-name="Yacute" unicode="&#xdd;" horiz-adv-x="611" 
d="M381 373l291 347h79l-347 -406l-67 -314h-68l66 309l-170 411h78zM413 776l140 139h77l-166 -139h-51z" />
    <glyph glyph-name="Thorn" unicode="&#xde;" horiz-adv-x="611" 
d="M78 0l153 720h68l-32 -150h195q70 0 112 -16t62.5 -44t23.5 -64.5t-6 -76.5q-13 -60 -45.5 -99t-76.5 -61.5t-95 -31.5t-101 -9h-154l-36 -168h-68zM350 226q48 0 87.5 6t69.5 22.5t50.5 45t29.5 74.5q15 68 -22 103t-134 35h-176l-61 -286h156z" />
    <glyph glyph-name="germandbls" unicode="&#xdf;" horiz-adv-x="500" 
d="M301 425q34 1 64 7.5t54 21t41 37.5t25 58q6 28 4 52t-13.5 41.5t-33.5 27.5t-55 10q-44 0 -72 -10.5t-45.5 -30t-27.5 -46.5t-17 -60l-113 -533h-60l116 544q20 93 76 141.5t151 48.5q43 0 76 -13t53 -37t26.5 -58.5t-2.5 -77.5q-10 -48 -39.5 -82.5t-74.5 -62.5
q26 -10 43 -28.5t25.5 -42.5t9.5 -52t-5 -56q-25 -117 -93.5 -177.5t-168.5 -60.5q-10 0 -20 1.5t-16 3.5l11 53q36 -7 70.5 0t64 26.5t51.5 51.5t31 77q20 95 -15 135.5t-131 40.5z" />
    <glyph glyph-name="agrave" unicode="&#xe0;" 
d="M469 272q-42 -16 -81.5 -21t-79.5 -8q-70 -5 -114.5 -31t-55.5 -79q-5 -24 1 -41.5t19.5 -29t32.5 -17t40 -5.5q36 0 71.5 9t66 27.5t52.5 47t31 67.5zM374 302q17 2 41.5 6t41.5 11t23.5 23.5t9.5 30.5q5 23 2 42t-15.5 33t-35 22t-57.5 8q-62 0 -108 -25t-68 -92h-61
q13 46 37.5 78.5t57.5 53t72.5 30t81.5 9.5q39 0 71.5 -8.5t54 -27t29.5 -49.5t-1 -76l-60 -282q-8 -35 2.5 -44.5t51.5 4.5l-10 -47q-7 -2 -21.5 -6t-27.5 -4t-26 3q-29 5 -33 27.5t1 49.5q-47 -42 -100.5 -64t-110.5 -22q-34 0 -63.5 9t-49.5 28t-28 46.5t0 65.5
q27 132 214 156zM309 713h78l81 -139h-51z" />
    <glyph glyph-name="aacute" unicode="&#xe1;" 
d="M469 272q-42 -16 -81.5 -21t-79.5 -8q-70 -5 -114.5 -31t-55.5 -79q-5 -24 1 -41.5t19.5 -29t32.5 -17t40 -5.5q36 0 71.5 9t66 27.5t52.5 47t31 67.5zM374 302q17 2 41.5 6t41.5 11t23.5 23.5t9.5 30.5q5 23 2 42t-15.5 33t-35 22t-57.5 8q-62 0 -108 -25t-68 -92h-61
q13 46 37.5 78.5t57.5 53t72.5 30t81.5 9.5q39 0 71.5 -8.5t54 -27t29.5 -49.5t-1 -76l-60 -282q-8 -35 2.5 -44.5t51.5 4.5l-10 -47q-7 -2 -21.5 -6t-27.5 -4t-26 3q-29 5 -33 27.5t1 49.5q-47 -42 -100.5 -64t-110.5 -22q-34 0 -63.5 9t-49.5 28t-28 46.5t0 65.5
q27 132 214 156zM343 574l141 139h77l-167 -139h-51z" />
    <glyph glyph-name="acircumflex" unicode="&#xe2;" 
d="M469 272q-42 -16 -81.5 -21t-79.5 -8q-70 -5 -114.5 -31t-55.5 -79q-5 -24 1 -41.5t19.5 -29t32.5 -17t40 -5.5q36 0 71.5 9t66 27.5t52.5 47t31 67.5zM374 302q17 2 41.5 6t41.5 11t23.5 23.5t9.5 30.5q5 23 2 42t-15.5 33t-35 22t-57.5 8q-62 0 -108 -25t-68 -92h-61
q13 46 37.5 78.5t57.5 53t72.5 30t81.5 9.5q39 0 71.5 -8.5t54 -27t29.5 -49.5t-1 -76l-60 -282q-8 -35 2.5 -44.5t51.5 4.5l-10 -47q-7 -2 -21.5 -6t-27.5 -4t-26 3q-29 5 -33 27.5t1 49.5q-47 -42 -100.5 -64t-110.5 -22q-34 0 -63.5 9t-49.5 28t-28 46.5t0 65.5
q27 132 214 156zM323 574h-65l144 139h67l83 -139h-65l-60 102z" />
    <glyph glyph-name="atilde" unicode="&#xe3;" 
d="M469 272q-42 -16 -81.5 -21t-79.5 -8q-70 -5 -114.5 -31t-55.5 -79q-5 -24 1 -41.5t19.5 -29t32.5 -17t40 -5.5q36 0 71.5 9t66 27.5t52.5 47t31 67.5zM374 302q17 2 41.5 6t41.5 11t23.5 23.5t9.5 30.5q5 23 2 42t-15.5 33t-35 22t-57.5 8q-62 0 -108 -25t-68 -92h-61
q13 46 37.5 78.5t57.5 53t72.5 30t81.5 9.5q39 0 71.5 -8.5t54 -27t29.5 -49.5t-1 -76l-60 -282q-8 -35 2.5 -44.5t51.5 4.5l-10 -47q-7 -2 -21.5 -6t-27.5 -4t-26 3q-29 5 -33 27.5t1 49.5q-47 -42 -100.5 -64t-110.5 -22q-34 0 -63.5 9t-49.5 28t-28 46.5t0 65.5
q27 132 214 156zM253 586q5 18 13.5 32.5t18.5 26.5q20 21 45.5 31.5t50.5 4.5q13 -3 27.5 -10t29.5 -14.5t29.5 -13t27.5 -5.5q22 0 34 16t20 34h38q-3 -10 -7 -19.5t-9 -18.5q-16 -24 -37 -42t-50 -18q-21 0 -38 7t-33 15.5t-32 15.5t-33 7q-23 0 -36 -15t-23 -34h-36z
" />
    <glyph glyph-name="adieresis" unicode="&#xe4;" 
d="M469 272q-42 -16 -81.5 -21t-79.5 -8q-70 -5 -114.5 -31t-55.5 -79q-5 -24 1 -41.5t19.5 -29t32.5 -17t40 -5.5q36 0 71.5 9t66 27.5t52.5 47t31 67.5zM374 302q17 2 41.5 6t41.5 11t23.5 23.5t9.5 30.5q5 23 2 42t-15.5 33t-35 22t-57.5 8q-62 0 -108 -25t-68 -92h-61
q13 46 37.5 78.5t57.5 53t72.5 30t81.5 9.5q39 0 71.5 -8.5t54 -27t29.5 -49.5t-1 -76l-60 -282q-8 -35 2.5 -44.5t51.5 4.5l-10 -47q-7 -2 -21.5 -6t-27.5 -4t-26 3q-29 5 -33 27.5t1 49.5q-47 -42 -100.5 -64t-110.5 -22q-34 0 -63.5 9t-49.5 28t-28 46.5t0 65.5
q27 132 214 156zM318 686h65l-22 -102h-65zM477 686h65l-22 -102h-65z" />
    <glyph glyph-name="aring" unicode="&#xe5;" 
d="M469 272q-42 -16 -81.5 -21t-79.5 -8q-70 -5 -114.5 -31t-55.5 -79q-5 -24 1 -41.5t19.5 -29t32.5 -17t40 -5.5q36 0 71.5 9t66 27.5t52.5 47t31 67.5zM374 302q17 2 41.5 6t41.5 11t23.5 23.5t9.5 30.5q5 23 2 42t-15.5 33t-35 22t-57.5 8q-62 0 -108 -25t-68 -92h-61
q13 46 37.5 78.5t57.5 53t72.5 30t81.5 9.5q39 0 71.5 -8.5t54 -27t29.5 -49.5t-1 -76l-60 -282q-8 -35 2.5 -44.5t51.5 4.5l-10 -47q-7 -2 -21.5 -6t-27.5 -4t-26 3q-29 5 -33 27.5t1 49.5q-47 -42 -100.5 -64t-110.5 -22q-34 0 -63.5 9t-49.5 28t-28 46.5t0 65.5
q27 132 214 156zM402 578q-41 0 -64.5 29t-14.5 70q4 20 16 38t28.5 32t36.5 22t40 8t36.5 -8t27 -22t14.5 -32t0 -38q-5 -20 -16.5 -38t-28 -31.5t-36 -21.5t-39.5 -8zM409 611q26 0 50 20t30 46q5 26 -10 46.5t-42 20.5t-51 -20t-30 -47t10.5 -46.5t42.5 -19.5z" />
    <glyph glyph-name="ae" unicode="&#xe6;" horiz-adv-x="889" 
d="M451 274q-26 -13 -57.5 -18.5t-64.5 -9.5t-65.5 -8.5t-59 -15t-45.5 -30t-26 -51.5q-11 -51 13 -76t74 -25q91 0 146 45.5t70 118.5zM846 295q8 37 5 70.5t-17.5 58.5t-41 39.5t-65.5 14.5q-47 0 -83.5 -18.5t-62 -46t-40.5 -59.5t-21 -59h326zM340 301q39 4 63.5 9
t38 12t20 17.5t9.5 25.5q14 66 -9.5 89.5t-92.5 23.5q-60 0 -104 -25.5t-65 -88.5h-62q12 44 35.5 75.5t55.5 52t70 30.5t79 10q25 0 52 -3.5t50 -13t39.5 -26t21.5 -42.5q44 50 92 67.5t107 17.5q65 0 102.5 -22.5t54.5 -61.5t16 -91t-14 -112h-390q-9 -42 -7.5 -79.5
t16.5 -65t44.5 -44t75.5 -16.5q60 0 104.5 32t71.5 88h63q-38 -84 -103 -129t-153 -45q-68 0 -110.5 27.5t-65.5 86.5q-18 -20 -40 -40t-51 -36.5t-66 -27t-85 -10.5q-35 0 -63.5 8.5t-47.5 26.5t-26 45.5t1 65.5q14 68 67.5 110.5t147.5 52.5z" />
    <glyph glyph-name="ccedilla" unicode="&#xe7;" 
d="M514 355q-3 58 -35 90.5t-92 32.5q-46 0 -83 -19t-65 -50.5t-46 -71t-27 -79.5q-9 -41 -7.5 -80t16 -70t43.5 -49.5t76 -18.5q67 0 115.5 37t72.5 102h64q-17 -42 -41.5 -77t-57 -60.5t-72.5 -40t-88 -15.5l-46 -45q10 2 19.5 4t18.5 2q33 0 50 -16.5t16 -35.5
q-1 -27 -13 -46.5t-30.5 -31.5t-41.5 -18t-47 -6q-23 0 -45 5.5t-42 13.5l21 30q15 -5 29.5 -10t31.5 -5q11 0 23 2.5t23 8t19 14.5t11 22q5 20 -8.5 29.5t-32.5 9.5q-11 0 -22.5 -2.5t-23.5 -5.5l-12 13l67 71q-53 5 -87.5 27.5t-52 58.5t-20 82.5t9.5 100.5
q11 54 37 103.5t64 87.5t87.5 60.5t107.5 22.5q90 0 136.5 -43t40.5 -134h-61z" />
    <glyph glyph-name="egrave" unicode="&#xe8;" 
d="M510 295q8 38 4.5 71.5t-18.5 58t-43 39t-68 14.5t-73.5 -15t-60.5 -40t-47 -58t-32 -70h338zM161 245q-9 -42 -6 -79.5t19 -65t45.5 -44t72.5 -16.5q59 0 107.5 31t74.5 88h67q-19 -37 -43.5 -68.5t-56.5 -55t-72 -36.5t-89 -13q-62 0 -102.5 21t-62 57.5t-24.5 86
t9 106.5t39 107t65.5 87.5t87 59t104.5 21.5q107 0 152.5 -73.5t14.5 -213.5h-402zM309 713h78l81 -139h-51z" />
    <glyph glyph-name="eacute" unicode="&#xe9;" 
d="M510 295q8 38 4.5 71.5t-18.5 58t-43 39t-68 14.5t-73.5 -15t-60.5 -40t-47 -58t-32 -70h338zM161 245q-9 -42 -6 -79.5t19 -65t45.5 -44t72.5 -16.5q59 0 107.5 31t74.5 88h67q-19 -37 -43.5 -68.5t-56.5 -55t-72 -36.5t-89 -13q-62 0 -102.5 21t-62 57.5t-24.5 86
t9 106.5t39 107t65.5 87.5t87 59t104.5 21.5q107 0 152.5 -73.5t14.5 -213.5h-402zM343 574l141 139h77l-167 -139h-51z" />
    <glyph glyph-name="ecircumflex" unicode="&#xea;" 
d="M510 295q8 38 4.5 71.5t-18.5 58t-43 39t-68 14.5t-73.5 -15t-60.5 -40t-47 -58t-32 -70h338zM161 245q-9 -42 -6 -79.5t19 -65t45.5 -44t72.5 -16.5q59 0 107.5 31t74.5 88h67q-19 -37 -43.5 -68.5t-56.5 -55t-72 -36.5t-89 -13q-62 0 -102.5 21t-62 57.5t-24.5 86
t9 106.5t39 107t65.5 87.5t87 59t104.5 21.5q107 0 152.5 -73.5t14.5 -213.5h-402zM323 574h-65l144 139h67l83 -139h-65l-60 102z" />
    <glyph glyph-name="edieresis" unicode="&#xeb;" 
d="M510 295q8 38 4.5 71.5t-18.5 58t-43 39t-68 14.5t-73.5 -15t-60.5 -40t-47 -58t-32 -70h338zM161 245q-9 -42 -6 -79.5t19 -65t45.5 -44t72.5 -16.5q59 0 107.5 31t74.5 88h67q-19 -37 -43.5 -68.5t-56.5 -55t-72 -36.5t-89 -13q-62 0 -102.5 21t-62 57.5t-24.5 86
t9 106.5t39 107t65.5 87.5t87 59t104.5 21.5q107 0 152.5 -73.5t14.5 -213.5h-402zM318 686h65l-22 -102h-65zM477 686h65l-22 -102h-65z" />
    <glyph glyph-name="igrave" unicode="&#xec;" horiz-adv-x="222" 
d="M78 0l110 518h60l-110 -518h-60zM142 713h78l81 -139h-51z" />
    <glyph glyph-name="iacute" unicode="&#xed;" horiz-adv-x="222" 
d="M78 0l110 518h60l-110 -518h-60zM155 574l141 139h77l-167 -139h-51z" />
    <glyph glyph-name="icircumflex" unicode="&#xee;" horiz-adv-x="222" 
d="M78 0l110 518h60l-110 -518h-60zM135 574h-65l144 139h67l83 -139h-65l-60 102z" />
    <glyph glyph-name="idieresis" unicode="&#xef;" horiz-adv-x="222" 
d="M78 0l110 518h60l-110 -518h-60zM130 686h65l-22 -102h-65zM289 686h65l-22 -102h-65z" />
    <glyph glyph-name="eth" unicode="&#xf0;" 
d="M509 259q9 46 8 86t-15.5 69.5t-44 46.5t-77.5 17q-47 0 -84.5 -18.5t-65.5 -49t-46 -70t-27 -81.5q-10 -48 -7 -88.5t19 -69.5t45.5 -45t72.5 -16q47 0 84.5 18.5t65 49.5t45.5 70t27 81zM393 586l-33 24l76 52q-28 23 -71 44l48 33q20 -9 37 -20t33 -25l64 45l32 -25
l-69 -48q56 -66 74 -169.5t-11 -237.5q-13 -62 -41 -112t-67 -86t-87.5 -55.5t-102.5 -19.5q-50 1 -89.5 18t-65 51t-33.5 85t6 119q11 51 35 100t60.5 87.5t86.5 62t112 23.5q25 0 43.5 -2t34 -7t29.5 -14t29 -23q-7 51 -21 87t-38 62z" />
    <glyph glyph-name="ntilde" unicode="&#xf1;" 
d="M132 0h-60l110 518h60l-15 -72q44 38 87.5 62t97.5 24q48 0 85.5 -16.5t56.5 -57.5q13 -28 10.5 -57.5t-9.5 -61.5l-72 -339h-60l72 338q15 70 -8.5 105t-95.5 35q-28 0 -53 -8.5t-46.5 -22.5t-38.5 -32t-28 -38q-14 -25 -21 -48t-13 -50zM253 586q5 18 13.5 32.5
t18.5 26.5q20 21 45.5 31.5t50.5 4.5q13 -3 27.5 -10t29.5 -14.5t29.5 -13t27.5 -5.5q22 0 34 16t20 34h38q-3 -10 -7 -19.5t-9 -18.5q-16 -24 -37 -42t-50 -18q-21 0 -38 7t-33 15.5t-32 15.5t-33 7q-23 0 -36 -15t-23 -34h-36z" />
    <glyph glyph-name="ograve" unicode="&#xf2;" 
d="M275 -14q-50 1 -89.5 18t-65 51t-33.5 85t6 119q12 57 37.5 106.5t63.5 86.5t87.5 58.5t109.5 21.5q61 0 101.5 -21.5t62.5 -58t26 -86.5t-8 -107q-13 -62 -41 -112t-67 -86t-87.5 -55.5t-102.5 -19.5zM509 259q9 46 8 86t-15.5 69.5t-44 46.5t-77.5 17
q-47 0 -84.5 -18.5t-65.5 -49t-46 -70t-27 -81.5q-10 -48 -7 -88.5t19 -69.5t45.5 -45t72.5 -16q47 0 84.5 18.5t65 49.5t45.5 70t27 81zM309 713h78l81 -139h-51z" />
    <glyph glyph-name="oacute" unicode="&#xf3;" 
d="M275 -14q-50 1 -89.5 18t-65 51t-33.5 85t6 119q12 57 37.5 106.5t63.5 86.5t87.5 58.5t109.5 21.5q61 0 101.5 -21.5t62.5 -58t26 -86.5t-8 -107q-13 -62 -41 -112t-67 -86t-87.5 -55.5t-102.5 -19.5zM509 259q9 46 8 86t-15.5 69.5t-44 46.5t-77.5 17
q-47 0 -84.5 -18.5t-65.5 -49t-46 -70t-27 -81.5q-10 -48 -7 -88.5t19 -69.5t45.5 -45t72.5 -16q47 0 84.5 18.5t65 49.5t45.5 70t27 81zM343 574l141 139h77l-167 -139h-51z" />
    <glyph glyph-name="ocircumflex" unicode="&#xf4;" 
d="M275 -14q-50 1 -89.5 18t-65 51t-33.5 85t6 119q12 57 37.5 106.5t63.5 86.5t87.5 58.5t109.5 21.5q61 0 101.5 -21.5t62.5 -58t26 -86.5t-8 -107q-13 -62 -41 -112t-67 -86t-87.5 -55.5t-102.5 -19.5zM509 259q9 46 8 86t-15.5 69.5t-44 46.5t-77.5 17
q-47 0 -84.5 -18.5t-65.5 -49t-46 -70t-27 -81.5q-10 -48 -7 -88.5t19 -69.5t45.5 -45t72.5 -16q47 0 84.5 18.5t65 49.5t45.5 70t27 81zM323 574h-65l144 139h67l83 -139h-65l-60 102z" />
    <glyph glyph-name="otilde" unicode="&#xf5;" 
d="M275 -14q-50 1 -89.5 18t-65 51t-33.5 85t6 119q12 57 37.5 106.5t63.5 86.5t87.5 58.5t109.5 21.5q61 0 101.5 -21.5t62.5 -58t26 -86.5t-8 -107q-13 -62 -41 -112t-67 -86t-87.5 -55.5t-102.5 -19.5zM509 259q9 46 8 86t-15.5 69.5t-44 46.5t-77.5 17
q-47 0 -84.5 -18.5t-65.5 -49t-46 -70t-27 -81.5q-10 -48 -7 -88.5t19 -69.5t45.5 -45t72.5 -16q47 0 84.5 18.5t65 49.5t45.5 70t27 81zM253 586q5 18 13.5 32.5t18.5 26.5q20 21 45.5 31.5t50.5 4.5q13 -3 27.5 -10t29.5 -14.5t29.5 -13t27.5 -5.5q22 0 34 16t20 34h38
q-3 -10 -7 -19.5t-9 -18.5q-16 -24 -37 -42t-50 -18q-21 0 -38 7t-33 15.5t-32 15.5t-33 7q-23 0 -36 -15t-23 -34h-36z" />
    <glyph glyph-name="odieresis" unicode="&#xf6;" 
d="M275 -14q-50 1 -89.5 18t-65 51t-33.5 85t6 119q12 57 37.5 106.5t63.5 86.5t87.5 58.5t109.5 21.5q61 0 101.5 -21.5t62.5 -58t26 -86.5t-8 -107q-13 -62 -41 -112t-67 -86t-87.5 -55.5t-102.5 -19.5zM509 259q9 46 8 86t-15.5 69.5t-44 46.5t-77.5 17
q-47 0 -84.5 -18.5t-65.5 -49t-46 -70t-27 -81.5q-10 -48 -7 -88.5t19 -69.5t45.5 -45t72.5 -16q47 0 84.5 18.5t65 49.5t45.5 70t27 81zM318 686h65l-22 -102h-65zM477 686h65l-22 -102h-65z" />
    <glyph glyph-name="divide" unicode="&#xf7;" horiz-adv-x="660" 
d="M140 280h500l-13 -60h-500zM294 0l19 88h73l-19 -88h-73zM382 412l18 88h73l-18 -88h-73z" />
    <glyph glyph-name="oslash" unicode="&#xf8;" 
d="M487 433q-11 16 -35.5 30.5t-69.5 14.5q-47 0 -84.5 -18.5t-65.5 -49.5t-46 -70.5t-27 -81.5q-10 -47 -8 -80.5t10 -53.5zM180 85q18 -23 47.5 -34t61.5 -11q47 0 84.5 18.5t65 49t45.5 69.5t27 81q8 38 9 74t-11 65zM66 -23l-30 29l73 68q-20 37 -22.5 84t8.5 100
q12 57 37.5 106.5t63.5 87t87.5 59t109.5 21.5q48 0 83.5 -13.5t59.5 -39.5l65 62l28 -31l-68 -65q19 -36 22 -84t-8 -103q-13 -60 -39.5 -110t-65 -86t-87.5 -56t-106 -20q-56 0 -91 17.5t-52 37.5z" />
    <glyph glyph-name="ugrave" unicode="&#xf9;" 
d="M533 518h60l-110 -518h-60l15 72q-15 -14 -33 -29t-40.5 -27.5t-50 -21t-61.5 -8.5q-52 0 -84 14.5t-48 40.5t-18 60.5t7 75.5l72 341h60l-72 -340q-14 -67 9.5 -102.5t94.5 -35.5q37 0 69.5 14.5t58 40.5t44 62t27.5 79zM309 713h78l81 -139h-51z" />
    <glyph glyph-name="uacute" unicode="&#xfa;" 
d="M533 518h60l-110 -518h-60l15 72q-15 -14 -33 -29t-40.5 -27.5t-50 -21t-61.5 -8.5q-52 0 -84 14.5t-48 40.5t-18 60.5t7 75.5l72 341h60l-72 -340q-14 -67 9.5 -102.5t94.5 -35.5q37 0 69.5 14.5t58 40.5t44 62t27.5 79zM343 574l141 139h77l-167 -139h-51z" />
    <glyph glyph-name="ucircumflex" unicode="&#xfb;" 
d="M533 518h60l-110 -518h-60l15 72q-15 -14 -33 -29t-40.5 -27.5t-50 -21t-61.5 -8.5q-52 0 -84 14.5t-48 40.5t-18 60.5t7 75.5l72 341h60l-72 -340q-14 -67 9.5 -102.5t94.5 -35.5q37 0 69.5 14.5t58 40.5t44 62t27.5 79zM323 574h-65l144 139h67l83 -139h-65l-60 102z
" />
    <glyph glyph-name="udieresis" unicode="&#xfc;" 
d="M533 518h60l-110 -518h-60l15 72q-15 -14 -33 -29t-40.5 -27.5t-50 -21t-61.5 -8.5q-52 0 -84 14.5t-48 40.5t-18 60.5t7 75.5l72 341h60l-72 -340q-14 -67 9.5 -102.5t94.5 -35.5q37 0 69.5 14.5t58 40.5t44 62t27.5 79zM318 686h65l-22 -102h-65zM477 686h65l-22 -102
h-65z" />
    <glyph glyph-name="yacute" unicode="&#xfd;" horiz-adv-x="500" 
d="M38 -141q11 -2 23.5 -4t25.5 -2q25 0 44.5 16t34.5 38.5t27.5 47t24.5 41.5l-90 522h67l72 -445l260 445h65l-302 -511q-29 -49 -53 -88t-48 -66.5t-50 -42t-57 -14.5q-16 0 -30.5 2t-25.5 5zM315 574l141 139h77l-167 -139h-51z" />
    <glyph glyph-name="thorn" unicode="&#xfe;" horiz-adv-x="611" 
d="M194 257q-9 -44 -5.5 -83.5t20 -69t45 -47t69.5 -17.5q46 0 84.5 18.5t67 50.5t47.5 74.5t27 91.5q20 98 -18.5 150.5t-114.5 52.5q-42 0 -78.5 -17t-65 -46.5t-48.5 -70t-30 -87.5zM96 -204h-60l196 924h60l-62 -293h2q18 25 43 45t52 33t54.5 20t52.5 7q63 0 103 -21
t60 -57.5t22.5 -86.5t-9.5 -107q-12 -54 -36 -104t-60.5 -87.5t-85 -60t-107.5 -22.5q-55 0 -100.5 24.5t-63.5 72.5z" />
    <glyph glyph-name="ydieresis" unicode="&#xff;" horiz-adv-x="500" 
d="M38 -141q11 -2 23.5 -4t25.5 -2q25 0 44.5 16t34.5 38.5t27.5 47t24.5 41.5l-90 522h67l72 -445l260 445h65l-302 -511q-29 -49 -53 -88t-48 -66.5t-50 -42t-57 -14.5q-16 0 -30.5 2t-25.5 5zM290 686h65l-22 -102h-65zM449 686h65l-22 -102h-65z" />
    <glyph glyph-name="Amacron" unicode="&#x100;" horiz-adv-x="667" 
d="M15 0l436 720h77l123 -720h-70l-35 226h-328l-133 -226h-70zM253 284h282l-61 378zM358 815h296l-10 -45h-296z" />
    <glyph glyph-name="amacron" unicode="&#x101;" 
d="M468 272q-41 -16 -81 -21t-80 -8q-70 -5 -114 -31t-55 -79q-5 -24 0.5 -41.5t18.5 -29t32.5 -17t40.5 -5.5q36 0 72 9t66.5 27.5t52.5 47t30 67.5zM374 302q17 2 41.5 6t40.5 11q17 7 24 23.5t10 30.5q10 46 -13.5 75.5t-93.5 29.5q-31 0 -58 -5.5t-49.5 -19t-40 -36
t-28.5 -56.5h-61q13 46 38 78.5t58 53t72.5 30t81.5 9.5q39 0 71.5 -8.5t54 -27t29.5 -49.5t-2 -76l-60 -282q-7 -35 3.5 -44.5t51.5 4.5l-10 -47q-7 -2 -21.5 -6t-27.5 -4q-14 0 -27 3q-14 2 -21.5 9.5t-10.5 18t-2.5 23t3.5 26.5q-47 -42 -100.5 -64t-110.5 -22
q-34 0 -64 9t-50 28t-28 46.5t0 65.5q28 132 214 156zM275 627h296l-10 -45h-296z" />
    <glyph glyph-name="Abreve" unicode="&#x102;" horiz-adv-x="667" 
d="M15 0l436 720h77l123 -720h-70l-35 226h-328l-133 -226h-70zM253 284h282l-61 378zM418 896q-1 -42 22.5 -61.5t65.5 -19.5t73 19.5t51 61.5h37q-20 -63 -67 -94.5t-109 -31.5q-60 0 -90 33t-22 93h39z" />
    <glyph glyph-name="abreve" unicode="&#x103;" 
d="M468 272q-41 -16 -81 -21t-80 -8q-70 -5 -114 -31t-55 -79q-5 -24 0.5 -41.5t18.5 -29t32.5 -17t40.5 -5.5q36 0 72 9t66.5 27.5t52.5 47t30 67.5zM374 302q17 2 41.5 6t40.5 11q17 7 24 23.5t10 30.5q10 46 -13.5 75.5t-93.5 29.5q-31 0 -58 -5.5t-49.5 -19t-40 -36
t-28.5 -56.5h-61q13 46 38 78.5t58 53t72.5 30t81.5 9.5q39 0 71.5 -8.5t54 -27t29.5 -49.5t-2 -76l-60 -282q-7 -35 3.5 -44.5t51.5 4.5l-10 -47q-7 -2 -21.5 -6t-27.5 -4q-14 0 -27 3q-14 2 -21.5 9.5t-10.5 18t-2.5 23t3.5 26.5q-47 -42 -100.5 -64t-110.5 -22
q-34 0 -64 9t-50 28t-28 46.5t0 65.5q28 132 214 156zM335 708q-1 -42 22.5 -61.5t65.5 -19.5t73 19.5t51 61.5h37q-20 -63 -67 -94.5t-109 -31.5q-60 0 -90 33t-22 93h39z" />
    <glyph glyph-name="Aogonek" unicode="&#x104;" horiz-adv-x="667" 
d="M15 0l436 720h77l123 -720h-70l-35 226h-328l-133 -226h-70zM253 284h282l-61 378zM622 0l-1 -2q-13 -6 -29 -14.5t-30.5 -20t-25 -24.5t-13.5 -28q-7 -29 10.5 -43t43.5 -14q21 0 44 9l-9 -44q-28 -9 -54 -9q-20 0 -37 5.5t-29 16.5t-17 27.5t0 37.5q7 35 35.5 61.5
t61.5 41.5h50z" />
    <glyph glyph-name="aogonek" unicode="&#x105;" 
d="M468 272q-41 -16 -81 -21t-80 -8q-70 -5 -114 -31t-55 -79q-5 -24 0.5 -41.5t18.5 -29t32.5 -17t40.5 -5.5q36 0 72 9t66.5 27.5t52.5 47t30 67.5zM374 302q17 2 41.5 6t40.5 11q17 7 24 23.5t10 30.5q10 46 -13.5 75.5t-93.5 29.5q-31 0 -58 -5.5t-49.5 -19t-40 -36
t-28.5 -56.5h-61q13 46 38 78.5t58 53t72.5 30t81.5 9.5q39 0 71.5 -8.5t54 -27t29.5 -49.5t-2 -76l-60 -282q-7 -35 3.5 -44.5t51.5 4.5l-10 -47q-7 -2 -21.5 -6t-27.5 -4q-14 0 -27 3q-14 2 -21.5 9.5t-10.5 18t-2.5 23t3.5 26.5q-47 -42 -100.5 -64t-110.5 -22
q-34 0 -64 9t-50 28t-28 46.5t0 65.5q28 132 214 156zM502 -14l-1 -2q-13 -6 -29 -14.5t-30.5 -20t-25 -24.5t-13.5 -28q-7 -29 10.5 -43t43.5 -14q21 0 44 9l-9 -44q-28 -9 -54 -9q-20 0 -37 5.5t-29 16.5t-17 27.5t0 37.5q7 35 35.5 61.5t61.5 41.5h50z" />
    <glyph glyph-name="Cacute" unicode="&#x106;" horiz-adv-x="722" 
d="M700 511q-1 92 -50 131t-141 39q-65 0 -117.5 -26t-92.5 -70t-66.5 -101.5t-40.5 -121.5q-12 -60 -12 -118t19.5 -103.5t62.5 -73.5t117 -28q46 0 87 15t75 41.5t61.5 62.5t46.5 79h71q-23 -52 -56 -98.5t-78 -81.5t-103 -55.5t-130 -20.5q-83 0 -135.5 30.5t-78.5 82.5
t-28.5 120.5t13.5 145.5q22 103 63 175t95.5 117.5t120 66t137.5 20.5q55 0 99 -14.5t74.5 -43.5t45 -71.5t11.5 -98.5h-70zM434 789l141 139h77l-167 -139h-51z" />
    <glyph glyph-name="cacute" unicode="&#x107;" 
d="M514 355q-4 58 -36 90.5t-92 32.5q-46 0 -83 -19t-64.5 -50.5t-46 -71t-27.5 -79.5q-8 -41 -7 -80t15.5 -70t43.5 -49.5t76 -18.5q67 0 115.5 37t73.5 102h64q-18 -43 -43 -78.5t-58 -61t-73.5 -39.5t-89.5 -14q-62 0 -103 21t-62 57.5t-24.5 86.5t8.5 107
q12 54 38 103.5t64 87.5t87.5 60.5t107.5 22.5q90 0 136 -43t41 -134h-61zM308 582l141 139h77l-167 -139h-51z" />
    <glyph glyph-name="Ccircumflex" unicode="&#x108;" horiz-adv-x="722" 
d="M700 511q-1 92 -50 131t-141 39q-65 0 -117.5 -26t-92.5 -70t-66.5 -101.5t-40.5 -121.5q-12 -60 -12 -118t19.5 -103.5t62.5 -73.5t117 -28q46 0 87 15t75 41.5t61.5 62.5t46.5 79h71q-23 -52 -56 -98.5t-78 -81.5t-103 -55.5t-130 -20.5q-83 0 -135.5 30.5t-78.5 82.5
t-28.5 120.5t13.5 145.5q22 103 63 175t95.5 117.5t120 66t137.5 20.5q55 0 99 -14.5t74.5 -43.5t45 -71.5t11.5 -98.5h-70zM444 789h-65l144 139h67l83 -139h-65l-60 102z" />
    <glyph glyph-name="ccircumflex" unicode="&#x109;" 
d="M514 355q-4 58 -36 90.5t-92 32.5q-46 0 -83 -19t-64.5 -50.5t-46 -71t-27.5 -79.5q-8 -41 -7 -80t15.5 -70t43.5 -49.5t76 -18.5q67 0 115.5 37t73.5 102h64q-18 -43 -43 -78.5t-58 -61t-73.5 -39.5t-89.5 -14q-62 0 -103 21t-62 57.5t-24.5 86.5t8.5 107
q12 54 38 103.5t64 87.5t87.5 60.5t107.5 22.5q90 0 136 -43t41 -134h-61zM318 582h-65l144 139h67l83 -139h-65l-60 102z" />
    <glyph glyph-name="Cdotaccent" unicode="&#x10a;" horiz-adv-x="722" 
d="M700 511q-1 92 -50 131t-141 39q-65 0 -117.5 -26t-92.5 -70t-66.5 -101.5t-40.5 -121.5q-12 -60 -12 -118t19.5 -103.5t62.5 -73.5t117 -28q46 0 87 15t75 41.5t61.5 62.5t46.5 79h71q-23 -52 -56 -98.5t-78 -81.5t-103 -55.5t-130 -20.5q-83 0 -135.5 30.5t-78.5 82.5
t-28.5 120.5t13.5 145.5q22 103 63 175t95.5 117.5t120 66t137.5 20.5q55 0 99 -14.5t74.5 -43.5t45 -71.5t11.5 -98.5h-70zM515 891h65l-22 -102h-65z" />
    <glyph glyph-name="cdotaccent" unicode="&#x10b;" 
d="M514 355q-4 58 -36 90.5t-92 32.5q-46 0 -83 -19t-64.5 -50.5t-46 -71t-27.5 -79.5q-8 -41 -7 -80t15.5 -70t43.5 -49.5t76 -18.5q67 0 115.5 37t73.5 102h64q-18 -43 -43 -78.5t-58 -61t-73.5 -39.5t-89.5 -14q-62 0 -103 21t-62 57.5t-24.5 86.5t8.5 107
q12 54 38 103.5t64 87.5t87.5 60.5t107.5 22.5q90 0 136 -43t41 -134h-61zM389 684h65l-22 -102h-65z" />
    <glyph glyph-name="Ccaron" unicode="&#x10c;" horiz-adv-x="722" 
d="M700 511q-1 92 -50 131t-141 39q-65 0 -117.5 -26t-92.5 -70t-66.5 -101.5t-40.5 -121.5q-12 -60 -12 -118t19.5 -103.5t62.5 -73.5t117 -28q46 0 87 15t75 41.5t61.5 62.5t46.5 79h71q-23 -52 -56 -98.5t-78 -81.5t-103 -55.5t-130 -20.5q-83 0 -135.5 30.5t-78.5 82.5
t-28.5 120.5t13.5 145.5q22 103 63 175t95.5 117.5t120 66t137.5 20.5q55 0 99 -14.5t74.5 -43.5t45 -71.5t11.5 -98.5h-70zM640 928h65l-143 -139h-67l-84 139h65l60 -102z" />
    <glyph glyph-name="ccaron" unicode="&#x10d;" 
d="M514 355q-4 58 -36 90.5t-92 32.5q-46 0 -83 -19t-64.5 -50.5t-46 -71t-27.5 -79.5q-8 -41 -7 -80t15.5 -70t43.5 -49.5t76 -18.5q67 0 115.5 37t73.5 102h64q-18 -43 -43 -78.5t-58 -61t-73.5 -39.5t-89.5 -14q-62 0 -103 21t-62 57.5t-24.5 86.5t8.5 107
q12 54 38 103.5t64 87.5t87.5 60.5t107.5 22.5q90 0 136 -43t41 -134h-61zM514 721h65l-143 -139h-67l-84 139h65l60 -102z" />
    <glyph glyph-name="Dcaron" unicode="&#x10e;" horiz-adv-x="722" 
d="M81 0l153 720h246q30 0 58.5 -1.5t55.5 -7t51 -16.5t45 -29q31 -26 46 -63.5t19.5 -79t1 -84t-11.5 -78.5q-7 -36 -19.5 -73t-30 -72.5t-41 -68t-54.5 -59.5q-31 -28 -64 -45t-67.5 -26.5t-70 -13t-71.5 -3.5h-246zM161 58h163q46 0 87.5 5.5t88.5 27.5q40 18 69.5 49
t50.5 67.5t35 76.5t22 77q9 39 12.5 79.5t-3 77t-24 67t-51.5 50.5q-28 17 -71 22t-88 5h-163zM652 909h65l-143 -139h-67l-84 139h65l60 -102z" />
    <glyph glyph-name="dcaron" unicode="&#x10f;" horiz-adv-x="722" 
d="M800 602q-5 -27 -12.5 -45t-17.5 -30t-23.5 -19.5t-30.5 -12.5l48 225h62zM527 261q9 44 5.5 83.5t-19.5 69t-45 47t-70 17.5q-47 0 -85 -18.5t-66.5 -50.5t-47.5 -74.5t-28 -91.5q-10 -49 -4.5 -86.5t24 -63.5t47.5 -39.5t67 -13.5q42 0 78.5 17t65 46.5t48.5 70
t30 87.5zM625 720h60l-153 -720h-60l19 91h-2q-19 -26 -43.5 -45.5t-51.5 -32.5t-54.5 -20t-52.5 -7q-63 0 -103 21t-60.5 57.5t-23 86.5t9.5 107q12 54 36.5 104t61 87.5t85 60t107.5 22.5q55 0 100 -24.5t64 -72.5z" />
    <glyph glyph-name="Dcroat" unicode="&#x110;" horiz-adv-x="722" 
d="M81 0zM236 411h161l-12 -58h-161l-63 -295h163q46 0 88 5.5t88 27.5q40 18 70 49t51.5 67.5t35 76.5t21.5 77q8 39 11.5 79.5t-2.5 77t-24 67t-51 50.5q-29 17 -71.5 22t-87.5 5h-163zM234 720h246q30 0 58.5 -1.5t55.5 -7t51.5 -16.5t45.5 -29q30 -26 45 -63.5t20 -79
t1 -84t-11 -78.5q-8 -36 -20 -73t-29.5 -72.5t-41.5 -68t-54 -59.5q-31 -28 -64 -45t-68 -26.5t-70.5 -13t-71.5 -3.5h-246l75 353h-71l12 58h71z" />
    <glyph glyph-name="uni0111" unicode="&#x111;" horiz-adv-x="611" 
d="M741 648l-10 -46h-72l-127 -602h-60l19 91h-2q-19 -26 -43.5 -45.5t-51.5 -32.5t-54.5 -20t-52.5 -7q-63 0 -103 21t-60.5 57.5t-23 86.5t9.5 107q12 54 36.5 104t61 87.5t85 60t107.5 22.5q55 0 100 -24.5t64 -72.5l35 167h-113l10 46h113l16 72h60l-16 -72h72zM527 261
q9 44 5.5 83.5t-19.5 69t-45 47t-70 17.5q-47 0 -85 -18.5t-66.5 -50.5t-47.5 -74.5t-28 -91.5q-10 -49 -4.5 -86.5t24 -63.5t47.5 -39.5t67 -13.5q42 0 78.5 17t65 46.5t48.5 70t30 87.5z" />
    <glyph glyph-name="Emacron" unicode="&#x112;" horiz-adv-x="611" 
d="M81 0l153 720h479l-13 -58h-411l-55 -260h371l-12 -58h-371l-61 -286h421l-12 -58h-489zM350 815h296l-10 -45h-296z" />
    <glyph glyph-name="emacron" unicode="&#x113;" 
d="M509 295q8 38 5 71.5t-18.5 58t-43.5 39t-68 14.5t-73.5 -15t-60.5 -40t-47 -58t-32 -70h338zM161 245q-9 -42 -6 -79.5t18.5 -65t45 -44t72.5 -16.5q59 0 107.5 31t74.5 88h67q-19 -37 -43.5 -68.5t-56.5 -55t-71.5 -36.5t-88.5 -13q-62 0 -103 21t-62 57.5t-24.5 86
t8.5 106.5t39 107t65.5 87.5t87.5 59t105 21.5q107 0 152 -73.5t15 -213.5h-402zM263 627h296l-10 -45h-296z" />
    <glyph glyph-name="Ebreve" unicode="&#x114;" horiz-adv-x="611" 
d="M81 0l153 720h479l-13 -58h-411l-55 -260h371l-12 -58h-371l-61 -286h421l-12 -58h-489zM410 896q-1 -42 22.5 -61.5t65.5 -19.5t73 19.5t51 61.5h37q-20 -63 -67 -94.5t-109 -31.5q-60 0 -90 33t-22 93h39z" />
    <glyph glyph-name="ebreve" unicode="&#x115;" 
d="M509 295q8 38 5 71.5t-18.5 58t-43.5 39t-68 14.5t-73.5 -15t-60.5 -40t-47 -58t-32 -70h338zM161 245q-9 -42 -6 -79.5t18.5 -65t45 -44t72.5 -16.5q59 0 107.5 31t74.5 88h67q-19 -37 -43.5 -68.5t-56.5 -55t-71.5 -36.5t-88.5 -13q-62 0 -103 21t-62 57.5t-24.5 86
t8.5 106.5t39 107t65.5 87.5t87.5 59t105 21.5q107 0 152 -73.5t15 -213.5h-402zM323 708q-1 -42 22.5 -61.5t65.5 -19.5t73 19.5t51 61.5h37q-20 -63 -67 -94.5t-109 -31.5q-60 0 -90 33t-22 93h39z" />
    <glyph glyph-name="Edotaccent" unicode="&#x116;" horiz-adv-x="611" 
d="M81 0l153 720h479l-13 -58h-411l-55 -260h371l-12 -58h-371l-61 -286h421l-12 -58h-489zM477 872h65l-22 -102h-65z" />
    <glyph glyph-name="edotaccent" unicode="&#x117;" 
d="M509 295q8 38 5 71.5t-18.5 58t-43.5 39t-68 14.5t-73.5 -15t-60.5 -40t-47 -58t-32 -70h338zM161 245q-9 -42 -6 -79.5t18.5 -65t45 -44t72.5 -16.5q59 0 107.5 31t74.5 88h67q-19 -37 -43.5 -68.5t-56.5 -55t-71.5 -36.5t-88.5 -13q-62 0 -103 21t-62 57.5t-24.5 86
t8.5 106.5t39 107t65.5 87.5t87.5 59t105 21.5q107 0 152 -73.5t15 -213.5h-402zM390 684h65l-22 -102h-65z" />
    <glyph glyph-name="Eogonek" unicode="&#x118;" horiz-adv-x="611" 
d="M81 0l153 720h479l-13 -58h-411l-55 -260h371l-12 -58h-371l-61 -286h421l-12 -58h-489zM373 0l-1 -2q-13 -6 -29 -14.5t-30.5 -20t-25 -24.5t-13.5 -28q-7 -29 10.5 -43t43.5 -14q21 0 44 9l-9 -44q-28 -9 -54 -9q-20 0 -37 5.5t-29 16.5t-17 27.5t0 37.5
q7 35 35.5 61.5t61.5 41.5h50z" />
    <glyph glyph-name="eogonek" unicode="&#x119;" 
d="M509 295q8 38 5 71.5t-18.5 58t-43.5 39t-68 14.5t-73.5 -15t-60.5 -40t-47 -58t-32 -70h338zM161 245q-9 -42 -6 -79.5t18.5 -65t45 -44t72.5 -16.5q59 0 107.5 31t74.5 88h67q-19 -37 -43.5 -68.5t-56.5 -55t-71.5 -36.5t-88.5 -13q-62 0 -103 21t-62 57.5t-24.5 86
t8.5 106.5t39 107t65.5 87.5t87.5 59t105 21.5q107 0 152 -73.5t15 -213.5h-402zM323 -14l-1 -2q-13 -6 -29 -14.5t-30.5 -20t-25 -24.5t-13.5 -28q-7 -29 10.5 -43t43.5 -14q21 0 44 9l-9 -44q-28 -9 -54 -9q-20 0 -37 5.5t-29 16.5t-17 27.5t0 37.5q7 35 35.5 61.5
t61.5 41.5h50z" />
    <glyph glyph-name="Ecaron" unicode="&#x11a;" horiz-adv-x="611" 
d="M81 0l153 720h479l-13 -58h-411l-55 -260h371l-12 -58h-371l-61 -286h421l-12 -58h-489zM602 909h65l-143 -139h-67l-84 139h65l60 -102z" />
    <glyph glyph-name="ecaron" unicode="&#x11b;" 
d="M509 295q8 38 5 71.5t-18.5 58t-43.5 39t-68 14.5t-73.5 -15t-60.5 -40t-47 -58t-32 -70h338zM161 245q-9 -42 -6 -79.5t18.5 -65t45 -44t72.5 -16.5q59 0 107.5 31t74.5 88h67q-19 -37 -43.5 -68.5t-56.5 -55t-71.5 -36.5t-88.5 -13q-62 0 -103 21t-62 57.5t-24.5 86
t8.5 106.5t39 107t65.5 87.5t87.5 59t105 21.5q107 0 152 -73.5t15 -213.5h-402zM515 721h65l-143 -139h-67l-84 139h65l60 -102z" />
    <glyph glyph-name="Gcircumflex" unicode="&#x11c;" horiz-adv-x="778" 
d="M453 314l13 58h308l-79 -372h-58l26 123q-26 -32 -56 -58.5t-66 -45t-80.5 -28.5t-97.5 -10q-68 0 -120.5 24t-84.5 71.5t-40.5 119.5t12.5 168q17 79 51.5 147.5t86.5 119t121 79.5t154 29q57 0 103.5 -14t80 -42.5t51 -71t17.5 -100.5h-70q0 40 -15 72t-40.5 53.5
t-60 33t-74.5 11.5q-71 0 -127 -25t-99 -70.5t-72 -109t-45 -139.5q-13 -60 -7 -114t31 -95t68.5 -65t105.5 -24q29 0 61.5 6.5t64.5 21.5t62 39t56 59q24 34 38.5 71t23.5 78h-243zM459 789h-65l144 139h67l83 -139h-65l-60 102z" />
    <glyph glyph-name="gcircumflex" unicode="&#x11d;" horiz-adv-x="611" 
d="M526 257q10 47 7 87.5t-18.5 70t-45 46.5t-71.5 17q-38 0 -73 -13.5t-64.5 -39.5t-51 -63.5t-31.5 -86.5q-12 -49 -11.5 -91.5t16 -74.5t45.5 -50.5t77 -18.5q41 0 77 17.5t65 47t49.5 69t29.5 83.5zM582 518h60l-100 -468q-11 -52 -31.5 -99.5t-55 -83.5t-86.5 -57.5
t-126 -21.5q-57 0 -94.5 14.5t-59 36.5t-29.5 48.5t-4 49.5h64q1 -29 12 -47.5t29.5 -29t42.5 -14.5t51 -4q61 0 102.5 21t67.5 55t41 77t23 88q-39 -48 -94.5 -72.5t-110.5 -24.5q-59 0 -98 22.5t-59.5 60t-24 87.5t8.5 104q12 57 35.5 107t60 86.5t85 57.5t111.5 21
q25 0 49.5 -7t46 -20t38 -33t23.5 -45h2zM335 582h-65l144 139h67l83 -139h-65l-60 102z" />
    <glyph glyph-name="Gbreve" unicode="&#x11e;" horiz-adv-x="778" 
d="M453 314l13 58h308l-79 -372h-58l26 123q-26 -32 -56 -58.5t-66 -45t-80.5 -28.5t-97.5 -10q-68 0 -120.5 24t-84.5 71.5t-40.5 119.5t12.5 168q17 79 51.5 147.5t86.5 119t121 79.5t154 29q57 0 103.5 -14t80 -42.5t51 -71t17.5 -100.5h-70q0 40 -15 72t-40.5 53.5
t-60 33t-74.5 11.5q-71 0 -127 -25t-99 -70.5t-72 -109t-45 -139.5q-13 -60 -7 -114t31 -95t68.5 -65t105.5 -24q29 0 61.5 6.5t64.5 21.5t62 39t56 59q24 34 38.5 71t23.5 78h-243zM463 915q-1 -42 22.5 -61.5t65.5 -19.5t73 19.5t51 61.5h37q-20 -63 -67 -94.5t-109 -31.5
q-60 0 -90 33t-22 93h39z" />
    <glyph glyph-name="gbreve" unicode="&#x11f;" horiz-adv-x="611" 
d="M526 257q10 47 7 87.5t-18.5 70t-45 46.5t-71.5 17q-38 0 -73 -13.5t-64.5 -39.5t-51 -63.5t-31.5 -86.5q-12 -49 -11.5 -91.5t16 -74.5t45.5 -50.5t77 -18.5q41 0 77 17.5t65 47t49.5 69t29.5 83.5zM582 518h60l-100 -468q-11 -52 -31.5 -99.5t-55 -83.5t-86.5 -57.5
t-126 -21.5q-57 0 -94.5 14.5t-59 36.5t-29.5 48.5t-4 49.5h64q1 -29 12 -47.5t29.5 -29t42.5 -14.5t51 -4q61 0 102.5 21t67.5 55t41 77t23 88q-39 -48 -94.5 -72.5t-110.5 -24.5q-59 0 -98 22.5t-59.5 60t-24 87.5t8.5 104q12 57 35.5 107t60 86.5t85 57.5t111.5 21
q25 0 49.5 -7t46 -20t38 -33t23.5 -45h2zM339 708q-1 -42 22.5 -61.5t65.5 -19.5t73 19.5t51 61.5h37q-20 -63 -67 -94.5t-109 -31.5q-60 0 -90 33t-22 93h39z" />
    <glyph glyph-name="Gdotaccent" unicode="&#x120;" horiz-adv-x="778" 
d="M453 314l13 58h308l-79 -372h-58l26 123q-26 -32 -56 -58.5t-66 -45t-80.5 -28.5t-97.5 -10q-68 0 -120.5 24t-84.5 71.5t-40.5 119.5t12.5 168q17 79 51.5 147.5t86.5 119t121 79.5t154 29q57 0 103.5 -14t80 -42.5t51 -71t17.5 -100.5h-70q0 40 -15 72t-40.5 53.5
t-60 33t-74.5 11.5q-71 0 -127 -25t-99 -70.5t-72 -109t-45 -139.5q-13 -60 -7 -114t31 -95t68.5 -65t105.5 -24q29 0 61.5 6.5t64.5 21.5t62 39t56 59q24 34 38.5 71t23.5 78h-243zM530 891h65l-22 -102h-65z" />
    <glyph glyph-name="gdotaccent" unicode="&#x121;" horiz-adv-x="611" 
d="M526 257q10 47 7 87.5t-18.5 70t-45 46.5t-71.5 17q-38 0 -73 -13.5t-64.5 -39.5t-51 -63.5t-31.5 -86.5q-12 -49 -11.5 -91.5t16 -74.5t45.5 -50.5t77 -18.5q41 0 77 17.5t65 47t49.5 69t29.5 83.5zM582 518h60l-100 -468q-11 -52 -31.5 -99.5t-55 -83.5t-86.5 -57.5
t-126 -21.5q-57 0 -94.5 14.5t-59 36.5t-29.5 48.5t-4 49.5h64q1 -29 12 -47.5t29.5 -29t42.5 -14.5t51 -4q61 0 102.5 21t67.5 55t41 77t23 88q-39 -48 -94.5 -72.5t-110.5 -24.5q-59 0 -98 22.5t-59.5 60t-24 87.5t8.5 104q12 57 35.5 107t60 86.5t85 57.5t111.5 21
q25 0 49.5 -7t46 -20t38 -33t23.5 -45h2zM406 684h65l-22 -102h-65z" />
    <glyph glyph-name="Gcommaaccent" unicode="&#x122;" horiz-adv-x="778" 
d="M453 314l13 58h308l-79 -372h-58l26 123q-26 -32 -56 -58.5t-66 -45t-80.5 -28.5t-97.5 -10q-68 0 -120.5 24t-84.5 71.5t-40.5 119.5t12.5 168q17 79 51.5 147.5t86.5 119t121 79.5t154 29q57 0 103.5 -14t80 -42.5t51 -71t17.5 -100.5h-70q0 40 -15 72t-40.5 53.5
t-60 33t-74.5 11.5q-71 0 -127 -25t-99 -70.5t-72 -109t-45 -139.5q-13 -60 -7 -114t31 -95t68.5 -65t105.5 -24q29 0 61.5 6.5t64.5 21.5t62 39t56 59q24 34 38.5 71t23.5 78h-243zM377 -146q-9 -44 -35 -70.5t-60 -36.5l8 37q13 8 27 22t21 44l7 34h-34l19 88h73z" />
    <glyph glyph-name="gcommaaccent" unicode="&#x123;" horiz-adv-x="611" 
d="M526 257q10 47 7 87.5t-18.5 70t-45 46.5t-71.5 17q-38 0 -73 -13.5t-64.5 -39.5t-51 -63.5t-31.5 -86.5q-12 -49 -11.5 -91.5t16 -74.5t45.5 -50.5t77 -18.5q41 0 77 17.5t65 47t49.5 69t29.5 83.5zM582 518h60l-100 -468q-11 -52 -31.5 -99.5t-55 -83.5t-86.5 -57.5
t-126 -21.5q-57 0 -94.5 14.5t-59 36.5t-29.5 48.5t-4 49.5h64q1 -29 12 -47.5t29.5 -29t42.5 -14.5t51 -4q61 0 102.5 21t67.5 55t41 77t23 88q-39 -48 -94.5 -72.5t-110.5 -24.5q-59 0 -98 22.5t-59.5 60t-24 87.5t8.5 104q12 57 35.5 107t60 86.5t85 57.5t111.5 21
q25 0 49.5 -7t46 -20t38 -33t23.5 -45h2zM405 700q10 44 36 70.5t60 36.5l-8 -37q-14 -8 -27.5 -22t-20.5 -44l-7 -34h34l-19 -88h-73z" />
    <glyph glyph-name="Hcircumflex" unicode="&#x124;" horiz-adv-x="722" 
d="M80 0l153 720h68l-66 -309h426l66 309h68l-153 -720h-68l75 353h-426l-75 -353h-68zM442 770h-65l144 139h67l83 -139h-65l-60 102z" />
    <glyph glyph-name="hcircumflex" unicode="&#x125;" 
d="M72 0l153 720h60l-59 -274q44 38 88 62t98 24q48 0 85.5 -16.5t56.5 -57.5q13 -28 10 -57.5t-9 -61.5l-72 -339h-60l71 338q15 70 -8.5 105t-95.5 35q-28 0 -53 -8.5t-46 -22.5t-38 -32t-28 -38q-15 -25 -21.5 -48t-12.5 -50l-59 -279h-60zM358 770h-65l144 139h67
l83 -139h-65l-60 102z" />
    <glyph glyph-name="Hbar" unicode="&#x126;" horiz-adv-x="796" 
d="M118 0l112 530h-77l11 50h77l30 140h68l-30 -140h426l30 140h68l-30 -140h74l-11 -50h-74l-112 -530h-68l75 353h-426l-75 -353h-68zM699 411l25 119h-426l-25 -119h426z" />
    <glyph glyph-name="hbar" unicode="&#x127;" horiz-adv-x="551" 
d="M109 0l126 596h-70l11 50h70l16 74h60l-16 -74h107l-11 -50h-107l-32 -150q44 38 88 62t98 24q48 0 85.5 -16.5t56.5 -57.5q13 -28 10 -57.5t-9 -61.5l-72 -339h-60l71 338q15 70 -8.5 105t-95.5 35q-28 0 -53 -8.5t-46 -22.5t-38 -32t-28 -38q-15 -25 -21.5 -48
t-12.5 -50l-59 -279h-60z" />
    <glyph glyph-name="Itilde" unicode="&#x128;" horiz-adv-x="278" 
d="M105 0l153 720h68l-153 -720h-68zM151 770q6 18 14 32.5t19 26.5q19 21 45 31.5t50 4.5q14 -3 28.5 -10t29.5 -14.5t29 -13t27 -5.5q22 0 34.5 16t20.5 34h38q-3 -10 -7.5 -19.5t-8.5 -18.5q-16 -24 -37 -42t-50 -18q-21 0 -38 7t-33 15.5t-32 15.5t-33 7
q-23 0 -36.5 -15t-23.5 -34h-36z" />
    <glyph glyph-name="itilde" unicode="&#x129;" horiz-adv-x="222" 
d="M78 0l110 518h60l-110 -518h-60zM77 568q6 18 14 32.5t19 26.5q19 21 45 31.5t50 4.5q14 -3 28.5 -10t29.5 -14.5t29 -13t27 -5.5q22 0 34.5 16t20.5 34h38q-3 -10 -7.5 -19.5t-8.5 -18.5q-16 -24 -37 -42t-50 -18q-21 0 -38 7t-33 15.5t-32 15.5t-33 7q-23 0 -36.5 -15
t-23.5 -34h-36z" />
    <glyph glyph-name="Imacron" unicode="&#x12a;" horiz-adv-x="278" 
d="M105 0l153 720h68l-153 -720h-68zM164 815h296l-10 -45h-296z" />
    <glyph glyph-name="imacron" unicode="&#x12b;" horiz-adv-x="222" 
d="M78 0l110 518h60l-110 -518h-60zM90 613h296l-10 -45h-296z" />
    <glyph glyph-name="Ibreve" unicode="&#x12c;" horiz-adv-x="278" 
d="M105 0zM105 0l153 720h68l-153 -720h-68zM222 899q-1 -42 22.5 -61.5t65.5 -19.5t73 19.5t51 61.5h37q-20 -63 -67 -94.5t-109 -31.5q-60 0 -90 33t-22 93h39z" />
    <glyph glyph-name="ibreve" unicode="&#x12d;" horiz-adv-x="222" 
d="M78 0zM78 0l110 518h60l-110 -518h-60zM150 696q-1 -42 22.5 -61.5t65.5 -19.5t73 19.5t51 61.5h37q-20 -63 -67 -94.5t-109 -31.5q-60 0 -90 33t-22 93h39z" />
    <glyph glyph-name="Iogonek" unicode="&#x12e;" horiz-adv-x="278" 
d="M105 0l153 720h68l-153 -720h-68zM187 0l-1 -2q-13 -6 -29 -14.5t-30.5 -20t-25 -24.5t-13.5 -28q-7 -29 10.5 -43t43.5 -14q21 0 44 9l-9 -44q-28 -9 -54 -9q-20 0 -37 5.5t-29 16.5t-17 27.5t0 37.5q7 35 35.5 61.5t61.5 41.5h50z" />
    <glyph glyph-name="iogonek" unicode="&#x12f;" horiz-adv-x="222" 
d="M81 0l110 518h60l-110 -518h-60zM212 631l19 89h66l-19 -89h-66zM159 0l-1 -2q-13 -6 -29 -14.5t-30.5 -20t-25 -24.5t-13.5 -28q-7 -29 10.5 -43t43.5 -14q21 0 44 9l-9 -44q-28 -9 -54 -9q-20 0 -37 5.5t-29 16.5t-17 27.5t0 37.5q7 35 35.5 61.5t61.5 41.5h50z" />
    <glyph glyph-name="Idotaccent" unicode="&#x130;" horiz-adv-x="278" 
d="M105 0zM105 0l153 720h68l-153 -720h-68zM298 875h65l-22 -102h-65z" />
    <glyph glyph-name="dotlessi" unicode="&#x131;" horiz-adv-x="222" 
d="M78 0l110 518h60l-110 -518h-60z" />
    <glyph glyph-name="IJ" unicode="&#x132;" horiz-adv-x="778" 
d="M105 0zM105 0l153 720h68l-153 -720h-68zM416 228q-8 -34 -12 -67t3 -59.5t30 -42.5t70 -16q70 0 107 40t53 116l111 521h68l-111 -523q-23 -105 -83.5 -160.5t-165.5 -55.5q-61 0 -94 20.5t-46 55t-10.5 79t12.5 92.5h68z" />
    <glyph glyph-name="ij" unicode="&#x133;" horiz-adv-x="444" 
d="M81 0zM81 0l110 518h60l-110 -518h-60zM212 631l19 89h66l-19 -89h-66zM480 518l-125 -587q-7 -33 -15 -58t-22 -42.5t-36.5 -26t-58.5 -8.5q-22 0 -39 4l12 53q50 -7 69.5 11t28.5 59l126 595h60zM507 631h-66l19 89h66z" />
    <glyph glyph-name="Jcircumflex" unicode="&#x134;" horiz-adv-x="500" 
d="M55 0zM138 228q-8 -34 -12 -67t3 -59.5t30 -42.5t70 -16q70 0 107 40t53 116l111 521h68l-111 -523q-23 -105 -83.5 -160.5t-165.5 -55.5q-61 0 -94 20.5t-46 55t-10.5 79t12.5 92.5h68zM458 773h-65l144 139h67l83 -139h-65l-60 102z" />
    <glyph glyph-name="jcircumflex" unicode="&#x135;" horiz-adv-x="222" 
d="M0 0zM258 518l-125 -587q-7 -33 -15 -58t-22 -42.5t-36.5 -26t-58.5 -8.5q-22 0 -39 4l12 53q50 -7 69.5 11t28.5 59l126 595h60zM182 569h-65l144 139h67l83 -139h-65l-60 102z" />
    <glyph glyph-name="Kcommaaccent" unicode="&#x136;" horiz-adv-x="667" 
d="M85 0l153 720h68l-80 -373l449 373h77l-345 -287l242 -433h-83l-217 391l-137 -113l-59 -278h-68zM375 -127q-10 -44 -36 -70.5t-60 -36.5l8 37q13 8 27 22t21 44l7 34h-34l19 88h73z" />
    <glyph glyph-name="kcommaaccent" unicode="&#x137;" horiz-adv-x="500" 
d="M68 0l153 720h60l-96 -448l307 246h82l-234 -187l147 -331h-67l-133 289l-118 -93l-41 -196h-60zM285 -127q-10 -44 -36 -70.5t-60 -36.5l8 37q13 8 27 22t21 44l7 34h-34l19 88h73z" />
    <glyph glyph-name="kgreenlandic" unicode="&#x138;" horiz-adv-x="500" 
d="M68 0l110 518h60l-53 -246l307 246h82l-234 -187l147 -331h-67l-133 289l-118 -93l-41 -196h-60z" />
    <glyph glyph-name="Lacute" unicode="&#x139;" 
d="M81 0l153 720h68l-141 -662h386l-12 -58h-454zM379 770l141 139h77l-167 -139h-51z" />
    <glyph glyph-name="lacute" unicode="&#x13a;" horiz-adv-x="222" 
d="M81 0l153 720h60l-153 -720h-60zM182 770l141 139h77l-167 -139h-51z" />
    <glyph glyph-name="Lcommaaccent" unicode="&#x13b;" 
d="M81 0l153 720h68l-141 -662h386l-12 -58h-454zM316 -127q-10 -44 -36 -70.5t-60 -36.5l8 37q13 8 27 22t21 44l7 34h-34l19 88h73z" />
    <glyph glyph-name="lcommaaccent" unicode="&#x13c;" horiz-adv-x="222" 
d="M81 0l153 720h60l-153 -720h-60zM119 -127q-10 -44 -36 -70.5t-60 -36.5l8 37q13 8 27 22t21 44l7 34h-34l19 88h73z" />
    <glyph glyph-name="Lcaron" unicode="&#x13d;" 
d="M81 0l153 720h68l-141 -662h386l-12 -58h-454zM585 909h65l-143 -139h-67l-84 139h65l60 -102z" />
    <glyph glyph-name="lcaron" unicode="&#x13e;" horiz-adv-x="288" 
d="M386 602q-5 -27 -12.5 -45t-17.5 -30t-23.5 -19.5t-30.5 -12.5l48 225h62zM81 0l153 720h60l-153 -720h-60z" />
    <glyph glyph-name="Ldot" unicode="&#x13f;" 
d="M81 0l153 720h68l-141 -662h386l-12 -58h-454zM377 354l18 88h73l-18 -88h-73z" />
    <glyph glyph-name="ldot" unicode="&#x140;" horiz-adv-x="275" 
d="M61 0l153 720h60l-153 -720h-60zM277 354l18 88h73l-18 -88h-73z" />
    <glyph glyph-name="Lslash" unicode="&#x141;" 
d="M81 0l77 360l-90 -40l13 60l89 40l64 300h68l-53 -250l89 40l-12 -60l-90 -40l-75 -352h386l-12 -58h-454z" />
    <glyph glyph-name="lslash" unicode="&#x142;" horiz-adv-x="222" 
d="M81 0l72 340l-79 -40l13 60l79 40l68 320h60l-57 -270l79 40l-13 -60l-79 -40l-83 -390h-60z" />
    <glyph glyph-name="Nacute" unicode="&#x143;" horiz-adv-x="722" 
d="M282 628h-2l-133 -628h-68l153 720h77l282 -629h2l134 629h68l-153 -720h-79zM431 770l141 139h77l-167 -139h-51z" />
    <glyph glyph-name="nacute" unicode="&#x144;" 
d="M132 0h-60l110 518h60l-16 -72q44 38 88 62t98 24q48 0 85.5 -16.5t56.5 -57.5q13 -28 10 -57.5t-9 -61.5l-72 -339h-60l71 338q15 70 -8.5 105t-95.5 35q-28 0 -53 -8.5t-46 -22.5t-38 -32t-28 -38q-15 -25 -21.5 -48t-12.5 -50zM308 582l141 139h77l-167 -139h-51z" />
    <glyph glyph-name="Ncommaaccent" unicode="&#x145;" horiz-adv-x="722" 
d="M282 628h-2l-133 -628h-68l153 720h77l282 -629h2l134 629h68l-153 -720h-79zM368 -127q-10 -44 -36 -70.5t-60 -36.5l8 37q13 8 27 22t21 44l7 34h-34l19 88h73z" />
    <glyph glyph-name="ncedilla" unicode="&#x146;" 
d="M132 0h-60l110 518h60l-16 -72q44 38 88 62t98 24q48 0 85.5 -16.5t56.5 -57.5q13 -28 10 -57.5t-9 -61.5l-72 -339h-60l71 338q15 70 -8.5 105t-95.5 35q-28 0 -53 -8.5t-46 -22.5t-38 -32t-28 -38q-15 -25 -21.5 -48t-12.5 -50zM285 -127q-10 -44 -36 -70.5t-60 -36.5
l8 37q13 8 27 22t21 44l7 34h-34l19 88h73z" />
    <glyph glyph-name="Ncaron" unicode="&#x147;" horiz-adv-x="722" 
d="M282 628h-2l-133 -628h-68l153 720h77l282 -629h2l134 629h68l-153 -720h-79zM637 909h65l-143 -139h-67l-84 139h65l60 -102z" />
    <glyph glyph-name="ncaron" unicode="&#x148;" 
d="M132 0h-60l110 518h60l-16 -72q44 38 88 62t98 24q48 0 85.5 -16.5t56.5 -57.5q13 -28 10 -57.5t-9 -61.5l-72 -339h-60l71 338q15 70 -8.5 105t-95.5 35q-28 0 -53 -8.5t-46 -22.5t-38 -32t-28 -38q-15 -25 -21.5 -48t-12.5 -50zM514 721h65l-143 -139h-67l-84 139h65
l60 -102z" />
    <glyph glyph-name="napostrophe" unicode="&#x149;" horiz-adv-x="607" 
d="M120 0zM216 607q-9 -44 -35.5 -70.5t-60.5 -36.5l8 37q14 8 28 22t20 44l7 34h-34l19 88h73zM183 0h-60l110 518h60l-15 -72q44 38 87.5 62t97.5 24q48 0 85.5 -16.5t56.5 -57.5q13 -28 10.5 -57.5t-9.5 -61.5l-72 -339h-60l72 338q15 70 -8.5 105t-95.5 35
q-28 0 -53 -8.5t-46.5 -22.5t-38.5 -32t-28 -38q-14 -25 -21 -48t-13 -50z" />
    <glyph glyph-name="Eng" unicode="&#x14a;" horiz-adv-x="722" 
d="M795 720l-168 -789q-7 -33 -15.5 -58t-22.5 -42.5t-36.5 -26t-58.5 -8.5q-22 0 -38 4l-8 53q26 -3 42.5 -0.5t27.5 11.5t17.5 24t10.5 35l17 77l-281 628h-2l-133 -628h-68l153 720h77l282 -629h2l134 629h68z" />
    <glyph glyph-name="eng" unicode="&#x14b;" 
d="M132 0h-60l110 518h60l-16 -72q44 38 88 62t98 24q48 0 85.5 -16.5t56.5 -57.5q13 -28 10 -57.5t-9 -61.5l-87 -408q-7 -33 -15.5 -58t-22.5 -42.5t-36.5 -26t-58.5 -8.5q-22 0 -38 4l11 53q26 -3 42.5 -0.5t27.5 11.5t17.5 24t10.5 35l88 415q15 70 -8.5 105t-95.5 35
q-28 0 -53 -8.5t-46 -22.5t-38 -32t-28 -38q-15 -25 -21.5 -48t-12.5 -50z" />
    <glyph glyph-name="Omacron" unicode="&#x14c;" horiz-adv-x="778" 
d="M129 359q17 79 53 148t89 120.5t121.5 81.5t149.5 30q84 0 141 -29.5t88.5 -81t38.5 -121t-10 -148.5q-17 -78 -53 -146.5t-89 -120t-122.5 -81.5t-152.5 -30t-139.5 30t-87.5 81.5t-37.5 120t10.5 146.5zM397 39q70 0 126 26.5t98 70.5t69.5 102t41.5 121
q16 75 10 134.5t-32 101.5t-71.5 64t-107.5 22q-69 0 -125 -27t-98 -71.5t-70 -102.5t-41 -121q-14 -64 -10.5 -122t26.5 -102t68 -70t116 -26zM417 834h296l-10 -45h-296z" />
    <glyph glyph-name="omacron" unicode="&#x14d;" 
d="M275 -14q-50 1 -90 18t-65.5 51t-33.5 85t7 119q12 57 37.5 106.5t63 86.5t87.5 58.5t110 21.5q61 0 101 -21.5t62.5 -58t26.5 -86.5t-8 -107q-14 -62 -41.5 -112t-66.5 -86t-87.5 -55.5t-102.5 -19.5zM509 259q9 46 7.5 86t-16 69.5t-44 46.5t-77.5 17
q-47 0 -84.5 -18.5t-65 -49t-46 -70t-26.5 -81.5q-11 -48 -8 -88.5t19 -69.5t45.5 -45t72.5 -16q47 0 84.5 18.5t65 49.5t46 70t27.5 81zM263 627h296l-10 -45h-296z" />
    <glyph glyph-name="Obreve" unicode="&#x14e;" horiz-adv-x="778" 
d="M129 359q17 79 53 148t89 120.5t121.5 81.5t149.5 30q84 0 141 -29.5t88.5 -81t38.5 -121t-10 -148.5q-17 -78 -53 -146.5t-89 -120t-122.5 -81.5t-152.5 -30t-139.5 30t-87.5 81.5t-37.5 120t10.5 146.5zM397 39q70 0 126 26.5t98 70.5t69.5 102t41.5 121
q16 75 10 134.5t-32 101.5t-71.5 64t-107.5 22q-69 0 -125 -27t-98 -71.5t-70 -102.5t-41 -121q-14 -64 -10.5 -122t26.5 -102t68 -70t116 -26zM477 915q-1 -42 22.5 -61.5t65.5 -19.5t73 19.5t51 61.5h37q-20 -63 -67 -94.5t-109 -31.5q-60 0 -90 33t-22 93h39z" />
    <glyph glyph-name="obreve" unicode="&#x14f;" 
d="M275 -14q-50 1 -90 18t-65.5 51t-33.5 85t7 119q12 57 37.5 106.5t63 86.5t87.5 58.5t110 21.5q61 0 101 -21.5t62.5 -58t26.5 -86.5t-8 -107q-14 -62 -41.5 -112t-66.5 -86t-87.5 -55.5t-102.5 -19.5zM509 259q9 46 7.5 86t-16 69.5t-44 46.5t-77.5 17
q-47 0 -84.5 -18.5t-65 -49t-46 -70t-26.5 -81.5q-11 -48 -8 -88.5t19 -69.5t45.5 -45t72.5 -16q47 0 84.5 18.5t65 49.5t46 70t27.5 81zM323 708q-1 -42 22.5 -61.5t65.5 -19.5t73 19.5t51 61.5h37q-20 -63 -67 -94.5t-109 -31.5q-60 0 -90 33t-22 93h39z" />
    <glyph glyph-name="Ohungarumlaut" unicode="&#x150;" horiz-adv-x="778" 
d="M129 359q17 79 53 148t89 120.5t121.5 81.5t149.5 30q84 0 141 -29.5t88.5 -81t38.5 -121t-10 -148.5q-17 -78 -53 -146.5t-89 -120t-122.5 -81.5t-152.5 -30t-139.5 30t-87.5 81.5t-37.5 120t10.5 146.5zM397 39q70 0 126 26.5t98 70.5t69.5 102t41.5 121
q16 75 10 134.5t-32 101.5t-71.5 64t-107.5 22q-69 0 -125 -27t-98 -71.5t-70 -102.5t-41 -121q-14 -64 -10.5 -122t26.5 -102t68 -70t116 -26zM380 789l141 139h77l-167 -139h-51zM542 789l141 139h77l-167 -139h-51z" />
    <glyph glyph-name="ohungarumlaut" unicode="&#x151;" 
d="M275 -14q-50 1 -90 18t-65.5 51t-33.5 85t7 119q12 57 37.5 106.5t63 86.5t87.5 58.5t110 21.5q61 0 101 -21.5t62.5 -58t26.5 -86.5t-8 -107q-14 -62 -41.5 -112t-66.5 -86t-87.5 -55.5t-102.5 -19.5zM509 259q9 46 7.5 86t-16 69.5t-44 46.5t-77.5 17
q-47 0 -84.5 -18.5t-65 -49t-46 -70t-26.5 -81.5q-11 -48 -8 -88.5t19 -69.5t45.5 -45t72.5 -16q47 0 84.5 18.5t65 49.5t46 70t27.5 81zM226 582l141 139h77l-167 -139h-51zM388 582l141 139h77l-167 -139h-51z" />
    <glyph glyph-name="OE" unicode="&#x152;" horiz-adv-x="1000" 
d="M653 498q19 90 -24.5 136.5t-137.5 46.5q-114 0 -192.5 -80.5t-112.5 -239.5q-15 -71 -13.5 -130t22 -101.5t61.5 -66.5t106 -24q38 0 80 15t76 39q36 26 52 57.5t24 70.5zM565 72q-21 -18 -44.5 -34.5t-50.5 -29t-58 -20t-67 -7.5q-83 0 -134.5 31.5t-77.5 84
t-28.5 120.5t12.5 142q17 78 49.5 147.5t80.5 121t112 81.5t144 30q64 0 112.5 -19t71.5 -76l16 76h407l-12 -58h-342l-56 -260h320l-12 -58h-320l-61 -286h352l-12 -58h-417z" />
    <glyph glyph-name="oe" unicode="&#x153;" horiz-adv-x="944" 
d="M563 245q-9 -28 -9 -63.5t14.5 -67t45 -53t81.5 -21.5q57 0 104.5 33t70.5 87h61q-36 -85 -102 -129.5t-148 -44.5q-74 0 -118 36t-60 90q-45 -63 -107.5 -94.5t-131.5 -31.5q-52 0 -90.5 19t-61 54.5t-28.5 86t7 112.5q12 57 36 106.5t61 87t85.5 59t110.5 21.5
q73 0 118 -29.5t64 -95.5q46 63 102.5 94t128.5 31q68 0 106 -24t53.5 -63.5t13.5 -91.5t-14 -108h-393zM153 249q-9 -42 -6.5 -80t18 -66.5t44 -45.5t72.5 -17q43 0 79 17t64.5 47t48.5 72t31 93q10 45 6.5 83.5t-20 66.5t-47 43.5t-75.5 15.5q-41 0 -76 -16t-62.5 -45.5
t-47 -72t-29.5 -95.5zM903 295q8 39 6 72.5t-16 58t-41 38.5t-69 14q-38 0 -72 -14.5t-61 -39.5t-46.5 -58.5t-29.5 -70.5h329z" />
    <glyph glyph-name="Racute" unicode="&#x154;" horiz-adv-x="667" 
d="M441 385q38 0 72.5 8t62 25.5t47.5 44.5t28 65q8 40 -1 66t-30 41t-51.5 21t-64.5 6h-216l-59 -277h212zM217 327l-69 -327h-68l153 720h282q119 0 172.5 -44.5t31.5 -144.5q-14 -68 -50 -108t-104 -68q30 -11 43.5 -32t16.5 -48t-1 -57t-8 -58q-8 -41 -11.5 -68
t-3.5 -44t3 -26.5t9 -14.5l-1 -7h-75q-8 18 -5.5 50t7.5 67t10.5 68t5.5 54q0 29 -9.5 46.5t-26.5 26.5t-40 12t-48 3h-214zM417 770l141 139h77l-167 -139h-51z" />
    <glyph glyph-name="racute" unicode="&#x155;" horiz-adv-x="333" 
d="M135 0h-60l110 518h60l-21 -97h2q38 62 83 86.5t110 24.5l-14 -65q-51 1 -87.5 -16t-62.5 -46t-41.5 -68.5t-25.5 -82.5zM221 582l141 139h77l-167 -139h-51z" />
    <glyph glyph-name="Rcommaaccent" unicode="&#x156;" horiz-adv-x="667" 
d="M441 385q38 0 72.5 8t62 25.5t47.5 44.5t28 65q8 40 -1 66t-30 41t-51.5 21t-64.5 6h-216l-59 -277h212zM217 327l-69 -327h-68l153 720h282q119 0 172.5 -44.5t31.5 -144.5q-14 -68 -50 -108t-104 -68q30 -11 43.5 -32t16.5 -48t-1 -57t-8 -58q-8 -41 -11.5 -68
t-3.5 -44t3 -26.5t9 -14.5l-1 -7h-75q-8 18 -5.5 50t7.5 67t10.5 68t5.5 54q0 29 -9.5 46.5t-26.5 26.5t-40 12t-48 3h-214zM354 -127q-10 -44 -36 -70.5t-60 -36.5l8 37q13 8 27 22t21 44l7 34h-34l19 88h73z" />
    <glyph glyph-name="rcommaaccent" unicode="&#x157;" horiz-adv-x="333" 
d="M135 0h-60l110 518h60l-21 -97h2q38 62 83 86.5t110 24.5l-14 -65q-51 1 -87.5 -16t-62.5 -46t-41.5 -68.5t-25.5 -82.5zM198 -127q-10 -44 -36 -70.5t-60 -36.5l8 37q13 8 27 22t21 44l7 34h-34l19 88h73z" />
    <glyph glyph-name="Rcaron" unicode="&#x158;" horiz-adv-x="667" 
d="M441 385q38 0 72.5 8t62 25.5t47.5 44.5t28 65q8 40 -1 66t-30 41t-51.5 21t-64.5 6h-216l-59 -277h212zM217 327l-69 -327h-68l153 720h282q119 0 172.5 -44.5t31.5 -144.5q-14 -68 -50 -108t-104 -68q30 -11 43.5 -32t16.5 -48t-1 -57t-8 -58q-8 -41 -11.5 -68
t-3.5 -44t3 -26.5t9 -14.5l-1 -7h-75q-8 18 -5.5 50t7.5 67t10.5 68t5.5 54q0 29 -9.5 46.5t-26.5 26.5t-40 12t-48 3h-214zM623 909h65l-143 -139h-67l-84 139h65l60 -102z" />
    <glyph glyph-name="rcaron" unicode="&#x159;" horiz-adv-x="333" 
d="M135 0h-60l110 518h60l-21 -97h2q38 62 83 86.5t110 24.5l-14 -65q-51 1 -87.5 -16t-62.5 -46t-41.5 -68.5t-25.5 -82.5zM427 721h65l-143 -139h-67l-84 139h65l60 -102z" />
    <glyph glyph-name="Sacute" unicode="&#x15a;" horiz-adv-x="611" 
d="M154 215q-6 -48 4.5 -81.5t33.5 -54.5t57 -30.5t75 -9.5q48 0 85.5 12t64 32.5t42.5 47.5t22 57q9 42 -4.5 68t-40.5 42.5t-64 26.5t-76.5 19.5t-76.5 22.5t-62.5 35t-37.5 56.5t0 87.5q7 37 30 72t59.5 62t86 43t109.5 16q61 0 102.5 -17t65.5 -46.5t30.5 -68.5
t-2.5 -83h-65q9 41 0.5 71t-29.5 49t-51 28t-64 9q-52 0 -90.5 -14.5t-64.5 -37.5t-40 -51t-15 -56q-1 -35 16.5 -56t46.5 -34.5t66 -22t75 -18t72.5 -22.5t59 -35t34.5 -56.5t-1 -86.5q-21 -100 -102 -155t-206 -55q-56 0 -100.5 14.5t-73.5 44t-39 73t2 102.5h66zM380 789
l141 139h77l-167 -139h-51z" />
    <glyph glyph-name="sacute" unicode="&#x15b;" horiz-adv-x="500" 
d="M141 162q0 -67 30.5 -94.5t98.5 -27.5q33 0 58.5 8t44 21.5t30 30.5t15.5 36q8 38 -12.5 56.5t-55 29t-76 18t-75.5 22.5t-52.5 43t-7.5 79q14 65 70.5 106.5t143.5 41.5q84 0 128.5 -37.5t36.5 -125.5h-61q5 60 -27.5 84.5t-89.5 24.5t-92 -24.5t-44 -64.5
q-7 -35 13.5 -53.5t55 -30t75.5 -20.5t74.5 -25.5t52 -44.5t8.5 -78q-8 -37 -30 -65.5t-54 -47.5t-72.5 -28.5t-86.5 -9.5t-79 13.5t-53 37.5t-27 56t-1 69h61zM281 582l141 139h77l-167 -139h-51z" />
    <glyph glyph-name="Scircumflex" unicode="&#x15c;" horiz-adv-x="611" 
d="M154 215q-6 -48 4.5 -81.5t33.5 -54.5t57 -30.5t75 -9.5q48 0 85.5 12t64 32.5t42.5 47.5t22 57q9 42 -4.5 68t-40.5 42.5t-64 26.5t-76.5 19.5t-76.5 22.5t-62.5 35t-37.5 56.5t0 87.5q7 37 30 72t59.5 62t86 43t109.5 16q61 0 102.5 -17t65.5 -46.5t30.5 -68.5
t-2.5 -83h-65q9 41 0.5 71t-29.5 49t-51 28t-64 9q-52 0 -90.5 -14.5t-64.5 -37.5t-40 -51t-15 -56q-1 -35 16.5 -56t46.5 -34.5t66 -22t75 -18t72.5 -22.5t59 -35t34.5 -56.5t-1 -86.5q-21 -100 -102 -155t-206 -55q-56 0 -100.5 14.5t-73.5 44t-39 73t2 102.5h66zM390 789
h-65l144 139h67l83 -139h-65l-60 102z" />
    <glyph glyph-name="scircumflex" unicode="&#x15d;" horiz-adv-x="500" 
d="M141 162q0 -67 30.5 -94.5t98.5 -27.5q33 0 58.5 8t44 21.5t30 30.5t15.5 36q8 38 -12.5 56.5t-55 29t-76 18t-75.5 22.5t-52.5 43t-7.5 79q14 65 70.5 106.5t143.5 41.5q84 0 128.5 -37.5t36.5 -125.5h-61q5 60 -27.5 84.5t-89.5 24.5t-92 -24.5t-44 -64.5
q-7 -35 13.5 -53.5t55 -30t75.5 -20.5t74.5 -25.5t52 -44.5t8.5 -78q-8 -37 -30 -65.5t-54 -47.5t-72.5 -28.5t-86.5 -9.5t-79 13.5t-53 37.5t-27 56t-1 69h61zM291 582h-65l144 139h67l83 -139h-65l-60 102z" />
    <glyph glyph-name="Scedilla" unicode="&#x15e;" horiz-adv-x="611" 
d="M154 215q-6 -48 4.5 -81.5t33.5 -54.5t57 -30.5t75 -9.5q48 0 85.5 12t64 32.5t42.5 47.5t22 57q9 42 -4.5 68t-40.5 42.5t-64 26.5t-76.5 19.5t-76.5 22.5t-62.5 35t-37.5 56.5t0 87.5q7 37 30 72t59.5 62t86 43t109.5 16q61 0 102.5 -17t65.5 -46.5t30.5 -68.5
t-2.5 -83h-65q9 41 0.5 71t-29.5 49t-51 28t-64 9q-52 0 -90.5 -14.5t-64.5 -37.5t-40 -51t-15 -56q-1 -35 16.5 -56t46.5 -34.5t66 -22t75 -18t72.5 -22.5t59 -35t34.5 -56.5t-1 -86.5q-21 -100 -102 -155t-206 -55q-56 0 -100.5 14.5t-73.5 44t-39 73t2 102.5h66z
M171 -177q15 -5 29.5 -10t31.5 -5q11 0 23 2.5t23 8t19 14.5t11 22q4 20 -9.5 29.5t-32.5 9.5q-11 0 -22.5 -2.5t-23.5 -5.5l-12 13l77 82h39l-59 -59q9 2 18.5 4t18.5 2q33 0 50 -16.5t16 -35.5q-1 -27 -12.5 -46.5t-30 -31.5t-42 -18t-47.5 -6q-23 0 -44.5 5.5t-41.5 13.5
z" />
    <glyph glyph-name="scedilla" unicode="&#x15f;" horiz-adv-x="500" 
d="M141 162q0 -67 30.5 -94.5t98.5 -27.5q33 0 58.5 8t44 21.5t30 30.5t15.5 36q8 38 -12.5 56.5t-55 29t-76 18t-75.5 22.5t-52.5 43t-7.5 79q14 65 70.5 106.5t143.5 41.5q84 0 128.5 -37.5t36.5 -125.5h-61q5 60 -27.5 84.5t-89.5 24.5t-92 -24.5t-44 -64.5
q-7 -35 13.5 -53.5t55 -30t75.5 -20.5t74.5 -25.5t52 -44.5t8.5 -78q-8 -37 -30 -65.5t-54 -47.5t-72.5 -28.5t-86.5 -9.5t-79 13.5t-53 37.5t-27 56t-1 69h61zM117 -172q15 -5 29.5 -10t31.5 -5q11 0 23 2.5t23 8t19 14.5t11 22q4 20 -9.5 29.5t-32.5 9.5q-11 0 -22.5 -2.5
t-23.5 -5.5l-12 13l78 82h39l-60 -59q9 2 18.5 4t18.5 2q33 0 50 -16.5t16 -35.5q-1 -27 -12.5 -46.5t-30 -31.5t-41.5 -18t-47 -6q-23 0 -45 5.5t-42 13.5z" />
    <glyph glyph-name="Scaron" unicode="&#x160;" horiz-adv-x="611" 
d="M155 215q-6 -48 4 -81.5t33 -54.5t57 -30.5t75 -9.5q48 0 85.5 12t64 32.5t43 47.5t22.5 57q9 42 -4.5 68t-41 42.5t-64.5 26.5t-76 19.5t-76 22.5t-63 35t-37.5 56.5t-0.5 87.5q8 37 31 72t59 62t85.5 43t109.5 16q61 0 102.5 -17t65.5 -46.5t31 -68.5t-3 -83h-65
q9 41 0.5 71t-28.5 49t-50.5 28t-64.5 9q-52 0 -90.5 -14.5t-64.5 -37.5t-40 -51t-15 -56q-2 -35 15.5 -56t46.5 -34.5t66 -22t75 -18t73 -22.5t59 -35t34.5 -56.5t-0.5 -86.5q-21 -100 -102 -155t-206 -55q-56 0 -101 14.5t-73.5 44t-38.5 73t2 102.5h66zM586 915h65
l-142 -139h-67l-85 139h65l61 -102z" />
    <glyph glyph-name="scaron" unicode="&#x161;" horiz-adv-x="500" 
d="M141 162q1 -67 31.5 -94.5t98.5 -27.5q33 0 58.5 8t44 21.5t30 30.5t15.5 36q8 38 -12.5 56.5t-55.5 29t-76 18t-75 22.5t-52.5 43t-7.5 79q14 65 70 106.5t143 41.5q84 0 128 -37.5t37 -125.5h-61q4 60 -28 84.5t-88 24.5q-57 0 -92.5 -24.5t-43.5 -64.5q-6 -26 5 -43
t32 -28t49 -18.5t57.5 -15t57 -17.5t47.5 -26.5t29 -41.5t1 -62t-29.5 -65.5t-54 -47.5t-73 -28.5t-86.5 -9.5t-78.5 13.5t-52.5 37.5t-27.5 56t-1.5 69h61zM489 713h65l-143 -139h-67l-84 139h65l60 -102z" />
    <glyph glyph-name="Tcedilla" unicode="&#x162;" 
d="M169 720h524l-13 -58h-228l-140 -662h-68l140 662h-228zM148 -158q15 -5 29.5 -10t31.5 -5q11 0 23 2.5t23 8t19 14.5t11 22q4 20 -9.5 29.5t-32.5 9.5q-11 0 -22.5 -2.5t-23.5 -5.5l-12 13l78 82h39l-60 -59q9 2 18.5 4t18.5 2q33 0 50 -16.5t16 -35.5
q-1 -27 -12.5 -46.5t-30 -31.5t-41.5 -18t-47 -6q-23 0 -45 5.5t-42 13.5z" />
    <glyph glyph-name="tcedilla" unicode="&#x163;" horiz-adv-x="278" 
d="M253 -2q-11 -2 -30 -7t-41 -5q-45 0 -64 22.5t-7 80.5l81 379h-73l11 50h73l30 144h60l-30 -144h97l-11 -50h-97l-75 -355q-5 -19 -6.5 -33t1.5 -23t12.5 -13t28.5 -4q12 0 25 2t25 5zM4 -172q15 -5 29.5 -10t31.5 -5q11 0 23 2.5t23 8t19 14.5t11 22q4 20 -9.5 29.5
t-32.5 9.5q-11 0 -22.5 -2.5t-23.5 -5.5l-12 13l78 82h39l-60 -59q9 2 18.5 4t18.5 2q33 0 50 -16.5t16 -35.5q-1 -27 -12.5 -46.5t-30 -31.5t-41.5 -18t-47 -6q-23 0 -45 5.5t-41 13.5z" />
    <glyph glyph-name="Tcaron" unicode="&#x164;" 
d="M169 720h524l-13 -58h-228l-140 -662h-68l140 662h-228zM555 909h65l-143 -139h-67l-84 139h65l60 -102z" />
    <glyph glyph-name="tcaron" unicode="&#x165;" horiz-adv-x="500" 
d="M253 -2q-11 -2 -30 -7t-41 -5q-45 0 -64 22.5t-7 80.5l81 379h-73l11 50h73l30 144h60l-30 -144h97l-11 -50h-97l-75 -355q-5 -19 -6.5 -33t1.5 -23t12.5 -13t28.5 -4q12 0 25 2t25 5zM558 602q-9 -44 -35 -70.5t-60 -36.5l8 37q13 8 27 22t21 44l7 34h-34l19 88h73z" />
    <glyph glyph-name="Tbar" unicode="&#x166;" 
d="M214 396l10 50h114l46 216h-228l13 58h524l-13 -58h-228l-46 -216h108l-10 -50h-108l-84 -396h-68l84 396h-114z" />
    <glyph glyph-name="tbar" unicode="&#x167;" horiz-adv-x="278" 
d="M82 296l11 50h73l26 122h-73l11 50h73l30 144h60l-30 -144h97l-11 -50h-97l-26 -122h97l-11 -50h-97l-38 -183q-5 -19 -6.5 -33t1.5 -23t12.5 -13t28.5 -4q12 0 25 2t25 5l-10 -49q-11 -2 -30 -7t-41 -5q-45 0 -64 22.5t-7 80.5l44 207h-73z" />
    <glyph glyph-name="Utilde" unicode="&#x168;" horiz-adv-x="722" 
d="M235 720h68l-92 -429q-28 -134 9.5 -193t148.5 -59q58 0 101.5 15.5t75.5 47t53 78.5t34 111l92 429h68l-96 -449q-30 -141 -115.5 -215.5t-225.5 -74.5q-141 0 -193.5 76t-23.5 214zM373 770q6 18 14 32.5t19 26.5q19 21 45 31.5t50 4.5q14 -3 28.5 -10t29.5 -14.5
t29 -13t27 -5.5q22 0 34.5 16t20.5 34h38q-3 -10 -7.5 -19.5t-8.5 -18.5q-16 -24 -37 -42t-50 -18q-21 0 -38 7t-33 15.5t-32 15.5t-33 7q-23 0 -36.5 -15t-23.5 -34h-36z" />
    <glyph glyph-name="utilde" unicode="&#x169;" 
d="M533 518h60l-110 -518h-60l15 72q-15 -14 -33.5 -29t-40.5 -27.5t-49.5 -21t-61.5 -8.5q-52 0 -84 14.5t-48 40.5t-18.5 60.5t6.5 75.5l73 341h60l-73 -340q-14 -67 9.5 -102.5t94.5 -35.5q37 0 69.5 14.5t58 40.5t44.5 62t28 79zM246 568q6 18 14 32.5t19 26.5
q19 21 45 31.5t50 4.5q14 -3 28.5 -10t29.5 -14.5t29 -13t27 -5.5q22 0 34.5 16t20.5 34h38q-3 -10 -7.5 -19.5t-8.5 -18.5q-16 -24 -37 -42t-50 -18q-21 0 -38 7t-33 15.5t-32 15.5t-33 7q-23 0 -36.5 -15t-23.5 -34h-36z" />
    <glyph glyph-name="Umacron" unicode="&#x16a;" horiz-adv-x="722" 
d="M235 720h68l-92 -429q-28 -134 9.5 -193t148.5 -59q58 0 101.5 15.5t75.5 47t53 78.5t34 111l92 429h68l-96 -449q-30 -141 -115.5 -215.5t-225.5 -74.5q-141 0 -193.5 76t-23.5 214zM386 815h296l-10 -45h-296z" />
    <glyph glyph-name="umacron" unicode="&#x16b;" 
d="M533 518h60l-110 -518h-60l15 72q-15 -14 -33.5 -29t-40.5 -27.5t-49.5 -21t-61.5 -8.5q-52 0 -84 14.5t-48 40.5t-18.5 60.5t6.5 75.5l73 341h60l-73 -340q-14 -67 9.5 -102.5t94.5 -35.5q37 0 69.5 14.5t58 40.5t44.5 62t28 79zM259 613h296l-10 -45h-296z" />
    <glyph glyph-name="Ubreve" unicode="&#x16c;" horiz-adv-x="722" 
d="M235 720h68l-92 -429q-28 -134 9.5 -193t148.5 -59q58 0 101.5 15.5t75.5 47t53 78.5t34 111l92 429h68l-96 -449q-30 -141 -115.5 -215.5t-225.5 -74.5q-141 0 -193.5 76t-23.5 214zM446 896q-1 -42 22.5 -61.5t65.5 -19.5t73 19.5t51 61.5h37q-20 -63 -67 -94.5
t-109 -31.5q-60 0 -90 33t-22 93h39z" />
    <glyph glyph-name="ubreve" unicode="&#x16d;" 
d="M533 518h60l-110 -518h-60l15 72q-15 -14 -33.5 -29t-40.5 -27.5t-49.5 -21t-61.5 -8.5q-52 0 -84 14.5t-48 40.5t-18.5 60.5t6.5 75.5l73 341h60l-73 -340q-14 -67 9.5 -102.5t94.5 -35.5q37 0 69.5 14.5t58 40.5t44.5 62t28 79zM319 694q-1 -42 22.5 -61.5t65.5 -19.5
t73 19.5t51 61.5h37q-20 -63 -67 -94.5t-109 -31.5q-60 0 -90 33t-22 93h39z" />
    <glyph glyph-name="Uring" unicode="&#x16e;" horiz-adv-x="722" 
d="M235 720h68l-92 -429q-28 -134 9.5 -193t148.5 -59q58 0 101.5 15.5t75.5 47t53 78.5t34 111l92 429h68l-96 -449q-30 -141 -115.5 -215.5t-225.5 -74.5q-141 0 -193.5 76t-23.5 214zM531 770q-20 0 -36.5 8t-27.5 21.5t-15 31.5t0 38t16 38t29 32t36.5 22t39.5 8
t36.5 -8t27 -22t14.5 -32t0 -38t-16 -38t-28 -31.5t-36 -21.5t-40 -8zM538 803q26 0 50.5 20t29.5 46q6 26 -9.5 46.5t-42.5 20.5t-51 -20t-30 -47t10.5 -46.5t42.5 -19.5z" />
    <glyph glyph-name="uring" unicode="&#x16f;" 
d="M533 518h60l-110 -518h-60l15 72q-15 -14 -33.5 -29t-40.5 -27.5t-49.5 -21t-61.5 -8.5q-52 0 -84 14.5t-48 40.5t-18.5 60.5t6.5 75.5l73 341h60l-73 -340q-14 -67 9.5 -102.5t94.5 -35.5q37 0 69.5 14.5t58 40.5t44.5 62t28 79zM404 568q-20 0 -36.5 8t-27.5 21.5
t-15 31.5t0 38q5 20 16.5 38t28.5 32t37 22t40 8t36 -8t26.5 -22t15 -32t-0.5 -38q-4 -20 -16 -38t-28 -31.5t-36 -21.5t-40 -8zM411 601q26 0 50.5 20t29.5 46q6 26 -9 46.5t-42 20.5t-51.5 -20t-30.5 -47q-5 -27 11 -46.5t42 -19.5z" />
    <glyph glyph-name="Uhungarumlaut" unicode="&#x170;" horiz-adv-x="722" 
d="M235 720h68l-92 -429q-28 -134 9.5 -193t148.5 -59q58 0 101.5 15.5t75.5 47t53 78.5t34 111l92 429h68l-96 -449q-30 -141 -115.5 -215.5t-225.5 -74.5q-141 0 -193.5 76t-23.5 214zM349 770l141 139h77l-167 -139h-51zM511 770l141 139h77l-167 -139h-51z" />
    <glyph glyph-name="uhungarumlaut" unicode="&#x171;" 
d="M533 518h60l-110 -518h-60l15 72q-15 -14 -33.5 -29t-40.5 -27.5t-49.5 -21t-61.5 -8.5q-52 0 -84 14.5t-48 40.5t-18.5 60.5t6.5 75.5l73 341h60l-73 -340q-14 -67 9.5 -102.5t94.5 -35.5q37 0 69.5 14.5t58 40.5t44.5 62t28 79zM222 568l141 139h77l-167 -139h-51z
M384 568l141 139h77l-167 -139h-51z" />
    <glyph glyph-name="Uogonek" unicode="&#x172;" horiz-adv-x="722" 
d="M235 720h68l-92 -429q-28 -134 9.5 -193t148.5 -59q58 0 101.5 15.5t75.5 47t53 78.5t34 111l92 429h68l-96 -449q-30 -141 -115.5 -215.5t-225.5 -74.5q-141 0 -193.5 76t-23.5 214zM404 -19v-2q-13 -6 -29 -14.5t-30.5 -20t-25 -24.5t-13.5 -28q-7 -29 10.5 -43
t43.5 -14q21 0 44 9l-9 -44q-28 -9 -54 -9q-20 0 -37 5.5t-29 16.5t-17 27.5t0 37.5q7 35 35.5 61.5t60.5 41.5h50z" />
    <glyph glyph-name="uogonek" unicode="&#x173;" 
d="M533 518h60l-110 -518h-60l15 72q-15 -14 -33.5 -29t-40.5 -27.5t-49.5 -21t-61.5 -8.5q-52 0 -84 14.5t-48 40.5t-18.5 60.5t6.5 75.5l73 341h60l-73 -340q-14 -67 9.5 -102.5t94.5 -35.5q37 0 69.5 14.5t58 40.5t44.5 62t28 79zM322 -14l-1 -2q-13 -6 -29 -14.5
t-30.5 -20t-25 -24.5t-13.5 -28q-7 -29 10.5 -43t43.5 -14q21 0 44 9l-9 -44q-28 -9 -54 -9q-20 0 -37 5.5t-29 16.5t-17 27.5t0 37.5q7 35 35.5 61.5t61.5 41.5h50z" />
    <glyph glyph-name="Wcircumflex" unicode="&#x174;" horiz-adv-x="889" 
d="M666 96h2l290 624h70l-342 -720h-75l-32 636h-2l-302 -636h-75l-33 720h68l22 -624h2l300 624h76zM525 770h-65l144 139h67l83 -139h-65l-60 102z" />
    <glyph glyph-name="wcircumflex" unicode="&#x175;" horiz-adv-x="722" 
d="M527 80l229 438h61l-278 -518h-64l-21 435h-2l-207 -435h-72l-48 518h60l40 -442l214 442h67zM399 568h-65l144 139h67l83 -139h-65l-60 102z" />
    <glyph glyph-name="Ycircumflex" unicode="&#x176;" horiz-adv-x="611" 
d="M381 373l291 347h79l-348 -406l-66 -314h-68l65 309l-169 411h78zM386 770h-65l144 139h67l83 -139h-65l-60 102z" />
    <glyph glyph-name="ycircumflex" unicode="&#x177;" horiz-adv-x="500" 
d="M38 -141q11 -2 23 -4t25 -2q25 0 44.5 16t35 38.5t27.5 47t25 41.5l-90 522h67l71 -445l261 445h65l-302 -511q-28 -49 -53 -88t-49.5 -66.5t-50 -42t-56.5 -14.5q-16 0 -30 2t-25 5zM288 568h-65l144 139h67l83 -139h-65l-60 102z" />
    <glyph glyph-name="Ydieresis" unicode="&#x178;" horiz-adv-x="611" 
d="M381 373l291 347h79l-347 -406l-67 -314h-68l66 309l-170 411h78zM388 888h65l-22 -102h-65zM547 888h65l-22 -102h-65z" />
    <glyph glyph-name="Zacute" unicode="&#x179;" horiz-adv-x="611" 
d="M31 0l12 57l589 605h-422l13 58h506l-13 -57l-589 -605h464l-12 -58h-548zM376 770l141 139h77l-167 -139h-51z" />
    <glyph glyph-name="zacute" unicode="&#x17a;" horiz-adv-x="500" 
d="M33 0l11 53l432 415h-321l11 50h398l-12 -53l-432 -415h357l-10 -50h-434zM278 568l141 139h77l-167 -139h-51z" />
    <glyph glyph-name="Zdotaccent" unicode="&#x17b;" horiz-adv-x="611" 
d="M31 0l12 57l589 605h-422l13 58h506l-13 -57l-589 -605h464l-12 -58h-548zM457 872h65l-22 -102h-65z" />
    <glyph glyph-name="zdotaccent" unicode="&#x17c;" horiz-adv-x="500" 
d="M33 0l11 53l432 415h-321l11 50h398l-12 -53l-432 -415h357l-10 -50h-434zM359 670h65l-22 -102h-65z" />
    <glyph glyph-name="Zcaron" unicode="&#x17d;" horiz-adv-x="611" 
d="M31 0l12 57l590 605h-422l12 58h506l-12 -57l-590 -605h464l-12 -58h-548zM586 915h65l-142 -139h-67l-85 139h65l61 -102z" />
    <glyph glyph-name="zcaron" unicode="&#x17e;" horiz-adv-x="500" 
d="M33 0l11 53l432 415h-321l11 50h398l-11 -53l-432 -415h357l-11 -50h-434zM489 713h65l-143 -139h-67l-84 139h65l60 -102z" />
    <glyph glyph-name="longs" unicode="&#x17f;" horiz-adv-x="278" 
d="M119 468l11 50h77l18 82q13 62 45.5 98t92.5 36q29 0 49 -4l-12 -55q-18 5 -34 5q-23 0 -38 -8.5t-24 -22.5t-14 -31.5t-9 -35.5l-124 -582h-60l99 468h-77z" />
    <glyph glyph-name="uni0180" unicode="&#x180;" horiz-adv-x="611" 
d="M248 648l16 72h60l-16 -72h113l-10 -46h-113l-35 -167q39 48 95 72.5t111 24.5q59 0 97.5 -22.5t59 -60t24 -87.5t-8.5 -104q-12 -57 -35.5 -107t-60 -86.5t-84.5 -57.5t-111 -21q-25 0 -49.5 7t-46.5 20t-38.5 32.5t-23.5 45.5h-2l-19 -91h-60l127 602h-72l10 46h72z
M226 261q-10 -47 -7 -87.5t18.5 -70t45 -46.5t71.5 -17q38 0 73 13.5t64.5 39.5t51 63.5t31.5 86.5q13 49 12 91.5t-16.5 74.5t-45.5 50.5t-77 18.5q-41 0 -77 -17.5t-65 -47t-49.5 -69t-29.5 -83.5z" />
    <glyph glyph-name="uni0186" unicode="&#x186;" horiz-adv-x="722" 
d="M170 209q1 -92 50 -131t141 -39q65 0 117.5 26t92.5 70t66.5 101.5t40.5 121.5q12 60 12 118t-19.5 103.5t-62.5 73.5t-117 28q-46 0 -87 -15t-75 -41.5t-61.5 -62.5t-46.5 -79h-71q23 52 56 98.5t78 81.5t103 55.5t130 20.5q83 0 135.5 -30.5t79 -82.5t28.5 -120.5
t-14 -145.5q-22 -103 -62.5 -175t-95.5 -117.5t-120.5 -66t-137.5 -20.5q-55 0 -99 14.5t-74.5 43.5t-45 71.5t-11.5 98.5h70z" />
    <glyph glyph-name="uni0189" unicode="&#x189;" horiz-adv-x="722" 
d="M236 411h161l-12 -58h-161l-63 -295h163q46 0 87.5 5.5t88.5 27.5q40 18 69.5 49t50.5 67.5t35 76.5t22 77q9 39 12.5 79.5t-3 77t-24 67t-51.5 50.5q-28 17 -71 22t-88 5h-163zM234 720h246q30 0 58.5 -1.5t55.5 -7t51 -16.5t45 -29q31 -26 46 -63.5t19.5 -79t1 -84
t-11.5 -78.5q-7 -36 -19.5 -73t-30 -72.5t-41 -68t-54.5 -59.5q-31 -28 -64 -45t-67.5 -26.5t-70 -13t-71.5 -3.5h-246l75 353h-71l12 58h71z" />
    <glyph glyph-name="uni018E" unicode="&#x18e;" horiz-adv-x="611" 
d="M723 720l-153 -720h-479l12 58h411l55 260h-371l12 58h371l61 286h-421l13 58h489z" />
    <glyph glyph-name="uni018F" unicode="&#x18f;" horiz-adv-x="712" 
d="M493 671q-39 0 -78.5 -13.5t-75 -37t-64.5 -55t-48 -67.5h-68q23 53 60.5 96t84.5 73t98.5 46t102.5 16q88 0 144 -30.5t84.5 -82t32 -119t-12.5 -140.5q-15 -74 -49.5 -141t-86.5 -118t-120.5 -81.5t-152.5 -30.5q-69 0 -121.5 25t-83.5 74.5t-38.5 123t13.5 170.5h575
q9 55 6 108t-24.5 93.5t-64 65.5t-113.5 25zM356 43q65 0 117 23t92.5 62t67.5 89t43 104h-502q-12 -54 -5 -104t30.5 -89t63.5 -62t93 -23z" />
    <glyph glyph-name="florin" unicode="&#x192;" 
d="M660 665q-12 8 -30 13q-8 2 -18.5 2t-25.5 -3q-30 -5 -51.5 -29t-39 -57t-32 -71.5t-30.5 -71.5h115l-10 -48h-123l-135 -336q-22 -53 -46.5 -100t-54.5 -82.5t-67.5 -56.5t-85.5 -21q-14 0 -27.5 3t-24.5 8l31 57q13 -9 22.5 -11t26.5 -2q30 0 56.5 25.5t54 74.5
t57.5 119t65 160l63 162h-113l10 48h121q19 42 40.5 91.5t51 93t69.5 72.5t96 29q20 0 35.5 -5t30.5 -15z" />
    <glyph glyph-name="uni019D" unicode="&#x19d;" horiz-adv-x="722" 
d="M282 628h-2l-148 -697q-7 -33 -15.5 -58t-22.5 -42.5t-36.5 -26t-57.5 -8.5q-22 0 -46 4l11 53q26 -3 42 -0.5t27 11.5t17.5 24t10.5 35l170 797h77l282 -629h2l134 629h68l-153 -720h-79z" />
    <glyph glyph-name="uni019E" unicode="&#x19e;" 
d="M132 0h-60l110 518h60l-16 -72q44 38 88 62t98 24q48 0 85.5 -16.5t56.5 -57.5q13 -28 10 -57.5t-9 -61.5l-113 -529h-60l112 528q15 70 -8.5 105t-95.5 35q-28 0 -53 -8.5t-46 -22.5t-38 -32t-28 -38q-15 -25 -21.5 -48t-12.5 -50z" />
    <glyph glyph-name="uni019F" unicode="&#x19f;" horiz-adv-x="778" 
d="M129 359q17 79 53 148t89 120.5t121.5 81.5t149.5 30q84 0 141 -29.5t88.5 -81t38.5 -121t-10 -148.5q-17 -78 -53 -146.5t-89 -120t-122.5 -81.5t-152.5 -30t-139.5 30t-87.5 81.5t-37.5 120t10.5 146.5zM397 39q70 0 126 26.5t98 70.5t69 102q23 47 36 97h-534
q-8 -51 -6 -98q4 -58 27 -102t68 -70t116 -26zM741 493q-5 60 -31 102t-71.5 64t-107.5 22q-69 0 -125 -27t-98 -71.5t-70 -102.5q-22 -46 -36 -95h534q11 59 5 108z" />
    <glyph glyph-name="Ohorn" unicode="&#x1a0;" horiz-adv-x="857" 
d="M921 717h53l-28 -131q-6 -28 -21.5 -48.5t-36 -34t-46.5 -20.5q-19 -6 -37 -7q1 -56 -12 -117q-17 -78 -53 -146.5t-89 -120t-122.5 -81.5t-152.5 -30t-139.5 30t-87.5 81.5t-37.5 120t10.5 146.5q17 79 53 148t89 120.5t121.5 81.5t149.5 30q84 0 141 -29.5t88 -81.5
q28 -46 37 -107h5q73 0 89 72zM390 39q70 0 126 26.5t98 70.5t69.5 102t41.5 121q16 75 10 134.5t-32 101.5t-71.5 64t-107.5 22q-69 0 -125 -27t-98 -71.5t-70 -102.5t-41 -121q-14 -64 -10.5 -122t26.5 -102t68 -70t116 -26z" />
    <glyph glyph-name="ohorn" unicode="&#x1a1;" horiz-adv-x="680" 
d="M709 537h53l-28 -131q-6 -28 -21.5 -48.5t-36.5 -34t-46 -20.5q-21 -6 -43 -7q-1 -18 -5 -37q-14 -62 -41.5 -112t-66.5 -86t-87.5 -55.5t-102.5 -19.5q-50 1 -90 18t-65.5 51t-33.5 85t7 119q12 57 37.5 106.5t63 86.5t87.5 58.5t110 21.5q61 0 101 -21.5t62.5 -58
t25.5 -86.5q2 -13 2 -25h3q73 0 88 72zM518 259q9 46 7.5 86t-16 69.5t-44 46.5t-77.5 17q-47 0 -84.5 -18.5t-65 -49t-46 -70t-26.5 -81.5q-11 -48 -8 -88.5t19 -69.5t45.5 -45t72.5 -16q47 0 84.5 18.5t65 49.5t46 70t27.5 81z" />
    <glyph glyph-name="uni01A2" unicode="&#x1a2;" horiz-adv-x="713" 
d="M712 656h-68l-137 -645q-66 -25 -139 -25q-84 0 -141.5 30.5t-88.5 81.5t-37.5 118t8.5 141q16 73 51.5 140.5t88 119t122.5 82t154 30.5q58 0 103 -15h164l-192 -904h-68zM380 43q38 0 67 7l131 614q-27 7 -65 7q-71 0 -127.5 -27t-98.5 -71.5t-69.5 -101t-40.5 -114.5
q-12 -59 -8.5 -115t26.5 -100.5t68.5 -71.5t116.5 -27z" />
    <glyph glyph-name="uni01A3" unicode="&#x1a3;" horiz-adv-x="575" 
d="M551 463h-63l-96 -452q-52 -25 -117 -25q-59 0 -100 21.5t-64.5 58.5t-29 86.5t6.5 105.5q12 55 38.5 105t65.5 87t89 59t109 22q24 0 45 -4t39 -11h151l-150 -706h-63zM286 38q13 0 25.5 2t24.5 5l91 426q-20 7 -48 7q-45 0 -83 -19t-67 -50t-49 -70.5t-29 -80.5
q-8 -41 -5 -80.5t19 -70.5t46 -50t75 -19z" />
    <glyph glyph-name="uni01A7" unicode="&#x1a7;" horiz-adv-x="611" 
d="M612 215q-12 -59 -41 -102.5t-70 -73t-92.5 -44t-107.5 -14.5q-125 0 -182 55t-36 155q11 52 36 86.5t58.5 56.5t74 35t82.5 22.5t82 18t75 22t61.5 34.5t39.5 56q11 28 9 56t-18 51t-48.5 37.5t-84.5 14.5q-34 0 -68 -9t-63 -28t-49.5 -49t-29.5 -71h-65q9 44 32.5 83
t59.5 68.5t85.5 46.5t110.5 17q60 0 102.5 -16t67 -43t32.5 -62t1 -72q-12 -53 -38 -87.5t-61.5 -56.5t-77.5 -35t-85.5 -22.5t-85.5 -19.5t-76 -26.5t-58.5 -42.5t-33.5 -68q-6 -30 -1 -57t22.5 -47.5t50 -32.5t80.5 -12q41 0 79 9.5t70 30.5t56.5 54.5t38.5 81.5h66z" />
    <glyph glyph-name="uni01A8" unicode="&#x1a8;" horiz-adv-x="500" 
d="M488 162q-10 -37 -31 -69t-51 -56t-68 -37.5t-84 -13.5t-82.5 9.5t-60.5 28.5t-34 47.5t-2 65.5q10 50 40.5 78t71 44.5t85.5 25.5t84.5 20.5t68 30t35.5 53.5q9 40 -16 64.5t-82 24.5t-99.5 -24.5t-63.5 -84.5h-61q30 88 90.5 125.5t144.5 37.5q87 0 125.5 -41.5
t24.5 -106.5q-11 -51 -41.5 -79t-70.5 -43t-84.5 -22.5t-84 -18t-68 -29t-36.5 -56.5q-4 -19 0.5 -36t17 -30.5t35 -21.5t55.5 -8q68 0 110.5 27.5t70.5 94.5h61z" />
    <glyph glyph-name="Uhorn" unicode="&#x1af;" horiz-adv-x="805" 
d="M874 720h53l-28 -131q-6 -28 -21.5 -48.5t-36.5 -34t-46 -20.5t-49 -7h-30l-44 -208q-30 -141 -115.5 -215.5t-225.5 -74.5q-141 0 -193.5 76t-23.5 214l96 449h68l-92 -429q-28 -134 9.5 -193t148.5 -59q58 0 101.5 15.5t75.5 47t53 78.5t34 111l92 429h68l-42 -196h33
q73 0 88 72z" />
    <glyph glyph-name="uhorn" unicode="&#x1b0;" horiz-adv-x="659" 
d="M682 518h53l-28 -131q-6 -28 -21.5 -48.5t-36.5 -34t-46 -20.5t-49 -7h-27l-58 -277h-60l15 72q-15 -14 -33.5 -29t-40.5 -27.5t-49.5 -21t-61.5 -8.5q-52 0 -84 14.5t-48 40.5t-18.5 60.5t6.5 75.5l73 341h60l-73 -340q-14 -67 9.5 -102.5t94.5 -35.5q37 0 69.5 14.5
t58 40.5t44.5 62t28 79l60 282h60l-42 -196h30q73 0 88 72z" />
    <glyph glyph-name="uni01B5" unicode="&#x1b5;" horiz-adv-x="574" 
d="M17 60l281 280h-156l12 58h201l259 258h-438l12 58h514l-12 -60l-257 -256h164l-12 -58h-210l-282 -282h480l-12 -58h-556z" />
    <glyph glyph-name="uni01B6" unicode="&#x1b6;" horiz-adv-x="463" 
d="M25 51l199 193h-97l12 53h140l171 166h-314l11 53h394l-9 -45l-179 -174h103l-12 -53h-146l-196 -191h355l-11 -53h-431z" />
    <glyph glyph-name="clickdental" unicode="&#x1c0;" horiz-adv-x="402" 
d="M250 0zM301 820v-1093h-51v1093h51z" />
    <glyph glyph-name="clicklateral" unicode="&#x1c1;" horiz-adv-x="804" 
d="M250 0zM301 820v-1093h-51v1093h51zM703 820v-1093h-51v1093h51z" />
    <glyph glyph-name="clickretroflex" unicode="&#x1c3;" horiz-adv-x="333" 
d="M130 0zM235 496l48 224h73l-48 -224l-81 -315h-45zM130 0l19 88h73l-19 -88h-73z" />
    <glyph glyph-name="DZcaron" unicode="&#x1c4;" horiz-adv-x="1333" 
d="M81 0zM81 0l153 720h246q30 0 58.5 -1.5t55.5 -7t51.5 -16.5t45.5 -29q30 -26 45 -63.5t20 -79t1 -84t-11 -78.5q-8 -36 -20 -73t-29.5 -72.5t-41.5 -68t-54 -59.5q-31 -28 -64 -45t-68 -26.5t-70.5 -13t-71.5 -3.5h-246zM161 58h163q46 0 88 5.5t88 27.5q40 18 70 49
t51.5 67.5t35 76.5t21.5 77q8 39 11.5 79.5t-2.5 77t-24 67t-51 50.5q-29 17 -71.5 22t-87.5 5h-163zM753 0l12 57l590 605h-422l12 58h506l-12 -57l-590 -605h464l-12 -58h-548zM1320 912h65l-143 -139h-67l-84 139h65l60 -102z" />
    <glyph glyph-name="Dzcaron" unicode="&#x1c5;" horiz-adv-x="1222" 
d="M81 0zM81 0l153 720h246q30 0 58.5 -1.5t55.5 -7t51.5 -16.5t45.5 -29q30 -26 45 -63.5t20 -79t1 -84t-11 -78.5q-8 -36 -20 -73t-29.5 -72.5t-41.5 -68t-54 -59.5q-31 -28 -64 -45t-68 -26.5t-70.5 -13t-71.5 -3.5h-246zM161 58h163q46 0 88 5.5t88 27.5q40 18 70 49
t51.5 67.5t35 76.5t21.5 77q8 39 11.5 79.5t-2.5 77t-24 67t-51 50.5q-29 17 -71.5 22t-87.5 5h-163zM755 0l11 53l432 415h-321l11 50h398l-11 -53l-432 -415h357l-11 -50h-434zM1186 709h65l-143 -139h-67l-84 139h65l60 -102z" />
    <glyph glyph-name="dzcaron" unicode="&#x1c6;" horiz-adv-x="1111" 
d="M99 0zM527 261q9 44 5.5 83.5t-19.5 69t-44.5 47t-69.5 17.5q-47 0 -85 -18.5t-67 -50.5t-48 -74.5t-27 -91.5q-10 -49 -4.5 -86.5t23.5 -63.5t47.5 -39.5t67.5 -13.5q42 0 78.5 17t65 46.5t48 70t29.5 87.5zM625 720h60l-153 -720h-60l19 91h-2q-18 -26 -43 -45.5
t-52 -32.5t-54.5 -20t-52.5 -7q-63 0 -103 21t-60 57.5t-22.5 86.5t9.5 107q12 54 36 104t60.5 87.5t85 60t107.5 22.5q55 0 100.5 -24.5t63.5 -72.5zM644 0l11 53l432 415h-321l11 50h398l-11 -53l-432 -415h357l-11 -50h-434zM1075 709h65l-143 -139h-67l-84 139h65
l60 -102z" />
    <glyph glyph-name="LJ" unicode="&#x1c7;" horiz-adv-x="1056" 
d="M81 0zM81 0l153 720h68l-141 -662h386l-12 -58h-454zM694 228q-8 -34 -12 -67t3 -59.5t30 -42.5t70 -16q70 0 107 40t53 116l111 521h68l-111 -523q-23 -105 -83.5 -160.5t-165.5 -55.5q-61 0 -94 20.5t-46 55t-10.5 79t12.5 92.5h68z" />
    <glyph glyph-name="Lj" unicode="&#x1c8;" horiz-adv-x="778" 
d="M81 0zM81 0l153 720h68l-141 -662h386l-12 -58h-454zM814 518l-125 -587q-7 -33 -15 -58t-22 -42.5t-36.5 -26t-58.5 -8.5q-22 0 -39 4l12 53q50 -7 69.5 11t28.5 59l126 595h60zM841 631h-66l19 89h66z" />
    <glyph glyph-name="lj" unicode="&#x1c9;" horiz-adv-x="444" 
d="M81 0zM81 0l153 720h60l-153 -720h-60zM480 518l-125 -587q-7 -33 -15 -58t-22 -42.5t-36.5 -26t-58.5 -8.5q-22 0 -39 4l12 53q50 -7 69.5 11t28.5 59l126 595h60zM507 631h-66l19 89h66z" />
    <glyph glyph-name="NJ" unicode="&#x1ca;" horiz-adv-x="1222" 
d="M79 0zM282 628h-2l-133 -628h-68l153 720h77l282 -629h2l134 629h68l-153 -720h-79zM860 228q-8 -34 -12 -67t3 -59.5t30 -42.5t70 -16q70 0 107 40t53 116l111 521h68l-111 -523q-23 -105 -83.5 -160.5t-165.5 -55.5q-61 0 -94 20.5t-46 55t-10.5 79t12.5 92.5h68z" />
    <glyph glyph-name="Nj" unicode="&#x1cb;" horiz-adv-x="944" 
d="M79 0zM282 628h-2l-133 -628h-68l153 720h77l282 -629h2l134 629h68l-153 -720h-79zM980 518l-125 -587q-7 -33 -15 -58t-22 -42.5t-36.5 -26t-58.5 -8.5q-22 0 -39 4l12 53q50 -7 69.5 11t28.5 59l126 595h60zM1007 631h-66l19 89h66z" />
    <glyph glyph-name="nj" unicode="&#x1cc;" horiz-adv-x="778" 
d="M72 0zM132 0h-60l110 518h60l-15 -72q44 38 87.5 62t97.5 24q48 0 85.5 -16.5t56.5 -57.5q13 -28 10.5 -57.5t-9.5 -61.5l-72 -339h-60l72 338q15 70 -8.5 105t-95.5 35q-28 0 -53 -8.5t-46.5 -22.5t-38.5 -32t-28 -38q-14 -25 -21 -48t-13 -50zM814 518l-125 -587
q-7 -33 -15 -58t-22 -42.5t-36.5 -26t-58.5 -8.5q-22 0 -39 4l12 53q50 -7 69.5 11t28.5 59l126 595h60zM841 631h-66l19 89h66z" />
    <glyph glyph-name="Acaron" unicode="&#x1cd;" horiz-adv-x="667" 
d="M15 0zM15 0l436 720h77l123 -720h-70l-35 226h-328l-133 -226h-70zM253 284h282l-60 378zM611 915h65l-143 -139h-67l-84 139h65l60 -102z" />
    <glyph glyph-name="acaron" unicode="&#x1ce;" 
d="M67 0zM469 272q-42 -16 -81.5 -21t-79.5 -8q-70 -5 -114.5 -31t-55.5 -79q-5 -24 1 -41.5t19.5 -29t32.5 -17t40 -5.5q36 0 71.5 9t66 27.5t52.5 47t31 67.5zM374 302q17 2 41.5 6t41.5 11t23.5 23.5t9.5 30.5q5 23 2 42t-15.5 33t-35 22t-57.5 8q-62 0 -108 -25t-68 -92
h-61q13 46 37.5 78.5t57.5 53t72.5 30t81.5 9.5q39 0 71.5 -8.5t54 -27t29.5 -49.5t-1 -76l-60 -282q-8 -35 2.5 -44.5t51.5 4.5l-10 -47q-7 -2 -21.5 -6t-27.5 -4t-26 3q-29 5 -33 27.5t1 49.5q-47 -42 -100.5 -64t-110.5 -22q-34 0 -63.5 9t-49.5 28t-28 46.5t0 65.5
q27 132 214 156zM529 736h65l-143 -139h-67l-84 139h65l60 -102z" />
    <glyph glyph-name="Icaron" unicode="&#x1cf;" horiz-adv-x="278" 
d="M105 0zM105 0l153 720h68l-153 -720h-68zM412 898h65l-143 -139h-67l-84 139h65l60 -102z" />
    <glyph glyph-name="icaron" unicode="&#x1d0;" horiz-adv-x="222" 
d="M78 0zM78 0l110 518h60l-110 -518h-60zM331 709h65l-143 -139h-67l-84 139h65l60 -102z" />
    <glyph glyph-name="Ocaron" unicode="&#x1d1;" horiz-adv-x="778" 
d="M112 0zM129 359q16 79 52.5 148t90 120.5t121.5 81.5t149 30q84 0 141.5 -29.5t89 -81t38 -121t-10.5 -148.5q-17 -78 -52.5 -146.5t-88.5 -120t-122.5 -81.5t-152.5 -30t-139.5 30t-87.5 81.5t-38 120t10 146.5zM397 39q70 0 126 26.5t98 70.5t70 102t41 121
q16 75 10 134.5t-32 101.5t-71 64t-107 22q-69 0 -125 -27t-98 -71.5t-70.5 -102.5t-41.5 -121q-14 -64 -10.5 -122t26.5 -102t68 -70t116 -26zM699 933h65l-143 -139h-67l-84 139h65l60 -102z" />
    <glyph glyph-name="ocaron" unicode="&#x1d2;" 
d="M79 0zM275 -14q-50 1 -89.5 18t-65 51t-33.5 85t6 119q12 57 37.5 106.5t63.5 86.5t87.5 58.5t109.5 21.5q61 0 101.5 -21.5t62.5 -58t26 -86.5t-8 -107q-13 -62 -41 -112t-67 -86t-87.5 -55.5t-102.5 -19.5zM509 259q9 46 8 86t-15.5 69.5t-44 46.5t-77.5 17
q-47 0 -84.5 -18.5t-65.5 -49t-46 -70t-27 -81.5q-10 -48 -7 -88.5t19 -69.5t45.5 -45t72.5 -16q47 0 84.5 18.5t65 49.5t45.5 70t27 81zM542 721h65l-143 -139h-67l-84 139h65l60 -102z" />
    <glyph glyph-name="Ucaron" unicode="&#x1d3;" horiz-adv-x="722" 
d="M110 0zM235 720h68l-91 -429q-29 -134 8.5 -193t148.5 -59q58 0 101.5 15.5t75.5 47t53 78.5t35 111l91 429h68l-95 -449q-30 -141 -115.5 -215.5t-225.5 -74.5q-141 0 -194 76t-23 214zM640 912h65l-143 -139h-67l-84 139h65l60 -102z" />
    <glyph glyph-name="ucaron" unicode="&#x1d4;" 
d="M101 0zM533 518h60l-110 -518h-60l15 72q-15 -14 -33 -29t-40.5 -27.5t-50 -21t-61.5 -8.5q-52 0 -84 14.5t-48 40.5t-18 60.5t7 75.5l72 341h60l-72 -340q-14 -67 9.5 -102.5t94.5 -35.5q37 0 69.5 14.5t58 40.5t44 62t27.5 79zM513 709h65l-143 -139h-67l-84 139h65
l60 -102z" />
    <glyph glyph-name="Udieresismacron" unicode="&#x1d5;" horiz-adv-x="722" 
d="M110 0zM235 720h68l-91 -429q-29 -134 8.5 -193t148.5 -59q58 0 101.5 15.5t75.5 47t53 78.5t35 111l91 429h68l-95 -449q-30 -141 -115.5 -215.5t-225.5 -74.5q-141 0 -194 76t-23 214zM443 869h65l-22 -102h-65zM602 869h65l-22 -102h-65zM425 965h296l-10 -45h-296z
" />
    <glyph glyph-name="udieresismacron" unicode="&#x1d6;" 
d="M101 0zM533 518h60l-110 -518h-60l15 72q-15 -14 -33 -29t-40.5 -27.5t-50 -21t-61.5 -8.5q-52 0 -84 14.5t-48 40.5t-18 60.5t7 75.5l72 341h60l-72 -340q-14 -67 9.5 -102.5t94.5 -35.5q37 0 69.5 14.5t58 40.5t44 62t27.5 79zM313 669h65l-22 -102h-65zM472 669h65
l-22 -102h-65zM302 768h296l-10 -45h-296z" />
    <glyph glyph-name="Udieresisacute" unicode="&#x1d7;" horiz-adv-x="722" 
d="M110 0zM235 720h68l-91 -429q-29 -134 8.5 -193t148.5 -59q58 0 101.5 15.5t75.5 47t53 78.5t35 111l91 429h68l-95 -449q-30 -141 -115.5 -215.5t-225.5 -74.5q-141 0 -194 76t-23 214zM431 869h65l-22 -102h-65zM590 869h65l-22 -102h-65zM516 899l141 139h77
l-167 -139h-51z" />
    <glyph glyph-name="udieresisacute" unicode="&#x1d8;" 
d="M101 0zM533 518h60l-110 -518h-60l15 72q-15 -14 -33 -29t-40.5 -27.5t-50 -21t-61.5 -8.5q-52 0 -84 14.5t-48 40.5t-18 60.5t7 75.5l72 341h60l-72 -340q-14 -67 9.5 -102.5t94.5 -35.5q37 0 69.5 14.5t58 40.5t44 62t27.5 79zM310 672h65l-22 -102h-65zM469 672h65
l-22 -102h-65zM384 720l141 139h77l-167 -139h-51z" />
    <glyph glyph-name="Udieresiscaron" unicode="&#x1d9;" horiz-adv-x="722" 
d="M110 0zM235 720h68l-91 -429q-29 -134 8.5 -193t148.5 -59q58 0 101.5 15.5t75.5 47t53 78.5t35 111l91 429h68l-95 -449q-30 -141 -115.5 -215.5t-225.5 -74.5q-141 0 -194 76t-23 214zM446 860h65l-22 -102h-65zM605 860h65l-22 -102h-65zM664 1061h65l-143 -139h-67
l-84 139h65l60 -102z" />
    <glyph glyph-name="udieresiscaron" unicode="&#x1da;" 
d="M101 0zM533 518h60l-110 -518h-60l15 72q-15 -14 -33 -29t-40.5 -27.5t-50 -21t-61.5 -8.5q-52 0 -84 14.5t-48 40.5t-18 60.5t7 75.5l72 341h60l-72 -340q-14 -67 9.5 -102.5t94.5 -35.5q37 0 69.5 14.5t58 40.5t44 62t27.5 79zM299 669h65l-22 -102h-65zM458 669h65
l-22 -102h-65zM527 856h65l-143 -139h-67l-84 139h65l60 -102z" />
    <glyph glyph-name="Udieresisgrave" unicode="&#x1db;" horiz-adv-x="722" 
d="M110 0zM235 720h68l-91 -429q-29 -134 8.5 -193t148.5 -59q58 0 101.5 15.5t75.5 47t53 78.5t35 111l91 429h68l-95 -449q-30 -141 -115.5 -215.5t-225.5 -74.5q-141 0 -194 76t-23 214zM443 866h65l-22 -102h-65zM602 866h65l-22 -102h-65zM463 1041h78l81 -139h-51z
" />
    <glyph glyph-name="udieresisgrave" unicode="&#x1dc;" 
d="M101 0zM533 518h60l-110 -518h-60l15 72q-15 -14 -33 -29t-40.5 -27.5t-50 -21t-61.5 -8.5q-52 0 -84 14.5t-48 40.5t-18 60.5t7 75.5l72 341h60l-72 -340q-14 -67 9.5 -102.5t94.5 -35.5q37 0 69.5 14.5t58 40.5t44 62t27.5 79zM307 666h65l-22 -102h-65zM466 666h65
l-22 -102h-65zM332 845h78l81 -139h-51z" />
    <glyph glyph-name="uni01DD" unicode="&#x1dd;" 
d="M157 223q-8 -38 -4.5 -71.5t18.5 -58t43 -39t68 -14.5t73.5 15t60.5 40t47 58t32 70h-338zM506 273q8 42 5 79.5t-18.5 65t-45 44t-72.5 16.5q-59 0 -107.5 -31t-74.5 -88h-67q19 37 43.5 68.5t56.5 55t72 36.5t89 13q62 0 102.5 -21t61.5 -57.5t24.5 -86t-8.5 -106.5
t-39 -107t-65.5 -87.5t-87 -59t-104.5 -21.5q-107 0 -152.5 73.5t-14.5 213.5h402z" />
    <glyph glyph-name="Adieresismacron" unicode="&#x1de;" horiz-adv-x="667" 
d="M15 0zM15 0l436 720h77l123 -720h-70l-35 226h-328l-133 -226h-70zM253 284h282l-60 378zM405 872h65l-22 -102h-65zM564 872h65l-22 -102h-65zM386 961h296l-10 -45h-296z" />
    <glyph glyph-name="adieresismacron" unicode="&#x1df;" 
d="M67 0zM469 272q-42 -16 -81.5 -21t-79.5 -8q-70 -5 -114.5 -31t-55.5 -79q-5 -24 1 -41.5t19.5 -29t32.5 -17t40 -5.5q36 0 71.5 9t66 27.5t52.5 47t31 67.5zM374 302q17 2 41.5 6t41.5 11t23.5 23.5t9.5 30.5q5 23 2 42t-15.5 33t-35 22t-57.5 8q-62 0 -108 -25t-68 -92
h-61q13 46 37.5 78.5t57.5 53t72.5 30t81.5 9.5q39 0 71.5 -8.5t54 -27t29.5 -49.5t-1 -76l-60 -282q-8 -35 2.5 -44.5t51.5 4.5l-10 -47q-7 -2 -21.5 -6t-27.5 -4t-26 3q-29 5 -33 27.5t1 49.5q-47 -42 -100.5 -64t-110.5 -22q-34 0 -63.5 9t-49.5 28t-28 46.5t0 65.5
q27 132 214 156zM332 683h65l-22 -102h-65zM491 683h65l-22 -102h-65zM317 796h296l-10 -45h-296z" />
    <glyph glyph-name="Adotmacron" unicode="&#x1e0;" horiz-adv-x="667" 
d="M15 0zM15 0l436 720h77l123 -720h-70l-35 226h-328l-133 -226h-70zM253 284h282l-60 378zM496 875h65l-22 -102h-65zM401 972h296l-10 -45h-296z" />
    <glyph glyph-name="adotmacron" unicode="&#x1e1;" 
d="M67 0zM469 272q-42 -16 -81.5 -21t-79.5 -8q-70 -5 -114.5 -31t-55.5 -79q-5 -24 1 -41.5t19.5 -29t32.5 -17t40 -5.5q36 0 71.5 9t66 27.5t52.5 47t31 67.5zM374 302q17 2 41.5 6t41.5 11t23.5 23.5t9.5 30.5q5 23 2 42t-15.5 33t-35 22t-57.5 8q-62 0 -108 -25t-68 -92
h-61q13 46 37.5 78.5t57.5 53t72.5 30t81.5 9.5q39 0 71.5 -8.5t54 -27t29.5 -49.5t-1 -76l-60 -282q-8 -35 2.5 -44.5t51.5 4.5l-10 -47q-7 -2 -21.5 -6t-27.5 -4t-26 3q-29 5 -33 27.5t1 49.5q-47 -42 -100.5 -64t-110.5 -22q-34 0 -63.5 9t-49.5 28t-28 46.5t0 65.5
q27 132 214 156zM406 683h65l-22 -102h-65zM311 776h296l-10 -45h-296z" />
    <glyph glyph-name="AEmacron" unicode="&#x1e2;" horiz-adv-x="1000" 
d="M5 0zM5 0l466 720h630l-12 -58h-408l-56 -260h371l-12 -58h-371l-61 -286h420l-12 -58h-488l48 226h-303l-144 -226h-68zM257 284h275l81 378h-114zM605 818h296l-10 -45h-296z" />
    <glyph glyph-name="aemacron" unicode="&#x1e3;" horiz-adv-x="889" 
d="M59 0zM451 274q-26 -13 -57.5 -18.5t-64.5 -9.5t-65.5 -8.5t-59 -15t-45.5 -30t-26 -51.5q-11 -51 13 -76t74 -25q91 0 146 45.5t70 118.5zM846 295q8 37 5 70.5t-17.5 58.5t-41 39.5t-65.5 14.5q-47 0 -83.5 -18.5t-62 -46t-40.5 -59.5t-21 -59h326zM340 301
q39 4 63.5 9t38 12t20 17.5t9.5 25.5q14 66 -9.5 89.5t-92.5 23.5q-60 0 -104 -25.5t-65 -88.5h-62q12 44 35.5 75.5t55.5 52t70 30.5t79 10q25 0 52 -3.5t50 -13t39.5 -26t21.5 -42.5q44 50 92 67.5t107 17.5q65 0 102.5 -22.5t54.5 -61.5t16 -91t-14 -112h-390
q-9 -42 -7.5 -79.5t16.5 -65t44.5 -44t75.5 -16.5q60 0 104.5 32t71.5 88h63q-38 -84 -103 -129t-153 -45q-68 0 -110.5 27.5t-65.5 86.5q-18 -20 -40 -40t-51 -36.5t-66 -27t-85 -10.5q-35 0 -63.5 8.5t-47.5 26.5t-26 45.5t1 65.5q14 68 67.5 110.5t147.5 52.5zM434 629
h296l-10 -45h-296z" />
    <glyph glyph-name="Gcaron" unicode="&#x1e6;" horiz-adv-x="778" 
d="M110 0zM454 314l12 58h308l-79 -372h-58l26 123q-51 -65 -122 -103.5t-177 -38.5q-68 0 -121 24t-84.5 71.5t-40 119.5t11.5 168q17 79 51.5 147.5t86.5 119t121 79.5t154 29q57 0 103.5 -14t80 -42.5t51.5 -71t18 -100.5h-70q0 40 -15 72t-40.5 53.5t-60 33t-74.5 11.5
q-71 0 -127.5 -25t-99 -70.5t-71.5 -109t-45 -139.5q-13 -60 -7 -114t31 -95t68 -65t105 -24q29 0 61.5 6.5t64.5 21.5t62.5 39t55.5 59q25 34 39 71t24 78h-243zM670 942h65l-143 -139h-67l-84 139h65l60 -102z" />
    <glyph glyph-name="gcaron" unicode="&#x1e7;" horiz-adv-x="611" 
d="M53 0zM527 257q10 47 7 87.5t-19 70t-45 46.5t-71 17q-38 0 -73 -13.5t-64.5 -39.5t-51 -63.5t-32.5 -86.5q-12 -49 -11 -91.5t16.5 -74.5t45.5 -50.5t77 -18.5q41 0 77 17.5t65 47t49.5 69t29.5 83.5zM582 518h60l-99 -468q-11 -52 -31.5 -99.5t-55.5 -83.5t-86.5 -57.5
t-125.5 -21.5q-57 0 -95 14.5t-59.5 36.5t-29 48.5t-3.5 49.5h64q0 -29 11 -47.5t29.5 -29t42.5 -14.5t51 -4q61 0 102.5 21t68 55t41 77t23.5 88q-39 -48 -95 -72.5t-111 -24.5q-59 0 -98 22.5t-59.5 60t-24 87.5t8.5 104q12 57 36 107t60 86.5t84.5 57.5t111.5 21
q25 0 49.5 -7t46 -20t38 -33t24.5 -45h2zM531 721h65l-143 -139h-67l-84 139h65l60 -102z" />
    <glyph glyph-name="Kcaron" unicode="&#x1e8;" horiz-adv-x="667" 
d="M85 0zM85 0l153 720h68l-79 -373l448 373h77l-345 -287l242 -433h-83l-217 391l-137 -113l-59 -278h-68zM620 915h65l-143 -139h-67l-84 139h65l60 -102z" />
    <glyph glyph-name="kcaron" unicode="&#x1e9;" horiz-adv-x="500" 
d="M68 0zM68 0l153 720h60l-95 -448l306 246h82l-234 -187l147 -331h-67l-133 289l-117 -93l-42 -196h-60zM504 889h65l-143 -139h-67l-84 139h65l60 -102z" />
    <glyph glyph-name="Oogonek" unicode="&#x1ea;" horiz-adv-x="778" 
d="M112 0zM129 359q16 79 52.5 148t90 120.5t121.5 81.5t149 30q84 0 141.5 -29.5t89 -81t38 -121t-10.5 -148.5q-17 -78 -52.5 -146.5t-88.5 -120t-122.5 -81.5t-152.5 -30t-139.5 30t-87.5 81.5t-38 120t10 146.5zM397 39q70 0 126 26.5t98 70.5t70 102t41 121
q16 75 10 134.5t-32 101.5t-71 64t-107 22q-69 0 -125 -27t-98 -71.5t-70.5 -102.5t-41.5 -121q-14 -64 -10.5 -122t26.5 -102t68 -70t116 -26zM448 -17v-2q-14 -6 -29.5 -14.5t-30 -20t-25.5 -24.5t-14 -28q-6 -29 11.5 -43t43.5 -14q21 0 44 9l-9 -44q-29 -9 -54 -9
q-20 0 -37 5.5t-29 16.5t-17.5 27.5t-0.5 37.5q8 35 36.5 61.5t60.5 41.5h50z" />
    <glyph glyph-name="oogonek" unicode="&#x1eb;" 
d="M79 0zM275 -14q-50 1 -89.5 18t-65 51t-33.5 85t6 119q12 57 37.5 106.5t63.5 86.5t87.5 58.5t109.5 21.5q61 0 101.5 -21.5t62.5 -58t26 -86.5t-8 -107q-13 -62 -41 -112t-67 -86t-87.5 -55.5t-102.5 -19.5zM509 259q9 46 8 86t-15.5 69.5t-44 46.5t-77.5 17
q-47 0 -84.5 -18.5t-65.5 -49t-46 -70t-27 -81.5q-10 -48 -7 -88.5t19 -69.5t45.5 -45t72.5 -16q47 0 84.5 18.5t65 49.5t45.5 70t27 81zM335 -12v-2q-14 -6 -29.5 -14.5t-30 -20t-25.5 -24.5t-14 -28q-6 -29 11.5 -43t43.5 -14q21 0 44 9l-9 -44q-29 -9 -54 -9
q-20 0 -37 5.5t-29 16.5t-17.5 27.5t-0.5 37.5q8 35 36.5 61.5t60.5 41.5h50z" />
    <glyph glyph-name="Oogonekmacron" unicode="&#x1ec;" horiz-adv-x="778" 
d="M112 0zM129 359q16 79 52.5 148t90 120.5t121.5 81.5t149 30q84 0 141.5 -29.5t89 -81t38 -121t-10.5 -148.5q-17 -78 -52.5 -146.5t-88.5 -120t-122.5 -81.5t-152.5 -30t-139.5 30t-87.5 81.5t-38 120t10 146.5zM397 39q70 0 126 26.5t98 70.5t70 102t41 121
q16 75 10 134.5t-32 101.5t-71 64t-107 22q-69 0 -125 -27t-98 -71.5t-70.5 -102.5t-41.5 -121q-14 -64 -10.5 -122t26.5 -102t68 -70t116 -26zM448 -17v-2q-14 -6 -29.5 -14.5t-30 -20t-25.5 -24.5t-14 -28q-6 -29 11.5 -43t43.5 -14q21 0 44 9l-9 -44q-29 -9 -54 -9
q-20 0 -37 5.5t-29 16.5t-17.5 27.5t-0.5 37.5q8 35 36.5 61.5t60.5 41.5h50zM451 843h296l-10 -45h-296z" />
    <glyph glyph-name="oogonekmacron" unicode="&#x1ed;" 
d="M79 0zM275 -14q-50 1 -89.5 18t-65 51t-33.5 85t6 119q12 57 37.5 106.5t63.5 86.5t87.5 58.5t109.5 21.5q61 0 101.5 -21.5t62.5 -58t26 -86.5t-8 -107q-13 -62 -41 -112t-67 -86t-87.5 -55.5t-102.5 -19.5zM509 259q9 46 8 86t-15.5 69.5t-44 46.5t-77.5 17
q-47 0 -84.5 -18.5t-65.5 -49t-46 -70t-27 -81.5q-10 -48 -7 -88.5t19 -69.5t45.5 -45t72.5 -16q47 0 84.5 18.5t65 49.5t45.5 70t27 81zM335 -12v-2q-14 -6 -29.5 -14.5t-30 -20t-25.5 -24.5t-14 -28q-6 -29 11.5 -43t43.5 -14q21 0 44 9l-9 -44q-29 -9 -54 -9
q-20 0 -37 5.5t-29 16.5t-17.5 27.5t-0.5 37.5q8 35 36.5 61.5t60.5 41.5h50zM263 629h296l-10 -45h-296z" />
    <glyph glyph-name="jcaron" unicode="&#x1f0;" horiz-adv-x="222" 
d="M0 0zM258 518l-125 -587q-7 -33 -15 -58t-22 -42.5t-36.5 -26t-58.5 -8.5q-22 0 -39 4l12 53q50 -7 69.5 11t28.5 59l126 595h60zM349 711h65l-143 -139h-67l-84 139h65l60 -102z" />
    <glyph glyph-name="DZ" unicode="&#x1f1;" horiz-adv-x="1333" 
d="M81 0zM81 0l153 720h246q30 0 58.5 -1.5t55.5 -7t51.5 -16.5t45.5 -29q30 -26 45 -63.5t20 -79t1 -84t-11 -78.5q-8 -36 -20 -73t-29.5 -72.5t-41.5 -68t-54 -59.5q-31 -28 -64 -45t-68 -26.5t-70.5 -13t-71.5 -3.5h-246zM161 58h163q46 0 88 5.5t88 27.5q40 18 70 49
t51.5 67.5t35 76.5t21.5 77q8 39 11.5 79.5t-2.5 77t-24 67t-51 50.5q-29 17 -71.5 22t-87.5 5h-163zM753 0l12 57l590 605h-422l12 58h506l-12 -57l-590 -605h464l-12 -58h-548z" />
    <glyph glyph-name="Dz" unicode="&#x1f2;" horiz-adv-x="1222" 
d="M81 0zM81 0l153 720h246q30 0 58.5 -1.5t55.5 -7t51.5 -16.5t45.5 -29q30 -26 45 -63.5t20 -79t1 -84t-11 -78.5q-8 -36 -20 -73t-29.5 -72.5t-41.5 -68t-54 -59.5q-31 -28 -64 -45t-68 -26.5t-70.5 -13t-71.5 -3.5h-246zM161 58h163q46 0 88 5.5t88 27.5q40 18 70 49
t51.5 67.5t35 76.5t21.5 77q8 39 11.5 79.5t-2.5 77t-24 67t-51 50.5q-29 17 -71.5 22t-87.5 5h-163zM755 0l11 53l432 415h-321l11 50h398l-11 -53l-432 -415h357l-11 -50h-434z" />
    <glyph glyph-name="dz" unicode="&#x1f3;" horiz-adv-x="1111" 
d="M99 0zM527 261q9 44 5.5 83.5t-19.5 69t-44.5 47t-69.5 17.5q-47 0 -85 -18.5t-67 -50.5t-48 -74.5t-27 -91.5q-10 -49 -4.5 -86.5t23.5 -63.5t47.5 -39.5t67.5 -13.5q42 0 78.5 17t65 46.5t48 70t29.5 87.5zM625 720h60l-153 -720h-60l19 91h-2q-18 -26 -43 -45.5
t-52 -32.5t-54.5 -20t-52.5 -7q-63 0 -103 21t-60 57.5t-22.5 86.5t9.5 107q12 54 36 104t60.5 87.5t85 60t107.5 22.5q55 0 100.5 -24.5t63.5 -72.5zM644 0l11 53l432 415h-321l11 50h398l-11 -53l-432 -415h357l-11 -50h-434z" />
    <glyph glyph-name="Gacute" unicode="&#x1f4;" horiz-adv-x="778" 
d="M110 0zM454 314l12 58h308l-79 -372h-58l26 123q-51 -65 -122 -103.5t-177 -38.5q-68 0 -121 24t-84.5 71.5t-40 119.5t11.5 168q17 79 51.5 147.5t86.5 119t121 79.5t154 29q57 0 103.5 -14t80 -42.5t51.5 -71t18 -100.5h-70q0 40 -15 72t-40.5 53.5t-60 33t-74.5 11.5
q-71 0 -127.5 -25t-99 -70.5t-71.5 -109t-45 -139.5q-13 -60 -7 -114t31 -95t68 -65t105 -24q29 0 61.5 6.5t64.5 21.5t62.5 39t55.5 59q25 34 39 71t24 78h-243zM478 792l141 139h77l-167 -139h-51z" />
    <glyph glyph-name="gacute" unicode="&#x1f5;" horiz-adv-x="611" 
d="M53 0zM527 257q10 47 7 87.5t-19 70t-45 46.5t-71 17q-38 0 -73 -13.5t-64.5 -39.5t-51 -63.5t-32.5 -86.5q-12 -49 -11 -91.5t16.5 -74.5t45.5 -50.5t77 -18.5q41 0 77 17.5t65 47t49.5 69t29.5 83.5zM582 518h60l-99 -468q-11 -52 -31.5 -99.5t-55.5 -83.5t-86.5 -57.5
t-125.5 -21.5q-57 0 -95 14.5t-59.5 36.5t-29 48.5t-3.5 49.5h64q0 -29 11 -47.5t29.5 -29t42.5 -14.5t51 -4q61 0 102.5 21t68 55t41 77t23.5 88q-39 -48 -95 -72.5t-111 -24.5q-59 0 -98 22.5t-59.5 60t-24 87.5t8.5 104q12 57 36 107t60 86.5t84.5 57.5t111.5 21
q25 0 49.5 -7t46 -20t38 -33t24.5 -45h2zM371 585l141 139h77l-167 -139h-51z" />
    <glyph glyph-name="Ngrave" unicode="&#x1f8;" horiz-adv-x="722" 
d="M79 0zM282 628h-2l-133 -628h-68l153 720h77l282 -629h2l134 629h68l-153 -720h-79zM425 907h78l81 -139h-51z" />
    <glyph glyph-name="ngrave" unicode="&#x1f9;" 
d="M72 0zM132 0h-60l110 518h60l-15 -72q44 38 87.5 62t97.5 24q48 0 85.5 -16.5t56.5 -57.5q13 -28 10.5 -57.5t-9.5 -61.5l-72 -339h-60l72 338q15 70 -8.5 105t-95.5 35q-28 0 -53 -8.5t-46.5 -22.5t-38.5 -32t-28 -38q-14 -25 -21 -48t-13 -50zM320 721h78l81 -139h-51z
" />
    <glyph glyph-name="Aringacute" unicode="&#x1fa;" horiz-adv-x="667" 
d="M15 0zM15 0l436 720h77l123 -720h-70l-35 226h-328l-133 -226h-70zM253 284h282l-60 378zM521 767q-41 0 -64.5 29t-14.5 70q4 20 16 38t28.5 32t36.5 22t40 8t36.5 -8t27 -22t14.5 -32t0 -38q-5 -20 -16.5 -38t-28 -31.5t-36 -21.5t-39.5 -8zM528 800q26 0 50 20t30 46
q5 26 -10 46.5t-42 20.5t-51 -20t-30 -47t10.5 -46.5t42.5 -19.5zM450 982l141 139h77l-167 -139h-51z" />
    <glyph glyph-name="aringacute" unicode="&#x1fb;" 
d="M67 0zM469 272q-42 -16 -81.5 -21t-79.5 -8q-70 -5 -114.5 -31t-55.5 -79q-5 -24 1 -41.5t19.5 -29t32.5 -17t40 -5.5q36 0 71.5 9t66 27.5t52.5 47t31 67.5zM374 302q17 2 41.5 6t41.5 11t23.5 23.5t9.5 30.5q5 23 2 42t-15.5 33t-35 22t-57.5 8q-62 0 -108 -25t-68 -92
h-61q13 46 37.5 78.5t57.5 53t72.5 30t81.5 9.5q39 0 71.5 -8.5t54 -27t29.5 -49.5t-1 -76l-60 -282q-8 -35 2.5 -44.5t51.5 4.5l-10 -47q-7 -2 -21.5 -6t-27.5 -4t-26 3q-29 5 -33 27.5t1 49.5q-47 -42 -100.5 -64t-110.5 -22q-34 0 -63.5 9t-49.5 28t-28 46.5t0 65.5
q27 132 214 156zM420 575q-41 0 -64.5 29t-14.5 70q4 20 16 38t28.5 32t36.5 22t40 8t36.5 -8t27 -22t14.5 -32t0 -38q-5 -20 -16.5 -38t-28 -31.5t-36 -21.5t-39.5 -8zM427 608q26 0 50 20t30 46q5 26 -10 46.5t-42 20.5t-51 -20t-30 -47t10.5 -46.5t42.5 -19.5zM383 806
l141 139h77l-167 -139h-51z" />
    <glyph glyph-name="AEacute" unicode="&#x1fc;" horiz-adv-x="1000" 
d="M5 0zM5 0l466 720h630l-12 -58h-408l-56 -260h371l-12 -58h-371l-61 -286h420l-12 -58h-488l48 226h-303l-144 -226h-68zM257 284h275l81 378h-114zM688 758l141 139h77l-167 -139h-51z" />
    <glyph glyph-name="aeacute" unicode="&#x1fd;" horiz-adv-x="889" 
d="M59 0zM451 274q-26 -13 -57.5 -18.5t-64.5 -9.5t-65.5 -8.5t-59 -15t-45.5 -30t-26 -51.5q-11 -51 13 -76t74 -25q91 0 146 45.5t70 118.5zM846 295q8 37 5 70.5t-17.5 58.5t-41 39.5t-65.5 14.5q-47 0 -83.5 -18.5t-62 -46t-40.5 -59.5t-21 -59h326zM340 301
q39 4 63.5 9t38 12t20 17.5t9.5 25.5q14 66 -9.5 89.5t-92.5 23.5q-60 0 -104 -25.5t-65 -88.5h-62q12 44 35.5 75.5t55.5 52t70 30.5t79 10q25 0 52 -3.5t50 -13t39.5 -26t21.5 -42.5q44 50 92 67.5t107 17.5q65 0 102.5 -22.5t54.5 -61.5t16 -91t-14 -112h-390
q-9 -42 -7.5 -79.5t16.5 -65t44.5 -44t75.5 -16.5q60 0 104.5 32t71.5 88h63q-38 -84 -103 -129t-153 -45q-68 0 -110.5 27.5t-65.5 86.5q-18 -20 -40 -40t-51 -36.5t-66 -27t-85 -10.5q-35 0 -63.5 8.5t-47.5 26.5t-26 45.5t1 65.5q14 68 67.5 110.5t147.5 52.5zM551 584
l141 139h77l-167 -139h-51z" />
    <glyph glyph-name="Oslashacute" unicode="&#x1fe;" horiz-adv-x="778" 
d="M41 0zM700 604q-22 32 -62 54.5t-109 22.5t-125 -27t-98 -72t-70.5 -103t-41.5 -120q-13 -60 -10.5 -114t21.5 -98zM230 107q25 -32 65.5 -50t98.5 -18q70 0 126 26t98 70.5t69.5 102.5t41.5 121q11 53 11 105t-17 96zM856 747l31 -35l-108 -100q22 -32 30 -97.5
t-12 -155.5q-17 -78 -52.5 -146.5t-88.5 -120t-122.5 -81.5t-152.5 -30q-69 0 -119 20.5t-83 58.5l-106 -97l-32 34l111 101q-30 51 -36 117.5t10 143.5q17 80 54.5 149.5t90.5 120.5t121 80.5t147 29.5q68 0 122.5 -20.5t91.5 -66.5zM519 791l141 139h77l-167 -139h-51z
" />
    <glyph glyph-name="oslashacute" unicode="&#x1ff;" 
d="M36 0zM487 433q-11 16 -35.5 30.5t-69.5 14.5q-47 0 -84.5 -18.5t-65.5 -49.5t-46 -70.5t-27 -81.5q-10 -47 -8 -80.5t10 -53.5zM180 85q18 -23 47.5 -34t61.5 -11q47 0 84.5 18.5t65 49t45.5 69.5t27 81q8 38 9 74t-11 65zM66 -23l-30 29l73 68q-20 37 -22.5 84t8.5 100
q12 57 37.5 106.5t63.5 87t87.5 59t109.5 21.5q48 0 83.5 -13.5t59.5 -39.5l65 62l28 -31l-68 -65q19 -36 22 -84t-8 -103q-13 -60 -39.5 -110t-65 -86t-87.5 -56t-106 -20q-56 0 -91 17.5t-52 37.5zM358 588l141 139h77l-167 -139h-51z" />
    <glyph glyph-name="Adblgrave" unicode="&#x200;" horiz-adv-x="667" 
d="M15 0zM15 0l436 720h77l123 -720h-70l-35 226h-328l-133 -226h-70zM253 284h282l-60 378zM454 912h78l81 -139h-51zM284 912h78l81 -139h-51z" />
    <glyph glyph-name="adblgrave" unicode="&#x201;" 
d="M67 0zM469 272q-42 -16 -81.5 -21t-79.5 -8q-70 -5 -114.5 -31t-55.5 -79q-5 -24 1 -41.5t19.5 -29t32.5 -17t40 -5.5q36 0 71.5 9t66 27.5t52.5 47t31 67.5zM374 302q17 2 41.5 6t41.5 11t23.5 23.5t9.5 30.5q5 23 2 42t-15.5 33t-35 22t-57.5 8q-62 0 -108 -25t-68 -92
h-61q13 46 37.5 78.5t57.5 53t72.5 30t81.5 9.5q39 0 71.5 -8.5t54 -27t29.5 -49.5t-1 -76l-60 -282q-8 -35 2.5 -44.5t51.5 4.5l-10 -47q-7 -2 -21.5 -6t-27.5 -4t-26 3q-29 5 -33 27.5t1 49.5q-47 -42 -100.5 -64t-110.5 -22q-34 0 -63.5 9t-49.5 28t-28 46.5t0 65.5
q27 132 214 156zM367 718h78l81 -139h-51zM197 718h78l81 -139h-51z" />
    <glyph glyph-name="Ainvertedbreve" unicode="&#x202;" horiz-adv-x="667" 
d="M15 0zM15 0l436 720h77l123 -720h-70l-35 226h-328l-133 -226h-70zM253 284h282l-60 378zM579 773q1 42 -22.5 61.5t-65.5 19.5t-73 -19.5t-51 -61.5h-37q20 63 67 94.5t109 31.5q60 0 90 -33t22 -93h-39z" />
    <glyph glyph-name="ainvertedbreve" unicode="&#x203;" 
d="M67 0zM469 272q-42 -16 -81.5 -21t-79.5 -8q-70 -5 -114.5 -31t-55.5 -79q-5 -24 1 -41.5t19.5 -29t32.5 -17t40 -5.5q36 0 71.5 9t66 27.5t52.5 47t31 67.5zM374 302q17 2 41.5 6t41.5 11t23.5 23.5t9.5 30.5q5 23 2 42t-15.5 33t-35 22t-57.5 8q-62 0 -108 -25t-68 -92
h-61q13 46 37.5 78.5t57.5 53t72.5 30t81.5 9.5q39 0 71.5 -8.5t54 -27t29.5 -49.5t-1 -76l-60 -282q-8 -35 2.5 -44.5t51.5 4.5l-10 -47q-7 -2 -21.5 -6t-27.5 -4t-26 3q-29 5 -33 27.5t1 49.5q-47 -42 -100.5 -64t-110.5 -22q-34 0 -63.5 9t-49.5 28t-28 46.5t0 65.5
q27 132 214 156zM509 582q1 42 -22.5 61.5t-65.5 19.5t-73 -19.5t-51 -61.5h-37q20 63 67 94.5t109 31.5q60 0 90 -33t22 -93h-39z" />
    <glyph glyph-name="Edblgrave" unicode="&#x204;" horiz-adv-x="611" 
d="M81 0zM81 0l153 720h479l-12 -58h-411l-56 -260h371l-12 -58h-371l-61 -286h421l-12 -58h-489zM444 909h78l81 -139h-51zM274 909h78l81 -139h-51z" />
    <glyph glyph-name="edblgrave" unicode="&#x205;" 
d="M88 0zM510 295q8 38 4.5 71.5t-18.5 58t-43 39t-68 14.5t-73.5 -15t-60.5 -40t-47 -58t-32 -70h338zM161 245q-9 -42 -6 -79.5t19 -65t45.5 -44t72.5 -16.5q59 0 107.5 31t74.5 88h67q-19 -37 -43.5 -68.5t-56.5 -55t-72 -36.5t-89 -13q-62 0 -102.5 21t-62 57.5
t-24.5 86t9 106.5t39 107t65.5 87.5t87 59t104.5 21.5q107 0 152.5 -73.5t14.5 -213.5h-402zM404 721h78l81 -139h-51zM234 721h78l81 -139h-51z" />
    <glyph glyph-name="Einvertedbreve" unicode="&#x206;" horiz-adv-x="611" 
d="M81 0zM81 0l153 720h479l-12 -58h-411l-56 -260h371l-12 -58h-371l-61 -286h421l-12 -58h-489zM572 781q1 42 -22.5 61.5t-65.5 19.5t-73 -19.5t-51 -61.5h-37q20 63 67 94.5t109 31.5q60 0 90 -33t22 -93h-39z" />
    <glyph glyph-name="einvertedbreve" unicode="&#x207;" 
d="M88 0zM510 295q8 38 4.5 71.5t-18.5 58t-43 39t-68 14.5t-73.5 -15t-60.5 -40t-47 -58t-32 -70h338zM161 245q-9 -42 -6 -79.5t19 -65t45.5 -44t72.5 -16.5q59 0 107.5 31t74.5 88h67q-19 -37 -43.5 -68.5t-56.5 -55t-72 -36.5t-89 -13q-62 0 -102.5 21t-62 57.5
t-24.5 86t9 106.5t39 107t65.5 87.5t87 59t104.5 21.5q107 0 152.5 -73.5t14.5 -213.5h-402zM523 582q1 42 -22.5 61.5t-65.5 19.5t-73 -19.5t-51 -61.5h-37q20 63 67 94.5t109 31.5q60 0 90 -33t22 -93h-39z" />
    <glyph glyph-name="Idblgrave" unicode="&#x208;" horiz-adv-x="278" 
d="M96 0zM105 0l153 720h68l-153 -720h-68zM266 909h78l81 -139h-51zM96 909h78l81 -139h-51z" />
    <glyph glyph-name="idblgrave" unicode="&#x209;" horiz-adv-x="222" 
d="M34 0zM78 0l110 518h60l-110 -518h-60zM204 705h78l81 -139h-51zM34 705h78l81 -139h-51z" />
    <glyph glyph-name="Iinvertedbreve" unicode="&#x20a;" horiz-adv-x="278" 
d="M105 0zM105 0l153 720h68l-153 -720h-68zM417 775q1 42 -22.5 61.5t-65.5 19.5t-73 -19.5t-51 -61.5h-37q20 63 67 94.5t109 31.5q60 0 90 -33t22 -93h-39z" />
    <glyph glyph-name="iinvertedbreve" unicode="&#x20b;" horiz-adv-x="222" 
d="M74 0zM78 0l110 518h60l-110 -518h-60zM323 569q1 42 -22.5 61.5t-65.5 19.5t-73 -19.5t-51 -61.5h-37q20 63 67 94.5t109 31.5q60 0 90 -33t22 -93h-39z" />
    <glyph glyph-name="Odblgrave" unicode="&#x20c;" horiz-adv-x="778" 
d="M112 0zM129 359q16 79 52.5 148t90 120.5t121.5 81.5t149 30q84 0 141.5 -29.5t89 -81t38 -121t-10.5 -148.5q-17 -78 -52.5 -146.5t-88.5 -120t-122.5 -81.5t-152.5 -30t-139.5 30t-87.5 81.5t-38 120t10 146.5zM397 39q70 0 126 26.5t98 70.5t70 102t41 121
q16 75 10 134.5t-32 101.5t-71 64t-107 22q-69 0 -125 -27t-98 -71.5t-70.5 -102.5t-41.5 -121q-14 -64 -10.5 -122t26.5 -102t68 -70t116 -26zM514 934h78l81 -139h-51zM344 934h78l81 -139h-51z" />
    <glyph glyph-name="odblgrave" unicode="&#x20d;" 
d="M79 0zM275 -14q-50 1 -89.5 18t-65 51t-33.5 85t6 119q12 57 37.5 106.5t63.5 86.5t87.5 58.5t109.5 21.5q61 0 101.5 -21.5t62.5 -58t26 -86.5t-8 -107q-13 -62 -41 -112t-67 -86t-87.5 -55.5t-102.5 -19.5zM509 259q9 46 8 86t-15.5 69.5t-44 46.5t-77.5 17
q-47 0 -84.5 -18.5t-65.5 -49t-46 -70t-27 -81.5q-10 -48 -7 -88.5t19 -69.5t45.5 -45t72.5 -16q47 0 84.5 18.5t65 49.5t45.5 70t27 81zM405 723h78l81 -139h-51zM235 723h78l81 -139h-51z" />
    <glyph glyph-name="Oinvertedbreve" unicode="&#x20e;" horiz-adv-x="778" 
d="M112 0zM129 359q16 79 52.5 148t90 120.5t121.5 81.5t149 30q84 0 141.5 -29.5t89 -81t38 -121t-10.5 -148.5q-17 -78 -52.5 -146.5t-88.5 -120t-122.5 -81.5t-152.5 -30t-139.5 30t-87.5 81.5t-38 120t10 146.5zM397 39q70 0 126 26.5t98 70.5t70 102t41 121
q16 75 10 134.5t-32 101.5t-71 64t-107 22q-69 0 -125 -27t-98 -71.5t-70.5 -102.5t-41.5 -121q-14 -64 -10.5 -122t26.5 -102t68 -70t116 -26zM653 794q1 42 -22.5 61.5t-65.5 19.5t-73 -19.5t-51 -61.5h-37q20 63 67 94.5t109 31.5q60 0 90 -33t22 -93h-39z" />
    <glyph glyph-name="oinvertedbreve" unicode="&#x20f;" 
d="M79 0zM275 -14q-50 1 -89.5 18t-65 51t-33.5 85t6 119q12 57 37.5 106.5t63.5 86.5t87.5 58.5t109.5 21.5q61 0 101.5 -21.5t62.5 -58t26 -86.5t-8 -107q-13 -62 -41 -112t-67 -86t-87.5 -55.5t-102.5 -19.5zM509 259q9 46 8 86t-15.5 69.5t-44 46.5t-77.5 17
q-47 0 -84.5 -18.5t-65.5 -49t-46 -70t-27 -81.5q-10 -48 -7 -88.5t19 -69.5t45.5 -45t72.5 -16q47 0 84.5 18.5t65 49.5t45.5 70t27 81zM514 582q1 42 -22.5 61.5t-65.5 19.5t-73 -19.5t-51 -61.5h-37q20 63 67 94.5t109 31.5q60 0 90 -33t22 -93h-39z" />
    <glyph glyph-name="Rdblgrave" unicode="&#x210;" horiz-adv-x="667" 
d="M80 0zM442 385q38 0 72.5 8t62 25.5t47 44.5t27.5 65q9 40 0 66t-30 41t-51.5 21t-64.5 6h-216l-59 -277h212zM218 327l-70 -327h-68l153 720h282q119 0 172.5 -44.5t32.5 -144.5q-14 -68 -50.5 -108t-104.5 -68q30 -11 43.5 -32t17 -48t-0.5 -57t-9 -58
q-8 -41 -11.5 -68t-3.5 -44t3 -26.5t9 -14.5l-1 -7h-75q-7 19 -5 50.5t7 66.5t11 68.5t6 53.5q0 29 -10 46.5t-26.5 26.5t-39.5 12t-48 3h-214zM435 909h78l81 -139h-51zM265 909h78l81 -139h-51z" />
    <glyph glyph-name="rdblgrave" unicode="&#x211;" horiz-adv-x="333" 
d="M75 0zM135 0h-60l110 518h60l-21 -97h2q38 62 83 86.5t110 24.5l-14 -65q-50 1 -86.5 -16t-62 -46t-42 -68.5t-25.5 -82.5zM331 721h78l81 -139h-51zM161 721h78l81 -139h-51z" />
    <glyph glyph-name="Rinvertedbreve" unicode="&#x212;" horiz-adv-x="667" 
d="M80 0zM442 385q38 0 72.5 8t62 25.5t47 44.5t27.5 65q9 40 0 66t-30 41t-51.5 21t-64.5 6h-216l-59 -277h212zM218 327l-70 -327h-68l153 720h282q119 0 172.5 -44.5t32.5 -144.5q-14 -68 -50.5 -108t-104.5 -68q30 -11 43.5 -32t17 -48t-0.5 -57t-9 -58
q-8 -41 -11.5 -68t-3.5 -44t3 -26.5t9 -14.5l-1 -7h-75q-7 19 -5 50.5t7 66.5t11 68.5t6 53.5q0 29 -10 46.5t-26.5 26.5t-39.5 12t-48 3h-214zM566 772q1 42 -22.5 61.5t-65.5 19.5t-73 -19.5t-51 -61.5h-37q20 63 67 94.5t109 31.5q60 0 90 -33t22 -93h-39z" />
    <glyph glyph-name="rinvertedbreve" unicode="&#x213;" horiz-adv-x="333" 
d="M75 0zM135 0h-60l110 518h60l-21 -97h2q38 62 83 86.5t110 24.5l-14 -65q-50 1 -86.5 -16t-62 -46t-42 -68.5t-25.5 -82.5zM428 582q1 42 -22.5 61.5t-65.5 19.5t-73 -19.5t-51 -61.5h-37q20 63 67 94.5t109 31.5q60 0 90 -33t22 -93h-39z" />
    <glyph glyph-name="Udblgrave" unicode="&#x214;" horiz-adv-x="722" 
d="M110 0zM235 720h68l-91 -429q-29 -134 8.5 -193t148.5 -59q58 0 101.5 15.5t75.5 47t53 78.5t35 111l91 429h68l-95 -449q-30 -141 -115.5 -215.5t-225.5 -74.5q-141 0 -194 76t-23 214zM504 909h78l81 -139h-51zM334 909h78l81 -139h-51z" />
    <glyph glyph-name="udblgrave" unicode="&#x215;" 
d="M101 0zM533 518h60l-110 -518h-60l15 72q-15 -14 -33 -29t-40.5 -27.5t-50 -21t-61.5 -8.5q-52 0 -84 14.5t-48 40.5t-18 60.5t7 75.5l72 341h60l-72 -340q-14 -67 9.5 -102.5t94.5 -35.5q37 0 69.5 14.5t58 40.5t44 62t27.5 79zM387 708h78l81 -139h-51zM217 708h78
l81 -139h-51z" />
    <glyph glyph-name="Uinvertedbreve" unicode="&#x216;" horiz-adv-x="722" 
d="M110 0zM235 720h68l-91 -429q-29 -134 8.5 -193t148.5 -59q58 0 101.5 15.5t75.5 47t53 78.5t35 111l91 429h68l-95 -449q-30 -141 -115.5 -215.5t-225.5 -74.5q-141 0 -194 76t-23 214zM632 775q1 42 -22.5 61.5t-65.5 19.5t-73 -19.5t-51 -61.5h-37q20 63 67 94.5
t109 31.5q60 0 90 -33t22 -93h-39z" />
    <glyph glyph-name="uinvertedbreve" unicode="&#x217;" 
d="M101 0zM533 518h60l-110 -518h-60l15 72q-15 -14 -33 -29t-40.5 -27.5t-50 -21t-61.5 -8.5q-52 0 -84 14.5t-48 40.5t-18 60.5t7 75.5l72 341h60l-72 -340q-14 -67 9.5 -102.5t94.5 -35.5q37 0 69.5 14.5t58 40.5t44 62t27.5 79zM502 564q1 42 -22.5 61.5t-65.5 19.5
t-73 -19.5t-51 -61.5h-37q20 63 67 94.5t109 31.5q60 0 90 -33t22 -93h-39z" />
    <glyph glyph-name="Scommaaccent" unicode="&#x218;" horiz-adv-x="611" 
d="M77 0zM155 215q-6 -48 4 -81.5t33 -54.5t57 -30.5t75 -9.5q48 0 85.5 12t64 32.5t43 47.5t22.5 57q9 42 -4.5 68t-41 42.5t-64.5 26.5t-76 19.5t-76 22.5t-63 35t-37.5 56.5t-0.5 87.5q8 37 31 72t59 62t85.5 43t109.5 16q61 0 102.5 -17t65.5 -46.5t31 -68.5t-3 -83h-65
q9 41 0.5 71t-28.5 49t-50.5 28t-64.5 9q-52 0 -90.5 -14.5t-64.5 -37.5t-40 -51t-15 -56q-2 -35 15.5 -56t46.5 -34.5t66 -22t75 -18t73 -22.5t59 -35t34.5 -56.5t-0.5 -86.5q-21 -100 -102 -155t-206 -55q-56 0 -101 14.5t-73.5 44t-38.5 73t2 102.5h66zM312 -186
q-10 -44 -36 -70.5t-60 -36.5l8 37q14 8 27.5 22t20.5 44l7 34h-34l19 88h73z" />
    <glyph glyph-name="scommaaccent" unicode="&#x219;" horiz-adv-x="500" 
d="M74 0zM141 162q1 -67 31.5 -94.5t98.5 -27.5q33 0 58.5 8t44 21.5t30 30.5t15.5 36q8 38 -12.5 56.5t-55.5 29t-76 18t-75 22.5t-52.5 43t-7.5 79q14 65 70 106.5t143 41.5q84 0 128 -37.5t37 -125.5h-61q4 60 -28 84.5t-88 24.5q-57 0 -92.5 -24.5t-43.5 -64.5
q-6 -26 5 -43t32 -28t49 -18.5t57.5 -15t57 -17.5t47.5 -26.5t29 -41.5t1 -62t-29.5 -65.5t-54 -47.5t-73 -28.5t-86.5 -9.5t-78.5 13.5t-52.5 37.5t-27.5 56t-1.5 69h61zM259 -181q-10 -44 -36 -70.5t-60 -36.5l8 37q14 8 27.5 22t20.5 44l7 34h-34l19 88h73z" />
    <glyph glyph-name="uni021A" unicode="&#x21a;" 
d="M157 0zM169 720h524l-12 -58h-228l-141 -662h-68l141 662h-228zM272 -179q-10 -44 -36 -70.5t-60 -36.5l8 37q14 8 27.5 22t20.5 44l7 34h-34l19 88h73z" />
    <glyph glyph-name="uni021B" unicode="&#x21b;" horiz-adv-x="278" 
d="M80 0zM254 -2q-11 -2 -30.5 -7t-41.5 -5q-45 0 -63.5 22.5t-6.5 80.5l80 379h-73l11 50h73l31 144h60l-31 -144h97l-11 -50h-97l-75 -355q-4 -19 -6 -33t1.5 -23t13 -13t28.5 -4q12 0 24.5 2t25.5 5zM176 -181q-10 -44 -36 -70.5t-60 -36.5l8 37q14 8 27.5 22t20.5 44
l7 34h-34l19 88h73z" />
    <glyph glyph-name="Hcaron" unicode="&#x21e;" horiz-adv-x="722" 
d="M80 0zM80 0l153 720h68l-66 -309h426l66 309h68l-153 -720h-68l75 353h-426l-75 -353h-68zM632 906h65l-143 -139h-67l-84 139h65l60 -102z" />
    <glyph glyph-name="hcaron" unicode="&#x21f;" 
d="M72 0zM72 0l153 720h60l-58 -274q44 38 87.5 62t97.5 24q48 0 85.5 -16.5t56.5 -57.5q13 -28 10.5 -57.5t-9.5 -61.5l-72 -339h-60l72 338q15 70 -8.5 105t-95.5 35q-28 0 -53 -8.5t-46.5 -22.5t-38.5 -32t-28 -38q-14 -25 -21 -48t-13 -50l-59 -279h-60zM535 892h65
l-143 -139h-67l-84 139h65l60 -102z" />
    <glyph glyph-name="Adotaccent" unicode="&#x226;" horiz-adv-x="667" 
d="M15 0zM15 0l436 720h77l123 -720h-70l-35 226h-328l-133 -226h-70zM253 284h282l-60 378zM485 875h65l-22 -102h-65z" />
    <glyph glyph-name="adotaccent" unicode="&#x227;" 
d="M67 0zM469 272q-42 -16 -81.5 -21t-79.5 -8q-70 -5 -114.5 -31t-55.5 -79q-5 -24 1 -41.5t19.5 -29t32.5 -17t40 -5.5q36 0 71.5 9t66 27.5t52.5 47t31 67.5zM374 302q17 2 41.5 6t41.5 11t23.5 23.5t9.5 30.5q5 23 2 42t-15.5 33t-35 22t-57.5 8q-62 0 -108 -25t-68 -92
h-61q13 46 37.5 78.5t57.5 53t72.5 30t81.5 9.5q39 0 71.5 -8.5t54 -27t29.5 -49.5t-1 -76l-60 -282q-8 -35 2.5 -44.5t51.5 4.5l-10 -47q-7 -2 -21.5 -6t-27.5 -4t-26 3q-29 5 -33 27.5t1 49.5q-47 -42 -100.5 -64t-110.5 -22q-34 0 -63.5 9t-49.5 28t-28 46.5t0 65.5
q27 132 214 156zM401 688h65l-22 -102h-65z" />
    <glyph glyph-name="Ecedilla" unicode="&#x228;" horiz-adv-x="611" 
d="M81 0zM81 0l153 720h479l-12 -58h-411l-56 -260h371l-12 -58h-371l-61 -286h421l-12 -58h-489zM209 -158q15 -5 29.5 -10t31.5 -5q11 0 23 2.5t23 8t19 14.5t11 22q5 20 -8.5 29.5t-32.5 9.5q-11 0 -22.5 -2.5t-23.5 -5.5l-12 13l77 82h39l-60 -59q10 2 19.5 4t18.5 2
q33 0 50 -16.5t16 -35.5q-1 -27 -13 -46.5t-30.5 -31.5t-41.5 -18t-47 -6q-23 0 -45 5.5t-42 13.5z" />
    <glyph glyph-name="ecedilla" unicode="&#x229;" 
d="M88 0zM510 295q8 38 4.5 71.5t-18.5 58t-43 39t-68 14.5t-73.5 -15t-60.5 -40t-47 -58t-32 -70h338zM161 245q-9 -42 -6 -79.5t19 -65t45.5 -44t72.5 -16.5q59 0 107.5 31t74.5 88h67q-19 -37 -43.5 -68.5t-56.5 -55t-72 -36.5t-89 -13q-62 0 -102.5 21t-62 57.5
t-24.5 86t9 106.5t39 107t65.5 87.5t87 59t104.5 21.5q107 0 152.5 -73.5t14.5 -213.5h-402zM177 -170q15 -5 29.5 -10t31.5 -5q11 0 23 2.5t23 8t19 14.5t11 22q5 20 -8.5 29.5t-32.5 9.5q-11 0 -22.5 -2.5t-23.5 -5.5l-12 13l77 82h39l-60 -59q10 2 19.5 4t18.5 2
q33 0 50 -16.5t16 -35.5q-1 -27 -13 -46.5t-30.5 -31.5t-41.5 -18t-47 -6q-23 0 -45 5.5t-42 13.5z" />
    <glyph glyph-name="Odieresismacron" unicode="&#x22a;" horiz-adv-x="778" 
d="M112 0zM129 359q16 79 52.5 148t90 120.5t121.5 81.5t149 30q84 0 141.5 -29.5t89 -81t38 -121t-10.5 -148.5q-17 -78 -52.5 -146.5t-88.5 -120t-122.5 -81.5t-152.5 -30t-139.5 30t-87.5 81.5t-38 120t10 146.5zM397 39q70 0 126 26.5t98 70.5t70 102t41 121
q16 75 10 134.5t-32 101.5t-71 64t-107 22q-69 0 -125 -27t-98 -71.5t-70.5 -102.5t-41.5 -121q-14 -64 -10.5 -122t26.5 -102t68 -70t116 -26zM485 888h65l-22 -102h-65zM644 888h65l-22 -102h-65zM466 980h296l-10 -45h-296z" />
    <glyph glyph-name="odieresismacron" unicode="&#x22b;" 
d="M79 0zM275 -14q-50 1 -89.5 18t-65 51t-33.5 85t6 119q12 57 37.5 106.5t63.5 86.5t87.5 58.5t109.5 21.5q61 0 101.5 -21.5t62.5 -58t26 -86.5t-8 -107q-13 -62 -41 -112t-67 -86t-87.5 -55.5t-102.5 -19.5zM509 259q9 46 8 86t-15.5 69.5t-44 46.5t-77.5 17
q-47 0 -84.5 -18.5t-65.5 -49t-46 -70t-27 -81.5q-10 -48 -7 -88.5t19 -69.5t45.5 -45t72.5 -16q47 0 84.5 18.5t65 49.5t45.5 70t27 81zM311 686h65l-22 -102h-65zM470 686h65l-22 -102h-65zM305 790h296l-10 -45h-296z" />
    <glyph glyph-name="Otildemacron" unicode="&#x22c;" horiz-adv-x="778" 
d="M112 0zM129 359q16 79 52.5 148t90 120.5t121.5 81.5t149 30q84 0 141.5 -29.5t89 -81t38 -121t-10.5 -148.5q-17 -78 -52.5 -146.5t-88.5 -120t-122.5 -81.5t-152.5 -30t-139.5 30t-87.5 81.5t-38 120t10 146.5zM397 39q70 0 126 26.5t98 70.5t70 102t41 121
q16 75 10 134.5t-32 101.5t-71 64t-107 22q-69 0 -125 -27t-98 -71.5t-70.5 -102.5t-41.5 -121q-14 -64 -10.5 -122t26.5 -102t68 -70t116 -26zM434 789q5 18 13.5 32.5t18.5 26.5q20 21 45.5 31.5t50.5 4.5q13 -3 27.5 -10t29.5 -14.5t29.5 -13t27.5 -5.5q22 0 34 16t20 34
h38q-3 -10 -7 -19.5t-9 -18.5q-16 -24 -37 -42t-50 -18q-21 0 -38 7t-33 15.5t-32 15.5t-33 7q-23 0 -36 -15t-23 -34h-36zM491 977h296l-10 -45h-296z" />
    <glyph glyph-name="otildemacron" unicode="&#x22d;" 
d="M79 0zM275 -14q-50 1 -89.5 18t-65 51t-33.5 85t6 119q12 57 37.5 106.5t63.5 86.5t87.5 58.5t109.5 21.5q61 0 101.5 -21.5t62.5 -58t26 -86.5t-8 -107q-13 -62 -41 -112t-67 -86t-87.5 -55.5t-102.5 -19.5zM509 259q9 46 8 86t-15.5 69.5t-44 46.5t-77.5 17
q-47 0 -84.5 -18.5t-65.5 -49t-46 -70t-27 -81.5q-10 -48 -7 -88.5t19 -69.5t45.5 -45t72.5 -16q47 0 84.5 18.5t65 49.5t45.5 70t27 81zM247 584q5 18 13.5 32.5t18.5 26.5q20 21 45.5 31.5t50.5 4.5q13 -3 27.5 -10t29.5 -14.5t29.5 -13t27.5 -5.5q22 0 34 16t20 34h38
q-3 -10 -7 -19.5t-9 -18.5q-16 -24 -37 -42t-50 -18q-21 0 -38 7t-33 15.5t-32 15.5t-33 7q-23 0 -36 -15t-23 -34h-36zM315 785h296l-10 -45h-296z" />
    <glyph glyph-name="Odotaccent" unicode="&#x22e;" horiz-adv-x="778" 
d="M112 0zM129 359q16 79 52.5 148t90 120.5t121.5 81.5t149 30q84 0 141.5 -29.5t89 -81t38 -121t-10.5 -148.5q-17 -78 -52.5 -146.5t-88.5 -120t-122.5 -81.5t-152.5 -30t-139.5 30t-87.5 81.5t-38 120t10 146.5zM397 39q70 0 126 26.5t98 70.5t70 102t41 121
q16 75 10 134.5t-32 101.5t-71 64t-107 22q-69 0 -125 -27t-98 -71.5t-70.5 -102.5t-41.5 -121q-14 -64 -10.5 -122t26.5 -102t68 -70t116 -26zM567 889h65l-22 -102h-65z" />
    <glyph glyph-name="odotaccent" unicode="&#x22f;" 
d="M79 0zM275 -14q-50 1 -89.5 18t-65 51t-33.5 85t6 119q12 57 37.5 106.5t63.5 86.5t87.5 58.5t109.5 21.5q61 0 101.5 -21.5t62.5 -58t26 -86.5t-8 -107q-13 -62 -41 -112t-67 -86t-87.5 -55.5t-102.5 -19.5zM509 259q9 46 8 86t-15.5 69.5t-44 46.5t-77.5 17
q-47 0 -84.5 -18.5t-65.5 -49t-46 -70t-27 -81.5q-10 -48 -7 -88.5t19 -69.5t45.5 -45t72.5 -16q47 0 84.5 18.5t65 49.5t45.5 70t27 81zM391 686h65l-22 -102h-65z" />
    <glyph glyph-name="Odotaccentmacron" unicode="&#x230;" horiz-adv-x="778" 
d="M112 0zM129 359q16 79 52.5 148t90 120.5t121.5 81.5t149 30q84 0 141.5 -29.5t89 -81t38 -121t-10.5 -148.5q-17 -78 -52.5 -146.5t-88.5 -120t-122.5 -81.5t-152.5 -30t-139.5 30t-87.5 81.5t-38 120t10 146.5zM397 39q70 0 126 26.5t98 70.5t70 102t41 121
q16 75 10 134.5t-32 101.5t-71 64t-107 22q-69 0 -125 -27t-98 -71.5t-70.5 -102.5t-41.5 -121q-14 -64 -10.5 -122t26.5 -102t68 -70t116 -26zM559 891h65l-22 -102h-65zM458 989h296l-10 -45h-296z" />
    <glyph glyph-name="odotaccentmacron" unicode="&#x231;" 
d="M79 0zM275 -14q-50 1 -89.5 18t-65 51t-33.5 85t6 119q12 57 37.5 106.5t63.5 86.5t87.5 58.5t109.5 21.5q61 0 101.5 -21.5t62.5 -58t26 -86.5t-8 -107q-13 -62 -41 -112t-67 -86t-87.5 -55.5t-102.5 -19.5zM509 259q9 46 8 86t-15.5 69.5t-44 46.5t-77.5 17
q-47 0 -84.5 -18.5t-65.5 -49t-46 -70t-27 -81.5q-10 -48 -7 -88.5t19 -69.5t45.5 -45t72.5 -16q47 0 84.5 18.5t65 49.5t45.5 70t27 81zM391 686h65l-22 -102h-65zM297 782h296l-10 -45h-296z" />
    <glyph glyph-name="Ymacron" unicode="&#x232;" horiz-adv-x="611" 
d="M165 0zM381 373l291 347h79l-347 -406l-67 -314h-68l66 309l-170 411h78zM311 812h296l-10 -45h-296z" />
    <glyph glyph-name="ymacron" unicode="&#x233;" horiz-adv-x="500" 
d="M26 0zM38 -141q11 -2 23.5 -4t25.5 -2q25 0 44.5 16t34.5 38.5t27.5 47t24.5 41.5l-90 522h67l72 -445l260 445h65l-302 -511q-29 -49 -53 -88t-48 -66.5t-50 -42t-57 -14.5q-16 0 -30.5 2t-25.5 5zM228 618h296l-10 -45h-296z" />
    <glyph glyph-name="uni0237" unicode="&#x237;" horiz-adv-x="222" 
d="M258 518l-125 -587q-7 -33 -15 -58t-22 -42.5t-36.5 -26t-58.5 -8.5q-22 0 -39 4l12 53q50 -7 69.5 11t28.5 59l126 595h60z" />
    <glyph glyph-name="uni0238" unicode="&#x238;" horiz-adv-x="960" 
d="M603 720h60l-61 -285q39 48 95 72.5t111 24.5q59 0 97.5 -22.5t59 -60t24 -87.5t-8.5 -104q-12 -57 -35.5 -107t-60 -86.5t-84.5 -57.5t-111 -21q-25 0 -49.5 7t-46.5 20t-38.5 32.5t-23.5 45.5h-2l-19 -91h-60l19 91h-2q-19 -26 -43.5 -45.5t-51.5 -32.5t-54.5 -20
t-52.5 -7q-63 0 -103 21t-60.5 57.5t-23 86.5t9.5 107q12 54 36.5 104t61 87.5t85 60t107.5 22.5q55 0 100 -24.5t64 -72.5zM565 261l-3 -14q-7 -39 -5 -74q4 -40 19.5 -69.5t45 -46.5t71.5 -17q38 0 73 13.5t64.5 39.5t51 63.5t31.5 86.5q13 49 12 91.5t-16.5 74.5
t-46 50.5t-76.5 18.5q-41 0 -77 -17.5t-65 -47t-49.5 -69t-29.5 -83.5zM505 261l2 11q6 38 4 72q-4 40 -20 69.5t-45 47t-70 17.5q-47 0 -85 -18.5t-66.5 -50.5t-47.5 -74.5t-28 -91.5q-10 -49 -4.5 -86.5t24 -63.5t47.5 -39.5t67 -13.5q42 0 78.5 17t65 46.5t48.5 70
t30 87.5z" />
    <glyph glyph-name="uni0239" unicode="&#x239;" horiz-adv-x="960" 
d="M560 518h60l-20 -91h2q19 25 43.5 45t52 33t55 20t52.5 7q63 0 102.5 -21t60 -57.5t23 -86.5t-9.5 -107q-12 -54 -36.5 -104t-61 -87.5t-84.5 -60t-107 -22.5q-55 0 -100.5 24.5t-64.5 72.5l-61 -287h-60l61 287q-39 -48 -94.5 -72.5t-110.5 -24.5q-59 0 -98 22.5
t-59.5 60t-24 87.5t8.5 104q12 57 35.5 107t60 86.5t85 57.5t111.5 21q25 0 49.5 -7t46 -20t38 -33t23.5 -45h2zM564 257l-2 -11q-7 -38 -4 -73q4 -39 20 -68.5t45 -47t70 -17.5q46 0 84.5 18.5t67 50.5t48 74.5t27.5 91.5q10 49 4.5 86.5t-24 63.5t-47.5 39.5t-67 13.5
q-42 0 -78.5 -17t-65 -46.5t-48.5 -70t-30 -87.5zM511 344q-4 40 -20 69.5t-45 47t-70 17.5q-47 0 -85 -18.5t-66.5 -50.5t-47.5 -74.5t-28 -91.5q-10 -49 -4.5 -86.5t24 -63.5t47.5 -39.5t67 -13.5q42 0 78.5 17t65 46.5t47.5 69.5q18 36 28 76l5 23q6 38 4 72z" />
    <glyph glyph-name="uni0259" unicode="&#x259;" horiz-adv-x="529" 
d="M259 -13q-62 0 -101.5 25t-58.5 65.5t-20.5 93t11.5 106.5h400q8 34 6 70.5t-17 65.5t-42.5 48t-72.5 19q-69 0 -116 -36t-75 -96h-63q39 88 103 136t162 48q61 0 100.5 -21.5t59.5 -59t23 -87t-8 -104.5q-11 -51 -35 -100t-60 -87.5t-85.5 -62t-110.5 -23.5zM270 40
q39 0 72.5 15.5t59.5 41t46 59t31 68.5h-334q-7 -36 -2.5 -69t20.5 -58.5t42.5 -41t64.5 -15.5z" />
    <glyph glyph-name="commaturnedmod" unicode="&#x2bb;" horiz-adv-x="222" 
d="M174 495zM199 613q10 44 36 70.5t60 36.5l-8 -37q-14 -8 -27.5 -22t-20.5 -44l-7 -34h34l-19 -88h-73z" />
    <glyph glyph-name="afii57929" unicode="&#x2bc;" horiz-adv-x="222" 
d="M185 495zM281 602q-9 -44 -35.5 -70.5t-60.5 -36.5l8 37q14 8 28 22t20 44l7 34h-34l19 88h73z" />
    <glyph glyph-name="circumflex" unicode="&#x2c6;" horiz-adv-x="333" 
d="M211 574h-65l144 139h67l83 -139h-65l-60 102z" />
    <glyph glyph-name="caron" unicode="&#x2c7;" horiz-adv-x="333" 
d="M405 713h65l-143 -139h-67l-84 139h65l60 -102z" />
    <glyph glyph-name="uni02C9" unicode="&#x2c9;" horiz-adv-x="333" 
d="M163 657h296l-10 -45h-296z" />
    <glyph glyph-name="breve" unicode="&#x2d8;" horiz-adv-x="333" 
d="M217 706q-1 -42 22.5 -61.5t65.5 -19.5t73 19.5t51 61.5h37q-20 -63 -67 -94.5t-109 -31.5q-60 0 -90 33t-22 93h39z" />
    <glyph glyph-name="dotaccent" unicode="&#x2d9;" horiz-adv-x="333" 
d="M280 686h65l-22 -102h-65z" />
    <glyph glyph-name="ring" unicode="&#x2da;" horiz-adv-x="333" 
d="M290 578q-41 0 -64.5 29t-14.5 70q4 20 16 38t28.5 32t36.5 22t40 8t36.5 -8t27 -22t14.5 -32t0 -38q-5 -20 -16.5 -38t-28 -31.5t-36 -21.5t-39.5 -8zM297 611q26 0 50 20t30 46q5 26 -10 46.5t-42 20.5t-51 -20t-30 -47t10.5 -46.5t42.5 -19.5z" />
    <glyph glyph-name="ogonek" unicode="&#x2db;" horiz-adv-x="333" 
d="M199 0v-2q-14 -6 -29.5 -14.5t-30 -20t-25.5 -24.5t-14 -28q-6 -29 11.5 -43t43.5 -14q21 0 44 9l-9 -44q-29 -9 -54 -9q-20 0 -37 5.5t-29 16.5t-17.5 27.5t-0.5 37.5q8 35 36.5 61.5t60.5 41.5h50z" />
    <glyph glyph-name="tilde" unicode="&#x2dc;" horiz-adv-x="333" 
d="M141 586q5 18 13.5 32.5t18.5 26.5q20 21 45.5 31.5t50.5 4.5q13 -3 27.5 -10t29.5 -14.5t29.5 -13t27.5 -5.5q22 0 34 16t20 34h38q-3 -10 -7 -19.5t-9 -18.5q-16 -24 -37 -42t-50 -18q-21 0 -38 7t-33 15.5t-32 15.5t-33 7q-23 0 -36 -15t-23 -34h-36z" />
    <glyph glyph-name="hungarumlaut" unicode="&#x2dd;" horiz-adv-x="333" 
d="M231 574l141 139h77l-167 -139h-51zM393 574l141 139h77l-167 -139h-51z" />
    <glyph glyph-name="uni02EE" unicode="&#x2ee;" horiz-adv-x="389" 
d="M184 495zM431 602q-9 -44 -35.5 -70.5t-60.5 -36.5l8 37q14 8 28 22t20 44l7 34h-34l19 88h73zM280 602q-9 -44 -35.5 -70.5t-60.5 -36.5l8 37q14 8 28 22t20 44l7 34h-34l19 88h73z" />
    <glyph glyph-name="gravecmb" unicode="&#x300;" horiz-adv-x="208" 
d="M26 574zM26 713h78l81 -139h-51z" />
    <glyph glyph-name="acutecmb" unicode="&#x301;" horiz-adv-x="0" 
d="M-9 574zM-227 574l141 139h77l-167 -139h-51z" />
    <glyph glyph-name="circumflexcmb" unicode="&#x302;" horiz-adv-x="313" 
d="M12 574zM77 574h-65l144 139h67l83 -139h-65l-60 102z" />
    <glyph glyph-name="tildecmb" unicode="&#x303;" horiz-adv-x="353" 
d="M9 586zM9 586q5 18 13.5 32.5t18.5 26.5q20 21 45.5 31.5t50.5 4.5q13 -3 27.5 -10t29.5 -14.5t29.5 -13t27.5 -5.5q22 0 34 16t20 34h38q-3 -10 -7 -19.5t-9 -18.5q-16 -24 -37 -42t-50 -18q-21 0 -38 7t-33 15.5t-32 15.5t-33 7q-23 0 -36 -15t-23 -34h-36z" />
    <glyph glyph-name="uni0304" unicode="&#x304;" horiz-adv-x="0" 
d="M-421 657h296l-10 -45h-296z" />
    <glyph glyph-name="uni0306" unicode="&#x306;" horiz-adv-x="0" 
d="M-379 706q-1 -42 22.5 -61.5t65.5 -19.5t73 19.5t51 61.5h37q-20 -63 -67 -94.5t-109 -31.5q-60 0 -90 33t-22 93h39z" />
    <glyph glyph-name="uni0307" unicode="&#x307;" horiz-adv-x="0" 
d="M-299 686h65l-22 -102h-65z" />
    <glyph glyph-name="dieresiscmb" unicode="&#x308;" horiz-adv-x="273" 
d="M14 584zM36 686h65l-22 -102h-65zM195 686h65l-22 -102h-65z" />
    <glyph glyph-name="ringcmb" unicode="&#x30a;" horiz-adv-x="239" 
d="M11 578zM99 578q-41 0 -64.5 29t-14.5 70q4 20 16 38t28.5 32t36.5 22t40 8t36.5 -8t27 -22t14.5 -32t0 -38q-5 -20 -16.5 -38t-28 -31.5t-36 -21.5t-39.5 -8zM106 611q26 0 50 20t30 46q5 26 -10 46.5t-42 20.5t-51 -20t-30 -47t10.5 -46.5t42.5 -19.5z" />
    <glyph glyph-name="uni030B" unicode="&#x30b;" horiz-adv-x="0" 
d="M-468 574l141 139h77l-167 -139h-51zM-306 574l141 139h77l-167 -139h-51z" />
    <glyph glyph-name="caroncmb" unicode="&#x30c;" horiz-adv-x="307" 
d="M10 574zM239 713h65l-143 -139h-67l-84 139h65l60 -102z" />
    <glyph glyph-name="uni030F" unicode="&#x30f;" horiz-adv-x="0" 
d="M-272 713h78l81 -139h-51zM-442 713h78l81 -139h-51z" />
    <glyph glyph-name="uni0311" unicode="&#x311;" horiz-adv-x="0" 
d="M-177 580q1 42 -22.5 61.5t-65.5 19.5t-73 -19.5t-51 -61.5h-37q20 63 67 94.5t109 31.5q60 0 90 -33t22 -93h-39z" />
    <glyph glyph-name="uni0312" unicode="&#x312;" horiz-adv-x="0" 
d="M-313 613q9 44 35.5 70.5t60.5 36.5l-8 -37q-14 -8 -28 -22t-20 -44l-7 -34h34l-19 -88h-73z" />
    <glyph glyph-name="uni0313" unicode="&#x313;" horiz-adv-x="0" 
d="M-242 602q-9 -44 -35.5 -70.5t-60.5 -36.5l8 37q14 8 28 22t20 44l7 34h-34l19 88h73z" />
    <glyph glyph-name="uni0316" unicode="&#x316;" horiz-adv-x="0" 
d="M-357 -110h78l81 -139h-51z" />
    <glyph glyph-name="uni0317" unicode="&#x317;" horiz-adv-x="0" 
d="M-387 -249l141 139h77l-167 -139h-51z" />
    <glyph glyph-name="horncmb" unicode="&#x31b;" horiz-adv-x="0" 
d="M59 677h53l-27 -131q-6 -28 -21.5 -48.5t-36.5 -34t-45.5 -20.5t-48.5 -7h-49l10 45h52q72 0 87 72z" />
    <glyph glyph-name="dotbelowcomb" unicode="&#x323;" horiz-adv-x="0" 
d="M-299 -137h65l-22 -102h-65z" />
    <glyph glyph-name="uni0324" unicode="&#x324;" horiz-adv-x="0" 
d="M-153 -135zM-377 -135h65l-22 -102h-65zM-218 -135h65l-22 -102h-65z" />
    <glyph glyph-name="uni0325" unicode="&#x325;" horiz-adv-x="0" 
d="M-170 -44zM-294 -243q-41 0 -64.5 29t-14.5 70q4 20 16 38t28.5 32t36.5 22t40 8t36.5 -8t27 -22t14.5 -32t0 -38q-5 -20 -16.5 -38t-28 -31.5t-36 -21.5t-39.5 -8zM-287 -210q26 0 50 20t30 46q5 26 -10 46.5t-42 20.5t-51 -20t-30 -47t10.5 -46.5t42.5 -19.5z" />
    <glyph glyph-name="uni0326" unicode="&#x326;" horiz-adv-x="0" 
d="M-242 -140q-10 -44 -36 -70.5t-60 -36.5l8 37q14 8 27.5 22t20.5 44l7 34h-34l19 88h73z" />
    <glyph glyph-name="cedillacmb" unicode="&#x327;" horiz-adv-x="248" 
d="M12 0zM33 -158q15 -5 29.5 -10t31.5 -5q11 0 23 2.5t23 8t19 14.5t11 22q5 20 -8.5 29.5t-32.5 9.5q-11 0 -22.5 -2.5t-23.5 -5.5l-12 13l77 82h39l-60 -59q10 2 19.5 4t18.5 2q33 0 50 -16.5t16 -35.5q-1 -27 -13 -46.5t-30.5 -31.5t-41.5 -18t-47 -6q-23 0 -45 5.5
t-42 13.5z" />
    <glyph glyph-name="ogonekcmb" unicode="&#x328;" horiz-adv-x="333" 
d="M47 0zM199 0v-2q-14 -6 -29.5 -14.5t-30 -20t-25.5 -24.5t-14 -28q-6 -29 11.5 -43t43.5 -14q21 0 44 9l-9 -44q-29 -9 -54 -9q-20 0 -37 5.5t-29 16.5t-17.5 27.5t-0.5 37.5q8 35 36.5 61.5t60.5 41.5h50z" />
    <glyph glyph-name="uni032C" unicode="&#x32c;" horiz-adv-x="0" 
d="M-129 -108zM-194 -108h65l-143 -139h-67l-84 139h65l60 -102z" />
    <glyph glyph-name="uni032D" unicode="&#x32d;" horiz-adv-x="0" 
d="M-129 -108zM-358 -247h-65l144 139h67l83 -139h-65l-60 102z" />
    <glyph glyph-name="uni032E" unicode="&#x32e;" horiz-adv-x="0" 
d="M-379 -117q-1 -42 22.5 -61.5t65.5 -19.5t73 19.5t51 61.5h37q-20 -63 -67 -94.5t-109 -31.5q-60 0 -90 33t-22 93h39z" />
    <glyph glyph-name="uni032F" unicode="&#x32f;" horiz-adv-x="0" 
d="M-177 -243q1 42 -22.5 61.5t-65.5 19.5t-73 -19.5t-51 -61.5h-37q20 63 67 94.5t109 31.5q60 0 90 -33t22 -93h-39z" />
    <glyph glyph-name="tildebelowcmb" unicode="&#x330;" horiz-adv-x="0" 
d="M-369 -172q6 18 14 32.5t18 26.5q20 21 45.5 31.5t50.5 4.5q13 -3 28 -10t29.5 -14.5t29 -13t27.5 -5.5q22 0 34.5 16t20.5 34h38q-4 -10 -8.5 -19.5t-7.5 -18.5q-17 -24 -37.5 -42t-49.5 -18q-21 0 -38 7t-33.5 15.5t-32.5 15.5t-33 7q-23 0 -36 -15t-23 -34h-36z" />
    <glyph glyph-name="macronbelowcmb" unicode="&#x331;" horiz-adv-x="500" 
d="M0 -75zM484 -75l-11 -50h-500l11 50h500z" />
    <glyph glyph-name="gravetonecmb" unicode="&#x340;" horiz-adv-x="213" 
d="M158 713h78l82 -139h-51z" />
    <glyph glyph-name="acutetonecmb" unicode="&#x341;" horiz-adv-x="202" 
d="M129 574l140 139h77l-166 -139h-51z" />
    <glyph glyph-name="uni0342" unicode="&#x342;" horiz-adv-x="0" 
d="M-298 580q18 60 62 93t104 33q62 0 95 -31.5t27 -94.5h-37q-2 42 -25 61.5t-65 19.5t-73.5 -19.5t-48.5 -61.5h-39z" />
    <glyph glyph-name="koroniscmb" unicode="&#x343;" horiz-adv-x="0" 
d="M-113 602q-9 -44 -35 -70.5t-60 -36.5l8 37q13 8 27 22t21 44l7 34h-34l19 88h73z" />
    <glyph glyph-name="dialytikatonoscmb" unicode="&#x344;" horiz-adv-x="304" 
d="M166 686h65l-21 -102h-65zM325 686h65l-21 -102h-65zM217 736l140 139h77l-166 -139h-51z" />
    <glyph glyph-name="uni0345" unicode="&#x345;" horiz-adv-x="0" 
d="M-342 -240q-48 0 -58 25.5t0 69.5l30 141h53l-31 -145q-8 -38 29 -38q11 0 21 4l-12 -53q-1 -2 -10 -3t-22 -1z" />
    <glyph glyph-name="uni0357" unicode="&#x357;" horiz-adv-x="0" 
d="M-229 611q26 0 50.5 20t29.5 46q6 26 -9 46.5t-42 20.5l7 33q20 0 36 -8t26.5 -22t15 -32t-0.5 -38q-4 -20 -16 -38t-28 -31.5t-36 -21.5t-40 -8z" />
    <glyph glyph-name="uni0374" unicode="&#x374;" horiz-adv-x="333" 
d="M209 474l162 239h77l-188 -239h-51z" />
    <glyph glyph-name="uni0375" unicode="&#x375;" horiz-adv-x="333" 
d="M289 -37l-162 -239h-77l188 239h51z" />
    <glyph glyph-name="questiongreek" unicode="&#x37e;" horiz-adv-x="278" 
d="M168 -30q-9 -44 -35 -70.5t-61 -36.5l8 37q14 8 28 22t20 44l8 34h-34l18 88h73zM187 404l19 88h73l-19 -88h-73z" />
    <glyph glyph-name="tonos" unicode="&#x384;" horiz-adv-x="278" 
d="M187 404l19 88h73l-19 -88h-73z" />
    <glyph glyph-name="dialytikatonos" unicode="&#x385;" horiz-adv-x="333" 
d="M205 686h65l-21 -102h-65zM364 686h65l-21 -102h-65zM236 736l140 139h77l-166 -139h-51z" />
    <glyph glyph-name="uni0386.AlphaTonos" unicode="&#x386;" horiz-adv-x="650" 
d="M191 573h-51l85 141h78zM533 280l-60 366l-221 -366h281zM528 714l129 -714h-73l-40 222h-325l-133 -222h-72l438 714h76z" />
    <glyph glyph-name="anoteleia" unicode="&#x387;" horiz-adv-x="278" 
d="M223 398q20 0 31 -14t7 -34t-21.5 -34.5t-37.5 -14.5t-31 14.5t-7 34.5t22 34t37 14z" />
    <glyph glyph-name="uni0388.EpsilonTonos" unicode="&#x388;" horiz-adv-x="706" 
d="M186 573h-51l85 141h78zM829 714l-12 -58h-425l-55 -258h398l-12 -58h-398l-60 -282h430l-12 -58h-498l151 714h493z" />
    <glyph glyph-name="uni0389.EtaTonos" unicode="&#x389;" horiz-adv-x="817" 
d="M186 573h-51l85 141h78zM404 714l-66 -310h424l66 310h68l-151 -714h-68l73 346h-424l-73 -346h-68l151 714h68z" />
    <glyph glyph-name="uni038A.IotaTonos" unicode="&#x38a;" horiz-adv-x="335" 
d="M186 573h-51l85 141h78zM409 714l-151 -714h-68l151 714h68z" />
    <glyph glyph-name="uni038C.OmicronTonos" unicode="&#x38c;" horiz-adv-x="814" 
d="M186 573h-51l85 141h78zM250 357q-12 -58 -8.5 -114.5t26.5 -101t68.5 -71.5t116.5 -27t127 27t98 71.5t69.5 101t39.5 114.5q13 59 9.5 115t-26.5 100.5t-68 71.5t-116 27t-127.5 -27t-98.5 -71.5t-69.5 -100.5t-40.5 -115zM182 357q16 74 51.5 141t88 118.5t122.5 82
t154 30.5t140.5 -30.5t88 -82t38 -118.5t-9.5 -141q-15 -74 -50.5 -141t-88.5 -118t-122 -81.5t-153 -30.5t-141.5 30.5t-88.5 81.5t-37.5 118t8.5 141z" />
    <glyph glyph-name="uni038E.UpsilonTonos" unicode="&#x38e;" horiz-adv-x="784" 
d="M186 573h-51l85 141h78zM315 714h80l158 -362l311 362h81l-371 -420l-62 -294h-68l62 294z" />
    <glyph glyph-name="uni038F.OmegaTonos" unicode="&#x38f;" horiz-adv-x="851" 
d="M186 573h-51l85 141h78zM819 0h-251l10 48q51 30 95 72.5t78.5 90.5t57.5 99.5t34 101.5q13 60 5 108t-35 81.5t-72.5 51.5t-107.5 18t-115.5 -18t-94.5 -51.5t-69 -81.5t-41 -108q-11 -50 -9 -101.5t15.5 -99.5t39.5 -90.5t65 -72.5l-10 -48h-251l12 58h156l1 4
q-25 24 -46 59t-34 79t-15 97.5t11 115.5q16 76 53 135t89 99t116.5 61t138.5 21t130.5 -21t91.5 -61t46 -99t-5 -135q-13 -62 -38 -115.5t-56 -97.5t-67 -79t-71 -59l-1 -4h156z" />
    <glyph glyph-name="uni0390.iotaDiaeresisTonos" unicode="&#x390;" horiz-adv-x="239" 
d="M156 0q-48 0 -58.5 25.5t-0.5 69.5l89 421h63l-90 -425q-8 -38 29 -38q11 0 21 4l-12 -53q-11 -2 -19.5 -3t-21.5 -1zM104 596l22 101h68l-22 -101h-68zM227 573h-51l85 141h78zM334 596l22 101h68l-22 -101h-68z" />
    <glyph glyph-name="uni0391.Alpha" unicode="&#x391;" horiz-adv-x="630" 
d="M513 280l-60 366l-221 -366h281zM508 714l129 -714h-73l-40 222h-325l-133 -222h-72l438 714h76z" />
    <glyph glyph-name="uni0392.Beta" unicode="&#x392;" horiz-adv-x="667" 
d="M459 401q41 0 73 9.5t55.5 26t38 38.5t19.5 47q29 134 -132 134h-234l-54 -255h234zM525 714q45 0 85 -8.5t67 -29t39 -54t1 -83.5q-6 -28 -20.5 -54.5t-35.5 -48t-47 -36.5t-55 -21v-2q67 -9 98 -56.5t16 -117.5q-4 -17 -11.5 -38.5t-21.5 -44t-35.5 -44.5t-53.5 -38.5
t-75.5 -27t-101.5 -10.5h-302l151 714h302zM386 58q38 0 73.5 6.5t65 23.5t50.5 45.5t30 71.5q15 69 -26.5 103.5t-132.5 34.5h-234l-60 -285h234z" />
    <glyph glyph-name="uni0393.Gamma" unicode="&#x393;" horiz-adv-x="537" 
d="M223 714h453l-12 -58h-385l-139 -656h-68z" />
    <glyph glyph-name="uni0394.Delta" unicode="&#x394;" horiz-adv-x="674" 
d="M466 630l-331 -558h430zM13 0l430 714h83l136 -714h-649z" />
    <glyph glyph-name="uni0395.Epsilon" unicode="&#x395;" horiz-adv-x="593" 
d="M716 714l-12 -58h-425l-55 -258h398l-12 -58h-398l-60 -282h430l-12 -58h-498l151 714h493z" />
    <glyph glyph-name="uni0396.Zeta" unicode="&#x396;" horiz-adv-x="574" 
d="M702 714l-12 -60l-597 -596h480l-12 -58h-556l12 60l597 596h-438l12 58h514z" />
    <glyph glyph-name="uni0397.Eta" unicode="&#x397;" horiz-adv-x="704" 
d="M291 714l-66 -310h424l66 310h68l-151 -714h-68l73 346h-424l-73 -346h-68l151 714h68z" />
    <glyph glyph-name="uni0398.Theta" unicode="&#x398;" horiz-adv-x="741" 
d="M177 357q-12 -59 -8.5 -115t26.5 -100.5t68.5 -71.5t116.5 -27q70 0 126.5 27t98.5 71.5t69.5 100.5t39.5 115q13 58 9.5 114.5t-26.5 101t-68.5 71.5t-115.5 27q-71 0 -127.5 -27t-98.5 -71.5t-69.5 -101t-40.5 -114.5zM109 357q16 73 51.5 140.5t88 119t122.5 82
t154 30.5t140.5 -30.5t88 -82t38 -119t-9.5 -140.5q-15 -74 -50.5 -141t-88.5 -118.5t-122.5 -82t-153.5 -30.5t-141 30.5t-88 82t-37.5 118.5t8.5 141zM275 330l12 58h330l-12 -58h-330z" />
    <glyph glyph-name="uni0399.Iota" unicode="&#x399;" horiz-adv-x="222" 
d="M296 714l-151 -714h-68l151 714h68z" />
    <glyph glyph-name="uni039A.Kappa" unicode="&#x39a;" horiz-adv-x="648" 
d="M291 714l-81 -384l496 384h92l-381 -295l245 -419h-88l-218 372l-164 -127l-52 -245h-68l151 714h68z" />
    <glyph glyph-name="uni039B.Lambda" unicode="&#x39b;" horiz-adv-x="630" 
d="M432 714h76l129 -714h-73l-111 646l-387 -646h-73z" />
    <glyph glyph-name="uni039C.Mu" unicode="&#x39c;" horiz-adv-x="833" 
d="M321 714l114 -626l379 626h100l-151 -714h-68l131 617h-2l-375 -617h-64l-114 617h-2l-131 -617h-68l151 714h100z" />
    <glyph glyph-name="uni039D.Nu" unicode="&#x39d;" horiz-adv-x="704" 
d="M298 714l288 -604h2l128 604h68l-151 -714h-76l-288 604h-2l-128 -604h-68l151 714h76z" />
    <glyph glyph-name="uni039E.Xi" unicode="&#x39e;" horiz-adv-x="587" 
d="M28 0l12 58h531l-12 -58h-531zM172 656l12 58h521l-12 -58h-521zM132 340l12 58h467l-12 -58h-467z" />
    <glyph glyph-name="uni039F.Omicron" unicode="&#x39f;" horiz-adv-x="741" 
d="M177 357q-12 -58 -8.5 -114.5t26.5 -101t68.5 -71.5t116.5 -27t127 27t98 71.5t69.5 101t39.5 114.5q13 59 9.5 115t-26.5 100.5t-68 71.5t-116 27t-127.5 -27t-98.5 -71.5t-69.5 -100.5t-40.5 -115zM109 357q16 74 51.5 141t88 118.5t122.5 82t154 30.5t140.5 -30.5
t88 -82t38 -118.5t-9.5 -141q-15 -74 -50.5 -141t-88.5 -118t-122 -81.5t-153 -30.5t-141.5 30.5t-88.5 81.5t-37.5 118t8.5 141z" />
    <glyph glyph-name="uni03A0.Pi" unicode="&#x3a0;" horiz-adv-x="704" 
d="M223 714h560l-151 -714h-68l139 656h-424l-139 -656h-68z" />
    <glyph glyph-name="uni03A1.Rho" unicode="&#x3a1;" horiz-adv-x="630" 
d="M451 364q71 0 122.5 36t67.5 110t-20.5 110t-107.5 36h-234l-62 -292h234zM540 714q48 0 84.5 -13.5t58.5 -40t29 -64.5t-3 -86t-33 -86t-57 -64.5t-75.5 -40t-89.5 -13.5h-249l-65 -306h-68l151 714h317z" />
    <glyph glyph-name="uni03A3.Sigma" unicode="&#x3a3;" horiz-adv-x="563" 
d="M497 377l-371 -319h426l-12 -58h-498l13 63l363 311l-239 275l14 65h493l-12 -58h-413z" />
    <glyph glyph-name="uni03A4.Tau" unicode="&#x3a4;" 
d="M712 714l-12 -58h-249l-139 -656h-68l139 656h-248l12 58h565z" />
    <glyph glyph-name="uni03A5.Upsilon" unicode="&#x3a5;" horiz-adv-x="611" 
d="M142 714h80l158 -362l311 362h81l-371 -420l-62 -294h-68l62 294z" />
    <glyph glyph-name="uni03A6.Phi" unicode="&#x3a6;" horiz-adv-x="741" 
d="M352 76q-75 4 -129.5 27t-86 61.5t-41 91.5t4.5 116q27 127 124 202.5t251 82.5l19 87h68l-19 -87q152 -7 217 -82t38 -203q-14 -63 -46 -116t-80.5 -91.5t-111.5 -61.5t-140 -27l-16 -76h-68zM730 372q21 103 -27 162t-172 65l-99 -465q125 7 200.5 71t97.5 167z
M168 372q-22 -103 25.5 -167t170.5 -71l99 465q-126 -6 -200 -65t-95 -162z" />
    <glyph glyph-name="uni03A7.Chi" unicode="&#x3a7;" horiz-adv-x="574" 
d="M234 714l139 -299l272 299h76l-318 -348l181 -366h-82l-151 315l-286 -315h-76l334 368l-169 346h80z" />
    <glyph glyph-name="uni03A8.Psi" unicode="&#x3a8;" horiz-adv-x="785" 
d="M509 714h68l-106 -501q40 2 76 11q52 12 91 38.5t66 69.5t40 105l59 277h68l-62 -292q-11 -55 -39.5 -104t-76 -85.5t-114.5 -57.5q-54 -17 -121 -20l-32 -155h-68l33 156q-65 4 -112 21q-57 21 -89 57t-39.5 84.5t3.5 103.5l62 292h68l-59 -277q-13 -62 -4 -104.5
t37 -68.5t74 -38q32 -9 71 -12z" />
    <glyph glyph-name="uni03A9" unicode="&#x3a9;" horiz-adv-x="725" 
d="M218 51q-23 24 -41.5 56.5t-29 72.5t-12 87t9.5 101q16 76 52.5 138t86.5 106t109.5 68t122.5 24q66 0 114 -26.5t76.5 -72t36.5 -106t-6 -127.5q-12 -56 -35 -105.5t-51.5 -90.5t-60.5 -72.5t-63 -52.5l-1 -3h156l-10 -48h-233l7 35q35 20 70.5 51t67 72.5t56 93
t37.5 111.5q10 49 6.5 101t-24 94.5t-59 69.5t-96.5 27q-55 0 -104.5 -23t-89 -63t-67.5 -93.5t-41 -114.5q-12 -56 -9 -107t16.5 -93t35.5 -74.5t48 -51.5l-7 -35h-233l10 48h154z" />
    <glyph glyph-name="uni03AA.IotaDiaeresis" unicode="&#x3aa;" horiz-adv-x="222" 
d="M296 714l-151 -714h-68l151 714h68zM181 904h67l-22 -101h-67zM357 904h68l-22 -101h-68z" />
    <glyph glyph-name="uni03AB.UpsilonDiaeresis" unicode="&#x3ab;" horiz-adv-x="611" 
d="M142 714h80l158 -362l311 362h81l-371 -420l-62 -294h-68l62 294zM375 904h67l-22 -101h-67zM551 904h68l-22 -101h-68z" />
    <glyph glyph-name="uni03AC.alphaTonos" unicode="&#x3ac;" horiz-adv-x="592" 
d="M542 0q-24 0 -37.5 6.5t-19 18.5t-4.5 28.5t6 36.5l1 8h-2q-15 -26 -40 -46.5t-54 -35.5t-60.5 -23t-59.5 -8q-59 0 -98.5 22t-61.5 59.5t-26.5 87t6.5 104.5q12 55 37.5 104.5t63.5 87t87 59.5t108 22q28 0 55.5 -7.5t49.5 -21.5t37 -35t19 -49h2l21 98h63l-90 -425
q-8 -38 29 -38q11 0 21 4l-12 -53q-11 -2 -19.5 -3t-21.5 -1zM155 258q-8 -40 -6 -79.5t17 -70.5t44 -50.5t74 -19.5q50 0 89.5 19.5t68.5 50.5t48 70.5t27 79.5q9 40 7 79.5t-18 70.5t-47.5 50.5t-81.5 19.5q-45 0 -82 -19.5t-65 -50.5t-47 -70.5t-28 -79.5zM398 573h-51
l85 141h78z" />
    <glyph glyph-name="uni03AD.epsilonTonos" unicode="&#x3ad;" horiz-adv-x="504" 
d="M472 376q5 45 -21 73.5t-92 28.5q-61 0 -105.5 -25.5t-54.5 -72.5q-9 -43 15 -62.5t75 -19.5h81l-12 -58h-79q-57 0 -92.5 -24.5t-45.5 -70.5q-12 -57 22.5 -82.5t101.5 -25.5q69 0 118.5 36.5t68.5 91.5h62q-31 -85 -98.5 -132.5t-178.5 -47.5q-37 0 -71.5 8.5t-60 27
t-37 49t-2.5 74.5q5 25 18 46t30.5 37t37 26.5t37.5 14.5l1 2q-30 9 -48.5 36.5t-8.5 71.5q8 37 30.5 65.5t54 48t70.5 29.5t80 10q85 0 129 -37t38 -118h-63zM373 573h-51l85 141h78z" />
    <glyph glyph-name="uni03AE.etaTonos" unicode="&#x3ae;" horiz-adv-x="537" 
d="M168 516h63l-19 -89h2q28 47 80 75.5t107 28.5q54 0 87.5 -14t50.5 -39.5t18 -62.5t-9 -83l-111 -523h-63l109 513q7 33 7 61.5t-10.5 49.5t-33.5 33t-61 12t-70.5 -13.5t-58 -37t-43.5 -56t-28 -70.5l-63 -301h-63zM386 573h-51l85 141h78z" />
    <glyph glyph-name="uni03AF.iotaTonos" unicode="&#x3af;" horiz-adv-x="190" 
d="M140 0q-48 0 -58.5 25.5t-0.5 69.5l89 421h63l-90 -425q-8 -38 29 -38q11 0 21 4l-12 -53q-11 -2 -19.5 -3t-21.5 -1zM210 573h-51l85 141h78z" />
    <glyph glyph-name="uni03B0.upsilonDiaeresisTonos" unicode="&#x3b0;" horiz-adv-x="522" 
d="M479 258q9 41 12 80t1 73t-7.5 61t-14.5 44h70q6 -15 10.5 -41.5t5.5 -60t-2 -73.5t-12 -83q-13 -62 -37 -112.5t-59 -86t-82.5 -55t-106.5 -19.5q-50 0 -85 10t-55.5 33.5t-26 61t6.5 91.5l71 335h63l-71 -336q-15 -70 9 -106t100 -36q45 0 79 16t59.5 44.5t43.5 69
t28 90.5zM244 596l22 101h68l-22 -101h-68zM367 573h-51l85 141h78zM474 596l22 101h68l-22 -101h-68z" />
    <glyph glyph-name="uni03B1.alpha" unicode="&#x3b1;" horiz-adv-x="592" 
d="M542 0q-24 0 -37.5 6.5t-19 18.5t-4.5 28.5t6 36.5l1 8h-2q-15 -26 -40 -46.5t-54 -35.5t-60.5 -23t-59.5 -8q-59 0 -98.5 22t-61.5 59.5t-26.5 87t6.5 104.5q12 55 37.5 104.5t63.5 87t87 59.5t108 22q28 0 55.5 -7.5t49.5 -21.5t37 -35t19 -49h2l21 98h63l-90 -425
q-8 -38 29 -38q11 0 21 4l-12 -53q-11 -2 -19.5 -3t-21.5 -1zM155 258q-8 -40 -6 -79.5t17 -70.5t44 -50.5t74 -19.5q50 0 89.5 19.5t68.5 50.5t48 70.5t27 79.5q9 40 7 79.5t-18 70.5t-47.5 50.5t-81.5 19.5q-45 0 -82 -19.5t-65 -50.5t-47 -70.5t-28 -79.5z" />
    <glyph glyph-name="uni03B2.beta" unicode="&#x3b2;" horiz-adv-x="545" 
d="M174 535q21 99 87 146.5t163 47.5q45 0 80.5 -11.5t58 -34t30.5 -55t-1 -75.5q-11 -54 -49.5 -96t-95.5 -54v-2q35 -3 59.5 -19.5t38 -42t16.5 -57.5t-5 -66q-11 -55 -37 -97t-62 -70t-81 -42.5t-96 -14.5q-39 0 -66 8t-44 20.5t-29 28.5q-3 4 -5 8l-53 -248h-63zM195 76
q35 -31 96 -31q32 0 64 8.5t59 28t47.5 49.5t29.5 74q11 52 -0.5 84t-39 49.5t-67.5 23.5t-86 6l11 53q33 0 68.5 6t66.5 20.5t53.5 39.5t31.5 64q12 57 -18.5 91t-96.5 34q-81 0 -122 -37t-56 -109l-84 -396q18 -35 43 -58z" />
    <glyph glyph-name="uni03B3.gamma" unicode="&#x3b3;" horiz-adv-x="463" 
d="M567 516q-34 -89 -75 -166.5t-84 -143.5t-85.5 -120.5t-80.5 -97.5l-38 -179h-63l29 139q17 80 18 160.5t-9.5 154.5t-28 138.5t-37.5 114.5h74q17 -38 31 -92t23.5 -114t12 -120t-2.5 -109h5q33 40 64.5 85t62.5 98t60.5 115.5t59.5 136.5h64z" />
    <glyph glyph-name="uni03B4.delta" unicode="&#x3b4;" 
d="M578 647q-16 13 -45.5 22t-88.5 9q-57 0 -84.5 -15.5t-33.5 -42.5q-2 -11 -2 -21.5t6.5 -21.5t21 -24.5t40.5 -31.5q33 -23 68 -41t65 -52q17 -18 29 -37t18 -42.5t5.5 -52.5t-8.5 -67q-10 -48 -35.5 -92.5t-63.5 -78t-88 -53.5t-109 -20t-100.5 18.5t-65.5 51.5
t-30.5 77.5t4.5 96.5q13 59 40.5 104t63 76.5t76 51.5t78.5 29l1 4q-47 23 -66 55.5t-11 70.5q12 54 60 82.5t141 28.5q59 0 86.5 -8.5t39.5 -18.5zM506 229q10 46 6 80.5t-20.5 60.5t-44.5 46.5t-66 39.5q-38 -7 -76 -25t-70.5 -46.5t-56 -67.5t-34.5 -88q-8 -38 -4 -72.5
t21 -60.5t48 -42t76 -16t82 16t65.5 42.5t47 61t26.5 71.5z" />
    <glyph glyph-name="uni03B5.epsilon" unicode="&#x3b5;" horiz-adv-x="504" 
d="M472 376q5 45 -21 73.5t-92 28.5q-61 0 -105.5 -25.5t-54.5 -72.5q-9 -43 15 -62.5t75 -19.5h81l-12 -58h-79q-57 0 -92.5 -24.5t-45.5 -70.5q-12 -57 22.5 -82.5t101.5 -25.5q69 0 118.5 36.5t68.5 91.5h62q-31 -85 -98.5 -132.5t-178.5 -47.5q-37 0 -71.5 8.5t-60 27
t-37 49t-2.5 74.5q5 25 18 46t30.5 37t37 26.5t37.5 14.5l1 2q-30 9 -48.5 36.5t-8.5 71.5q8 37 30.5 65.5t54 48t70.5 29.5t80 10q85 0 129 -37t38 -118h-63z" />
    <glyph glyph-name="uni03B6.zeta" unicode="&#x3b6;" horiz-adv-x="438" 
d="M326 53q51 0 75.5 -23.5t11.5 -82.5q-6 -27 -13.5 -49.5t-20.5 -51.5h-62q15 31 23 51.5t11 36.5q9 41 -2.5 53.5t-42.5 12.5h-42q-109 0 -155 69.5t-20 192.5q27 127 123 228t267 170h-258l11 54h352l-10 -48q-90 -33 -163 -77t-127 -96t-87.5 -110.5t-44.5 -120.5
q-19 -108 21 -158.5t124 -50.5h29z" />
    <glyph glyph-name="uni03B7.eta" unicode="&#x3b7;" horiz-adv-x="537" 
d="M168 516h63l-19 -89h2q28 47 80 75.5t107 28.5q54 0 87.5 -14t50.5 -39.5t18 -62.5t-9 -83l-111 -523h-63l109 513q7 33 7 61.5t-10.5 49.5t-33.5 33t-61 12t-70.5 -13.5t-58 -37t-43.5 -56t-28 -70.5l-63 -301h-63z" />
    <glyph glyph-name="uni03B8.theta" unicode="&#x3b8;" horiz-adv-x="574" 
d="M441 729q63 0 103.5 -26.5t60 -76t19.5 -119t-19 -156.5q-18 -87 -47 -155t-69 -115t-91.5 -71.5t-114.5 -24.5t-103.5 24.5t-60.5 71.5t-20 115t18 155q19 87 48 156.5t69.5 119t92 76t114.5 26.5zM430 676q-46 0 -84 -22t-68.5 -61t-53 -93.5t-38.5 -119.5h361
q12 65 12.5 119.5t-13 93.5t-42 61t-74.5 22zM295 38q46 0 83 20t67 57t52 89.5t38 117.5h-361q-12 -65 -12 -117.5t14 -89.5t43.5 -57t75.5 -20z" />
    <glyph glyph-name="uni03B9.iota" unicode="&#x3b9;" horiz-adv-x="190" 
d="M140 0q-48 0 -58.5 25.5t-0.5 69.5l89 421h63l-90 -425q-8 -38 29 -38q11 0 21 4l-12 -53q-11 -2 -19.5 -3t-21.5 -1z" />
    <glyph glyph-name="uni03BA.kappa" unicode="&#x3ba;" horiz-adv-x="500" 
d="M232 516l-53 -250l339 250h84l-260 -191l166 -325h-79l-145 281l-120 -85l-41 -196h-63l109 516h63z" />
    <glyph glyph-name="uni03BB.lambda" unicode="&#x3bb;" horiz-adv-x="480" 
d="M430 0q-29 0 -41 11.5t-15 29.5l-53 371l-250 -412h-67l302 486l-17 102q-3 18 -6.5 33.5t-11 26.5t-20.5 17t-34 6q-25 0 -44 -7l11 53q18 7 49 7q30 0 49 -5.5t31.5 -18.5t19.5 -35t12 -55l88 -536q2 -13 8.5 -17t20.5 -4q11 0 21 4l-12 -53q-11 -2 -19.5 -3t-21.5 -1z
" />
    <glyph glyph-name="uni03BC" unicode="&#x3bc;" 
d="M533 518h60l-110 -518h-60l15 72q-15 -14 -33 -29t-40.5 -27.5t-50 -21t-61.5 -8.5q-42 0 -71 10t-46 22l-47 -222h-60l153 722h60l-72 -340q-14 -67 9.5 -102.5t94.5 -35.5q37 0 69.5 14.5t58 40.5t44 62t27.5 79z" />
    <glyph glyph-name="uni03BD.nu" unicode="&#x3bd;" horiz-adv-x="471" 
d="M111 516h70l66 -453h2q79 109 144.5 223.5t111.5 229.5h65q-115 -266 -302 -516h-67z" />
    <glyph glyph-name="uni03BE.xi" unicode="&#x3be;" horiz-adv-x="445" 
d="M255 0q-54 0 -90 16.5t-56.5 44t-25.5 63t4 74.5q14 69 57 115t112 66v2q-43 15 -64 56t-10 93q21 96 87.5 148.5t162.5 52.5q77 0 126 -26l-12 -60q-52 33 -124 33q-78 0 -119 -35t-58 -113q-5 -25 -3.5 -47t15 -38.5t42.5 -26t79 -9.5h93l-12 -58h-97
q-98 0 -147.5 -39.5t-63.5 -106.5q-7 -33 -1.5 -61t23 -48t46 -31.5t68.5 -11.5h57q48 0 67.5 -23.5t7.5 -80.5q-7 -29 -14 -52.5t-21 -50.5h-62q14 27 22 48t12 40q9 39 2 52.5t-40 13.5h-63z" />
    <glyph glyph-name="uni03BF.omicron" unicode="&#x3bf;" 
d="M379 478q-45 0 -83 -19t-67 -50t-49 -70.5t-29 -80.5q-8 -41 -5 -80.5t19 -70.5t46 -50t75 -19t83 19t67 50t49 70.5t28 80.5q9 41 6 80.5t-19 70.5t-46 50t-75 19zM390 531q59 0 100 -22t64 -59t28.5 -86.5t-6.5 -105.5t-38.5 -105.5t-65 -86.5t-88.5 -58.5t-109 -21.5
t-100 21.5t-64.5 58.5t-29 86.5t6.5 105.5t38.5 105.5t65.5 86.5t89 59t109 22z" />
    <glyph glyph-name="pi" unicode="&#x3c0;" horiz-adv-x="561" 
d="M548 464l-68 -318q-7 -32 -10.5 -55.5t-5 -40.5t-1.5 -29t1 -21h-56q-5 11 -3 43t16 96l69 325h-196q-13 -51 -34 -117t-45.5 -131.5t-49.5 -123.5t-46 -92h-57q23 39 48 96.5t49 121.5t44 128.5t34 117.5q-51 0 -77 -3.5t-43 -9.5l-2 38q21 11 53.5 18t88.5 7h391
l-16 -50h-84z" />
    <glyph glyph-name="uni03C1.rho" unicode="&#x3c1;" horiz-adv-x="574" 
d="M113 253q13 58 37 109t61 88.5t88 59t117 21.5q59 0 98 -22t60 -59.5t24.5 -87t-8.5 -104.5q-11 -55 -35.5 -104.5t-61.5 -87t-85.5 -59.5t-107.5 -22q-29 0 -55 7t-47 21.5t-35 35.5t-18 49h-2l-61 -289h-63zM527 258q9 40 8 79.5t-15 70.5t-42 50.5t-73 19.5
q-53 0 -91.5 -18t-65.5 -48t-44 -70t-27 -84q-8 -40 -7 -79.5t16 -70.5t45.5 -50.5t80.5 -19.5q45 0 81 19.5t63 50.5t45 70.5t26 79.5z" />
    <glyph glyph-name="uni03C2.sigma1" unicode="&#x3c2;" horiz-adv-x="519" 
d="M499 354q-1 58 -29 91t-91 33q-45 0 -83 -19t-67 -50t-49 -70.5t-29 -80.5q-9 -42 -5 -79.5t22 -65t50 -44t79 -16.5h29q51 0 75.5 -23.5t11.5 -82.5q-6 -27 -13.5 -49.5t-20.5 -51.5h-62q15 31 23 51.5t11 36.5q9 41 -2.5 53.5t-42.5 12.5h-42q-54 0 -93 18t-61.5 51
t-28 81t6.5 108q12 55 38.5 105t65.5 87t89 59t109 22q83 0 131.5 -44t40.5 -133h-63z" />
    <glyph glyph-name="uni03C3.sigma" unicode="&#x3c3;" horiz-adv-x="569" 
d="M665 516l-11 -53h-130q35 -35 48.5 -88t-0.5 -117q-12 -56 -38 -105.5t-63.5 -86.5t-87.5 -59t-109 -22t-99.5 22t-64 59t-29 86.5t6.5 105.5q12 55 38 102.5t64.5 82t88 54t108.5 19.5h278zM376 463q-45 0 -82.5 -16.5t-66 -45t-48 -65.5t-28.5 -78q-8 -41 -5 -80.5
t19 -70.5t46 -50t75 -19t83 19t67 50t49 70.5t28 80.5q9 41 5.5 78t-20 65.5t-47 45t-75.5 16.5z" />
    <glyph glyph-name="uni03C4.tau" unicode="&#x3c4;" horiz-adv-x="441" 
d="M266 0q-48 0 -58.5 25.5t-0.5 69.5l78 368h-180l11 53h428l-11 -53h-185l-79 -372q-8 -38 29 -38q11 0 21 4l-12 -53q-11 -2 -19.5 -3t-21.5 -1z" />
    <glyph glyph-name="uni03C5.upsilon" unicode="&#x3c5;" horiz-adv-x="522" 
d="M479 258q9 41 12 80t1 73t-7.5 61t-14.5 44h70q6 -15 10.5 -41.5t5.5 -60t-2 -73.5t-12 -83q-13 -62 -37 -112.5t-59 -86t-82.5 -55t-106.5 -19.5q-50 0 -85 10t-55.5 33.5t-26 61t6.5 91.5l71 335h63l-71 -336q-15 -70 9 -106t100 -36q45 0 79 16t59.5 44.5t43.5 69
t28 90.5z" />
    <glyph glyph-name="uni03C6.phi" unicode="&#x3c6;" horiz-adv-x="659" 
d="M294 -15q-63 0 -107.5 22t-70.5 59t-33 86.5t5 105.5q12 55 40 105t69.5 87t95 59t117.5 22l29 135h63l-29 -135q64 0 108.5 -22t70 -59t32.5 -87t-5 -105q-12 -56 -40 -105.5t-69 -86.5t-95.5 -59t-117.5 -22l-37 -176h-63zM369 38q48 0 89.5 19t73.5 50t54 70.5
t30 80.5q9 41 4 80.5t-24.5 70.5t-53 50t-80.5 19zM151 258q-8 -41 -3 -80.5t24 -70.5t52.5 -50t81.5 -19l93 440q-47 0 -88.5 -19t-74 -50t-54.5 -70.5t-31 -80.5z" />
    <glyph glyph-name="uni03C7.chi" unicode="&#x3c7;" horiz-adv-x="463" 
d="M307 185l128 -376h-73l-106 327l-247 -327h-67l288 379l-119 328h73l96 -279l222 279h68z" />
    <glyph glyph-name="uni03C8.psi" unicode="&#x3c8;" horiz-adv-x="630" 
d="M587 258q9 41 12 80t1 73t-7.5 61t-14.5 44h70q6 -15 10.5 -41.5t5.5 -60t-2 -73.5t-12 -83q-13 -62 -40 -112.5t-66 -86t-89.5 -55t-108.5 -19.5l-37 -176h-63l37 176q-50 0 -89 10t-64.5 33.5t-35 61t2.5 91.5l71 335h63l-71 -336q-15 -70 22 -106t113 -36l133 628h63
l-133 -628q91 2 149.5 61t79.5 159z" />
    <glyph glyph-name="uni03C9.omega" unicode="&#x3c9;" horiz-adv-x="721" 
d="M151 258q-10 -50 -10 -90.5t9.5 -69t29 -44.5t46.5 -16q47 0 86.5 36t54.5 106l47 224h63l-47 -224q-15 -70 9.5 -106t71.5 -36q27 0 52.5 16t47 44.5t39.5 69t28 90.5q9 41 12 80t1 73t-7.5 61t-14.5 44h70q6 -15 10.5 -41.5t5.5 -60t-2 -73.5t-12 -83
q-13 -62 -36 -112.5t-54 -86t-70 -55t-84 -19.5q-50 0 -81 20t-42 65q-29 -45 -68.5 -65t-89.5 -20q-44 0 -74 19.5t-46.5 55t-18.5 86t11 112.5q9 43 23 83t30 73.5t31.5 60t27.5 41.5h70q-15 -17 -32.5 -44t-33.5 -61t-30 -73t-23 -80z" />
    <glyph glyph-name="uni03CA.iotaDiaeresis" unicode="&#x3ca;" horiz-adv-x="222" 
d="M156 0q-48 0 -58.5 25.5t-0.5 69.5l89 421h63l-90 -425q-8 -38 29 -38q11 0 21 4l-12 -53q-11 -2 -19.5 -3t-21.5 -1zM139 706h67l-22 -101h-67zM315 706h68l-22 -101h-68z" />
    <glyph glyph-name="uni03CB.upsilonDiaeresis" unicode="&#x3cb;" horiz-adv-x="522" 
d="M479 258q9 41 12 80t1 73t-7.5 61t-14.5 44h70q6 -15 10.5 -41.5t5.5 -60t-2 -73.5t-12 -83q-13 -62 -37 -112.5t-59 -86t-82.5 -55t-106.5 -19.5q-50 0 -85 10t-55.5 33.5t-26 61t6.5 91.5l71 335h63l-71 -336q-15 -70 9 -106t100 -36q45 0 79 16t59.5 44.5t43.5 69
t28 90.5zM277 706h67l-22 -101h-67zM453 706h68l-22 -101h-68z" />
    <glyph glyph-name="uni03CC.omicronTonos" unicode="&#x3cc;" 
d="M379 478q-45 0 -83 -19t-67 -50t-49 -70.5t-29 -80.5q-8 -41 -5 -80.5t19 -70.5t46 -50t75 -19t83 19t67 50t49 70.5t28 80.5q9 41 6 80.5t-19 70.5t-46 50t-75 19zM390 531q59 0 100 -22t64 -59t28.5 -86.5t-6.5 -105.5t-38.5 -105.5t-65 -86.5t-88.5 -58.5t-109 -21.5
t-100 21.5t-64.5 58.5t-29 86.5t6.5 105.5t38.5 105.5t65.5 86.5t89 59t109 22zM393 573h-51l85 141h78z" />
    <glyph glyph-name="uni03CD.upsilonTonos" unicode="&#x3cd;" horiz-adv-x="522" 
d="M479 258q9 41 12 80t1 73t-7.5 61t-14.5 44h70q6 -15 10.5 -41.5t5.5 -60t-2 -73.5t-12 -83q-13 -62 -37 -112.5t-59 -86t-82.5 -55t-106.5 -19.5q-50 0 -85 10t-55.5 33.5t-26 61t6.5 91.5l71 335h63l-71 -336q-15 -70 9 -106t100 -36q45 0 79 16t59.5 44.5t43.5 69
t28 90.5zM370 573h-51l85 141h78z" />
    <glyph glyph-name="uni03CE.omegaTonos" unicode="&#x3ce;" horiz-adv-x="721" 
d="M151 258q-10 -50 -10 -90.5t9.5 -69t29 -44.5t46.5 -16q47 0 86.5 36t54.5 106l47 224h63l-47 -224q-15 -70 9.5 -106t71.5 -36q27 0 52.5 16t47 44.5t39.5 69t28 90.5q9 41 12 80t1 73t-7.5 61t-14.5 44h70q6 -15 10.5 -41.5t5.5 -60t-2 -73.5t-12 -83
q-13 -62 -36 -112.5t-54 -86t-70 -55t-84 -19.5q-50 0 -81 20t-42 65q-29 -45 -68.5 -65t-89.5 -20q-44 0 -74 19.5t-46.5 55t-18.5 86t11 112.5q9 43 23 83t30 73.5t31.5 60t27.5 41.5h70q-15 -17 -32.5 -44t-33.5 -61t-30 -73t-23 -80zM476 573h-51l85 141h78z" />
    <glyph glyph-name="uni0400" unicode="&#x400;" horiz-adv-x="593" 
d="M223 714h493l-12 -58h-425l-55 -258h398l-12 -58h-398l-60 -282h430l-12 -58h-498zM475 912l75 -141h-51l-101 141h77z" />
    <glyph glyph-name="afii10023" unicode="&#x401;" horiz-adv-x="593" 
d="M223 714h493l-12 -58h-425l-55 -258h398l-12 -58h-398l-60 -282h430l-12 -58h-498zM392 889h67l-21 -101h-67zM568 889h68l-21 -101h-68z" />
    <glyph glyph-name="afii10051" unicode="&#x402;" horiz-adv-x="766" 
d="M468 -10q-14 0 -28 1t-29 3l13 59q11 -1 21.5 -1.5t20.5 -0.5q100 0 158.5 47.5t76.5 135.5q18 82 -24.5 123.5t-123.5 41.5q-87 0 -143 -53.5t-78 -156.5l-40 -189h-68l139 656h-229l12 58h566l-12 -58h-269l-64 -303h3q17 26 42 45.5t54 32t59 19t59 6.5q52 0 92 -14.5
t65 -43t33 -70t-4 -95.5q-13 -59 -40.5 -104.5t-66.5 -76t-88.5 -46.5t-106.5 -16z" />
    <glyph glyph-name="afii10052" unicode="&#x403;" horiz-adv-x="514" 
d="M229 714h441l-12 -58h-373l-139 -656h-68zM401 771l135 141h78l-162 -141h-51z" />
    <glyph glyph-name="afii10053" unicode="&#x404;" horiz-adv-x="695" 
d="M363 -14q-74 0 -129.5 26t-89.5 74.5t-43.5 116.5t8.5 152q16 75 52 143t88.5 119t121 81.5t149.5 30.5q51 0 98 -15.5t80.5 -45.5t51.5 -73t12 -97h-68q1 81 -49.5 127t-138.5 46q-55 0 -104.5 -19.5t-91 -55.5t-73.5 -86.5t-50 -112.5h376l-12 -57h-378
q-13 -68 -4.5 -123t35 -93.5t70 -59.5t101.5 -21q50 0 92.5 15t77 42.5t60.5 65t43 82.5h67q-22 -61 -56.5 -109.5t-80 -82.5t-100 -52t-115.5 -18z" />
    <glyph glyph-name="afii10054" unicode="&#x405;" horiz-adv-x="630" 
d="M318 -14q-63 0 -114 14.5t-83 44.5t-42.5 77t6.5 113h68q-12 -55 -2 -92t37 -59t68 -31.5t90 -9.5q28 0 62.5 8t66.5 25.5t57 45t33 66.5q7 30 -2 52t-27 37t-42 24.5t-48 15.5l-151 39q-30 8 -56.5 20.5t-44.5 32t-25 48.5t2 71q5 26 22.5 61t51.5 66t86.5 52.5
t127.5 21.5q53 0 98.5 -14t75.5 -42t42.5 -69.5t0.5 -96.5h-68q7 40 -3 71t-32 51.5t-54.5 31t-70.5 10.5q-35 0 -69 -7.5t-62 -24t-49 -43.5t-29 -67q-6 -26 -1 -44t17 -31t30 -21t39 -13l165 -43q36 -10 66 -24.5t51 -36t29 -53t-1 -74.5q-3 -12 -9.5 -32t-21 -42.5
t-37 -45.5t-57 -41.5t-81.5 -30t-110 -11.5z" />
    <glyph glyph-name="afii10055" unicode="&#x406;" horiz-adv-x="222" 
d="M228 714h68l-151 -714h-68z" />
    <glyph glyph-name="afii10056" unicode="&#x407;" horiz-adv-x="222" 
d="M228 714h68l-151 -714h-68zM177 889h67l-21 -101h-67zM353 889h68l-21 -101h-68z" />
    <glyph glyph-name="afii10057" unicode="&#x408;" horiz-adv-x="500" 
d="M217 -14q-62 0 -96.5 20.5t-49.5 54t-13.5 77.5t11.5 91h68q-4 -23 -8.5 -55t1 -61t29 -49.5t76.5 -20.5q40 0 68 10.5t48 33t33.5 57.5t23.5 84l103 486h68l-109 -515q-12 -55 -31.5 -95t-49.5 -66.5t-72 -39t-100 -12.5z" />
    <glyph glyph-name="afii10058" unicode="&#x409;" horiz-adv-x="1122" 
d="M52 -6q-6 0 -14 1t-17 2t-15 2.5t-9 2.5l11 58q7 -4 23.5 -5.5t24.5 -1.5q11 0 26.5 2.5t35 18t43.5 49t49.5 96t54 158.5t58.5 236l21 101h439l-64 -302h249q100 0 144.5 -55t23.5 -151q-20 -96 -87.5 -151t-167.5 -55h-317l139 656h-305l-8 -39q-34 -156 -66.5 -262.5
t-64 -176t-61 -107t-55.5 -54.5t-49.5 -20t-41.5 -3zM878 58q75 0 125.5 39.5t64.5 108.5q15 69 -18.5 108.5t-108.5 39.5h-234l-63 -296h234z" />
    <glyph glyph-name="afii10059" unicode="&#x40a;" horiz-adv-x="1122" 
d="M223 714h68l-64 -302h424l64 302h68l-64 -302h249q100 0 144.5 -55t23.5 -151q-20 -96 -87.5 -151t-167.5 -55h-317l75 354h-424l-75 -354h-68zM878 58q75 0 125.5 39.5t64.5 108.5q15 69 -18.5 108.5t-108.5 39.5h-234l-63 -296h234z" />
    <glyph glyph-name="afii10060" unicode="&#x40b;" horiz-adv-x="766" 
d="M363 656h-229l12 58h566l-12 -58h-269l-52 -243q16 7 41.5 14.5t54 14t56.5 10.5t49 4q75 0 115.5 -18.5t57 -48t15.5 -66t-9 -72.5l-53 -251h-68l52 247q5 22 6.5 48t-10 48.5t-38.5 38t-81 15.5q-20 0 -48 -4t-56.5 -10.5t-54 -14.5t-42.5 -17l-74 -351h-68z" />
    <glyph glyph-name="afii10061" unicode="&#x40c;" horiz-adv-x="648" 
d="M223 714h68l-81 -384l496 384h92l-381 -295l245 -419h-88l-218 372l-164 -127l-52 -245h-68zM445 771l135 141h78l-162 -141h-51z" />
    <glyph glyph-name="uni040D" unicode="&#x40d;" horiz-adv-x="710" 
d="M223 714h68l-136 -641l546 641h88l-151 -714h-68l136 641l-546 -641h-88zM485 912l75 -141h-51l-101 141h77z" />
    <glyph glyph-name="afii10062" unicode="&#x40e;" horiz-adv-x="588" 
d="M136 -8q-24 0 -43 3t-29 7l13 60q12 -5 29 -8.5t41 -3.5q38 0 68.5 24t65.5 75l13 19l-149 546h73l132 -474l326 474h72l-404 -582q-32 -46 -59 -73.5t-51.5 -42.5t-48 -19.5t-49.5 -4.5zM471 773q-63 0 -91 33.5t-23 96.5h39q-3 -38 19 -60t67 -22q43 0 75 21.5t48 60.5
h39q-24 -63 -67 -96.5t-106 -33.5z" />
    <glyph glyph-name="afii10145" unicode="&#x40f;" horiz-adv-x="694" 
d="M313 0h-241l151 714h68l-139 -656h414l139 656h68l-151 -714h-241l-41 -190h-68z" />
    <glyph glyph-name="afii10017" unicode="&#x410;" horiz-adv-x="630" 
d="M432 714h76l129 -714h-73l-40 222h-325l-133 -222h-72zM513 280l-60 366l-221 -366h281z" />
    <glyph glyph-name="afii10018" unicode="&#x411;" horiz-adv-x="667" 
d="M223 714h493l-12 -58h-425l-52 -244h269q100 0 144.5 -55t23.5 -151q-20 -96 -87.5 -151t-167.5 -55h-337zM406 58q75 0 125.5 39.5t64.5 108.5q15 69 -18.5 108.5t-108.5 39.5h-254l-63 -296h254z" />
    <glyph glyph-name="afii10019" unicode="&#x412;" horiz-adv-x="667" 
d="M223 714h302q45 0 85 -8.5t67 -29t39 -54t1 -83.5q-6 -28 -20.5 -54.5t-35.5 -48t-47 -36.5t-55 -21v-2q67 -9 98 -56.5t16 -117.5q-6 -26 -21 -60.5t-47.5 -66.5t-88 -54t-142.5 -22h-302zM386 58q38 0 73.5 6.5t65 23.5t50.5 45t30 72q15 69 -26.5 103.5t-132.5 34.5
h-234l-60 -285h234zM459 401q40 0 72.5 9.5t56 26t38 38.5t19.5 47q29 134 -132 134h-234l-54 -255h234z" />
    <glyph glyph-name="afii10020" unicode="&#x413;" horiz-adv-x="514" 
d="M229 714h441l-12 -58h-373l-139 -656h-68z" />
    <glyph glyph-name="afii10021" unicode="&#x414;" horiz-adv-x="716" 
d="M12 58h75q53 70 89.5 143.5t62.5 146.5t43 142t30 130l20 94h442l-139 -656h85l-53 -248h-68l41 190h-572l-41 -190h-67zM567 58l127 598h-306l-5 -24q-13 -60 -29.5 -130.5t-42.5 -145.5t-62.5 -151t-89.5 -147h408z" />
    <glyph glyph-name="afii10022" unicode="&#x415;" horiz-adv-x="593" 
d="M223 714h493l-12 -58h-425l-55 -258h398l-12 -58h-398l-60 -282h430l-12 -58h-498z" />
    <glyph glyph-name="afii10024" unicode="&#x416;" horiz-adv-x="990" 
d="M399 406l-231 308h92l272 -376l80 376h68l-80 -376l432 376h92l-361 -308l235 -406h-88l-206 356l-122 -104l-53 -252h-68l53 252l-78 104l-356 -356h-88z" />
    <glyph glyph-name="afii10025" unicode="&#x417;" horiz-adv-x="627" 
d="M320 -15q-66 0 -115.5 16.5t-79 48t-39.5 77t2 102.5l1 6h65q-21 -99 30 -147t153 -48q45 0 84 13.5t68.5 36.5t49 53.5t27.5 64.5q6 31 -1 56.5t-25 43.5t-45.5 28t-61.5 10h-114l12 58h114q28 0 56 8t51 23.5t39.5 39t23.5 54.5q8 37 0 64t-27 44.5t-49.5 26t-66.5 8.5
q-42 0 -80 -10t-69 -30.5t-53 -51t-33 -70.5h-66q15 55 44 96t70 68.5t91 41t106 13.5q50 0 92.5 -11.5t70 -35.5t39 -60.5t0.5 -86.5q-6 -28 -20 -52.5t-33 -44t-41 -33.5t-43 -21l-1 -3q54 -15 78.5 -57.5t9.5 -114.5q-7 -33 -29 -72t-60 -73t-94 -56.5t-131 -22.5z" />
    <glyph glyph-name="afii10026" unicode="&#x418;" horiz-adv-x="710" 
d="M223 714h68l-136 -641l546 641h88l-151 -714h-68l136 641l-546 -641h-88z" />
    <glyph glyph-name="afii10027" unicode="&#x419;" horiz-adv-x="710" 
d="M223 714h68l-136 -641l546 641h88l-151 -714h-68l136 641l-546 -641h-88zM513 773q-63 0 -91 33.5t-23 96.5h39q-3 -38 19 -60t67 -22q43 0 75 21.5t48 60.5h39q-24 -63 -67 -96.5t-106 -33.5z" />
    <glyph glyph-name="afii10028" unicode="&#x41a;" horiz-adv-x="648" 
d="M223 714h68l-81 -384l496 384h92l-381 -295l245 -419h-88l-218 372l-164 -127l-52 -245h-68z" />
    <glyph glyph-name="afii10029" unicode="&#x41b;" horiz-adv-x="704" 
d="M52 -6q-6 0 -14 1t-17 2t-15 2.5t-9 2.5l11 58q7 -4 23.5 -5.5t24.5 -1.5q11 0 26.5 2.5t35 18t43.5 49t49.5 96t54 158.5t58.5 236l21 101h439l-151 -714h-68l139 656h-305l-8 -39q-34 -156 -66.5 -262.5t-64 -176t-61 -107t-55.5 -54.5t-49.5 -20t-41.5 -3z" />
    <glyph glyph-name="afii10030" unicode="&#x41c;" horiz-adv-x="833" 
d="M221 714h100l114 -626l379 626h100l-151 -714h-68l131 617h-2l-375 -617h-64l-114 617h-2l-131 -617h-68z" />
    <glyph glyph-name="afii10031" unicode="&#x41d;" horiz-adv-x="704" 
d="M223 714h68l-66 -310h424l66 310h68l-151 -714h-68l73 346h-424l-73 -346h-68z" />
    <glyph glyph-name="afii10032" unicode="&#x41e;" horiz-adv-x="741" 
d="M368 -14q-84 0 -141.5 30.5t-88.5 81.5t-37.5 118t8.5 141q16 73 51.5 140.5t88 119t122.5 82t154 30.5t140.5 -30.5t88 -82t38 -119t-9.5 -140.5q-15 -74 -50.5 -141t-88.5 -118t-122 -81.5t-153 -30.5zM380 43q70 0 126.5 27t98.5 71.5t69.5 100.5t39.5 115
q13 58 9.5 114.5t-26.5 101t-68.5 71.5t-115.5 27q-71 0 -127.5 -27t-98.5 -71.5t-69.5 -101t-40.5 -114.5q-12 -59 -8.5 -115t26.5 -100.5t68.5 -71.5t116.5 -27z" />
    </font>
</defs>
</svg>
